<?xml version="1.0" encoding="utf-8"?>
<!-- Generator: Adobe Illustrator 23.0.3, SVG Export Plug-In . SVG Version: 6.00 Build 0)  -->
<svg version="1.1" id="Livello_1" xmlns="http://www.w3.org/2000/svg" xmlns:xlink="http://www.w3.org/1999/xlink" x="0px" y="0px"
	 viewBox="0 0 512 512" style="enable-background:new 0 0 512 512;" xml:space="preserve">
<style type="text/css">
	.st0{fill:#FFFFFF;}
</style>
<g id="Outline">
	
		<rect x="116.9" y="208" transform="matrix(0.3714 -0.9285 0.9285 0.3714 -99.9708 284.348)" class="st0" width="86.2" height="16"/>
	<path class="st0" d="M123.2,185.6l-32,24c-3.5,2.7-4.3,7.7-1.6,11.2c0.5,0.6,1,1.1,1.6,1.6l32,24l9.6-12.8L109.3,216l23.5-17.6
		L123.2,185.6z"/>
	<path class="st0" d="M196.8,246.4l32-24c3.5-2.7,4.3-7.7,1.6-11.2c-0.5-0.6-1-1.1-1.6-1.6l-32-24l-9.6,12.8l23.5,17.6l-23.5,17.6
		L196.8,246.4z"/>
	<rect x="48" y="136" class="st0" width="16" height="16"/>
	<rect x="80" y="136" class="st0" width="16" height="16"/>
	<rect x="112" y="136" class="st0" width="16" height="16"/>
	<path class="st0" d="M447.9,274.2l-63.9-9.1V240c17.9-13.4,29.4-33.7,31.6-56h0.4c17.7,0,32-14.3,32-32c0-11.7-6.3-22.4-16.5-28
		c15.5-8.5,21.1-28,12.5-43.5c-4.3-7.7-11.6-13.4-20.1-15.5c-1.6-18.6-17.2-33-35.9-33c-6,0-11.9,1.5-17.1,4.4
		c-10.8-19.2-35.1-26.1-54.4-15.3c-6.4,3.6-11.7,8.9-15.3,15.3C295.9,33.5,290,32,284,32c-18.7,0-34.3,14.3-35.9,33
		c-17.1,4.4-27.5,21.8-23.1,38.9c0,0,0,0.1,0,0.1H48c-17.7,0-32,14.3-32,32v184c0,17.7,14.3,32,32,32h84.9l-10.7,32H112
		c-13.2,0.1-23.9,10.8-24,24c0,13.2,10.8,24,24,24h64v24c0,22.1,17.9,40,40,40c0,0,25.1-0.1,25.7-0.2l94.2-19.9l94.5,19.9
		c0.5,0.1,25.6,0.2,25.6,0.2c22.1,0,40-17.9,40-40V329.6C495.8,301.8,475.4,278.3,447.9,274.2z M304,249.3c20.4,8.9,43.6,8.9,64,0
		v21.2c-6.3,15.9-20.5,21.7-32,21.7s-25.7-5.7-32-21.7V249.3z M400,176c0,35.3-28.7,64-64,64s-64-28.7-64-64v-2.9
		c11.7,13.3,31.9,14.6,45.1,2.9c4.8-4.2,8.3-9.8,9.9-16h18c4.4,17.1,21.8,27.4,38.9,23c6.2-1.6,11.8-5,16-9.9V176z M240,152
		c0-8.8,7.2-16,16-16v32C247.2,168,240,160.8,240,152z M376,120c-14.6,0-27.3,9.9-31,24h-18c-4.4-17.1-21.8-27.4-38.9-23
		c-3.3,0.8-6.4,2.2-9.3,4.1l2-5.9c2.4,0.6,4.8,0.9,7.3,0.9c11.2,0,21.6-5.9,27.4-15.5c11.9,10,29.3,10,41.2,0
		c5.8,9.6,16.2,15.5,27.4,15.5c2.5,0,4.9-0.3,7.3-0.9l2,5.9C388.1,121.8,382.1,120,376,120z M392,152c0,8.8-7.2,16-16,16
		s-16-7.2-16-16s7.2-16,16-16C384.8,136,392,143.2,392,152z M312,152c0,8.8-7.2,16-16,16s-16-7.2-16-16s7.2-16,16-16
		C304.8,136,312,143.2,312,152z M416,168v-32c8.8,0,16,7.2,16,16S424.8,168,416,168z M255.6,80c0.2,0,0.4,0,0.7,0
		c4.4,0.1,8-3.5,8.1-7.9c0-0.4,0-0.8-0.1-1.3l-0.1-0.3c-0.1-0.8-0.2-1.7-0.3-2.5c0-11,9-20,20-20c5.7,0,11,2.4,14.8,6.7
		c3,3.3,8,3.5,11.3,0.6c1.3-1.1,2.1-2.6,2.5-4.3c2.8-13,15.5-21.2,28.4-18.5c9.3,2,16.5,9.2,18.5,18.5c0.9,4.3,5.2,7.1,9.5,6.2
		c1.7-0.4,3.2-1.2,4.3-2.5c3.7-4.2,9.1-6.7,14.8-6.7c11,0,20,9,20,20c0,0.9-0.1,1.7-0.3,2.5l-0.1,0.3c-0.3,2.3,0.4,4.7,1.9,6.4
		c1.5,1.8,3.8,2.8,6.1,2.7c0.3,0,0.5,0,0.7,0c8.8,0.2,15.8,7.6,15.6,16.4c-0.2,8.7-7.3,15.6-16,15.6c-0.8,0-8.2-0.4-10.2,0.2
		l-2.1-6.2c-1.4-4.2-5.9-6.5-10.1-5.1c-0.5,0.2-1.1,0.4-1.6,0.7c-2.4,1.5-5.2,2.3-8.1,2.3c-8.8,0-16-7.2-16-16c0-4.4-3.6-8-8-8
		c-0.9,0-1.7,0.1-2.5,0.4l-1.6,0.5c-2.3,0.8-4.1,2.5-5,4.7c-3.1,8.2-12.3,12.4-20.5,9.3c-4.3-1.6-7.7-5-9.3-9.3
		c-0.9-2.2-2.7-4-5-4.7l-1.6-0.5c-4.2-1.4-8.7,0.9-10.1,5.1c-0.3,0.8-0.4,1.7-0.4,2.5c0,8.8-7.2,16-16,16c-2.9,0-5.7-0.8-8.1-2.3
		c-3.8-2.3-8.7-1-11,2.8c-0.3,0.5-0.5,1-0.7,1.6l-2.1,6.2c-1.9-0.6-9.4-0.2-10.2-0.2c-8.8,0.1-16.1-7-16.2-15.8
		C239.7,87.4,246.8,80.1,255.6,80L255.6,80z M32,136c0-8.8,7.2-16,16-16h186.9c1.7,1.5,3.6,2.9,5.7,4c-15.5,8.5-21.1,28-12.5,43.5
		c5.6,10.2,16.4,16.5,28,16.5h0.4c2.2,22.3,13.7,42.6,31.6,56v25.6L220.2,280c-10.9,2.4-20.8,7.9-28.5,16H32V136z M32,320v-8h148.9
		c-3.2,7.2-4.9,14.9-4.9,22.8v1.2H48C39.2,336,32,328.8,32,320z M149.8,352H176v32h-36.9L149.8,352z M104,408c0-2.1,0.8-4.1,2.3-5.5
		c0.1-0.1,0.1-0.1,0.2-0.2c1.5-1.5,3.5-2.3,5.5-2.3h64v16h-64C107.6,416,104,412.4,104,408z M239.2,480H216c-13.2,0-24-10.8-24-24
		v-8h29.6l22,14.7c1.3,0.9,2.9,1.3,4.4,1.3h31.2l17.9,3.8L239.2,480z M480,456c0,13.2-10.8,24-24,24h-23.2l-151.2-31.8
		c-0.5-0.1-1.1-0.2-1.6-0.2h-29.6l-22-14.7c-1.3-0.9-2.9-1.3-4.4-1.3h-32v-40h30.4l54.5,23.4c0.8,0.3,1.7,0.6,2.5,0.6L480,431.4V456
		z M480,415.4l-71.9-5.5l27.1-11.6l14.5-6.2H480V415.4z M480,376h-32c-1.1,0-2.2,0.2-3.2,0.6l-4.8,2.1V352h-16v33.6l-33.9,14.5
		l-53.9,4.2l-54.2-4.2L248,385.6V352h-16v26.7l-4.8-2.1c-1-0.4-2.1-0.6-3.2-0.6h-32v-41.2c0.1-18.8,13.2-35.1,31.6-39.1l67.7-14.5
		c13,24.7,43.5,34.2,68.2,21.2c9.2-4.8,16.7-12.4,21.4-21.6l2,0.3l0,0l62.8,8.9c19.6,2.9,34.2,19.7,34.4,39.6V376z"/>
	<path class="st0" d="M328.9,192H312v16h16.9c10.8,0,21.4-0.3,31.6-1l-1-16C349.7,191.7,339.4,192,328.9,192z"/>
</g>
</svg>
