<svg id="Livello_1" data-name="Livello 1" xmlns="http://www.w3.org/2000/svg" viewBox="0 0 512 512.05">
  <defs>
    <style>
      .cls-1 {
        fill: #fff;
      }
    </style>
  </defs>
  <title>baf-curriculum</title>
  <path class="cls-1" d="M511.4,338.2A37.66,37.66,0,0,0,450,316.4l-80.6,69.4a40.94,40.94,0,0,0-40.3-33.9H253l-13.8-8.5a142.87,142.87,0,0,0-74.5-21h-4.1a112.28,112.28,0,0,0-68.4,23.2V344a20.06,20.06,0,0,0-20-20H20A20.06,20.06,0,0,0,0,344V492a20.06,20.06,0,0,0,20,20H72a20,20,0,0,0,17.3-10H166a10,10,0,0,0,0-20H92V372.7a92.09,92.09,0,0,1,68.4-30.3h4.1a122.07,122.07,0,0,1,64.1,18.1l16.2,9.9a9.8,9.8,0,0,0,5.2,1.5h79a20.91,20.91,0,0,1,1,41.8H226.3a10,10,0,0,0,0,20H330.6a39.25,39.25,0,0,0,24.7-9.4L463,331.6a17.74,17.74,0,0,1,18.6-2.7,17.61,17.61,0,0,1,5.3,28.6l-93.9,94A104,104,0,0,1,319.2,482H256a10,10,0,0,0,0,20h63.2A123,123,0,0,0,407,465.6l93.9-94A37.65,37.65,0,0,0,511.4,338.2ZM20,492V344H72V492Z" transform="translate(0 0.05)"/>
  <path class="cls-1" d="M63,119.2,138,162v68.1a16.86,16.86,0,0,0,7.8,14.3l75.8,49.4a41.31,41.31,0,0,0,44.8,0l75.8-49.4a17,17,0,0,0,7.8-14.3V162l60-34.3v32a34,34,0,0,0-24,32.5v83a10,10,0,0,0,10,10h48a10,10,0,0,0,10-10v-83a34,34,0,0,0-24-32.5V110.5a10,10,0,0,0-5-8.7L249,1.3a9.75,9.75,0,0,0-9.9,0L63,101.9a10,10,0,0,0-5,8.7A9.87,9.87,0,0,0,63,119.2ZM330,228.6l-74.5,48.5a21.28,21.28,0,0,1-23,0L158,228.6V173.4l81,46.3a9.58,9.58,0,0,0,5,1.3,9.83,9.83,0,0,0,5-1.3l81-46.3Zm104,36.6H406v-73a14,14,0,0,1,28,0ZM244,21.5l138.4,79H271.9a29.91,29.91,0,1,0,.7,20H382.4L244,199.5l-155.9-89Zm10,89.9a10,10,0,1,1-10-10A10,10,0,0,1,254,111.4Z" transform="translate(0 0.05)"/>
  <path class="cls-1" d="M211,482a10.52,10.52,0,0,0-7.1,2.9A9.73,9.73,0,0,0,201,492a10.33,10.33,0,0,0,2.9,7.1A9.73,9.73,0,0,0,211,502a10.33,10.33,0,0,0,7.1-2.9A9.73,9.73,0,0,0,221,492a10.33,10.33,0,0,0-2.9-7.1A9.9,9.9,0,0,0,211,482Z" transform="translate(0 0.05)"/>
</svg>
