<?xml version="1.0" encoding="utf-8"?>
<!-- Generator: Adobe Illustrator 23.0.3, SVG Export Plug-In . SVG Version: 6.00 Build 0)  -->
<svg version="1.1" id="Livello_1" xmlns="http://www.w3.org/2000/svg" xmlns:xlink="http://www.w3.org/1999/xlink" x="0px" y="0px"
	 viewBox="0 0 512 512" style="enable-background:new 0 0 512 512;" xml:space="preserve">
<style type="text/css">
	.st0{fill:#FFFFFF;}
</style>
<path class="st0" d="M210.4,453.9l-1.5,7.3L210.4,453.9c-4.1-0.8-8.1,1.8-8.9,5.9c-0.8,4.1,1.8,8,5.9,8.8c0,0,0.1,0,0.1,0
	c0.5,0.1,0.9,0.1,1.4,0.1c3.5,0,6.7-2.5,7.4-6.1C217.1,458.6,214.4,454.7,210.4,453.9z"/>
<path class="st0" d="M267.7,456.3l0.7,7.5L267.7,456.3c-4.1,0.4-7.1,4.1-6.7,8.2c0.4,3.9,3.7,6.7,7.4,6.7c0.3,0,0.5,0,0.8,0l0.2,0
	c4.1-0.5,7-4.2,6.6-8.3C275.5,458.8,271.8,455.9,267.7,456.3z"/>
<path class="st0" d="M239,457.2c0,0-0.1,0-0.1,0c-4.1-0.2-7.6,3-7.8,7.2c-0.2,4.1,3.1,7.6,7.2,7.8c0.1,0,0.2,0,0.3,0
	c4,0,7.3-3.1,7.5-7.2C246.3,460.9,243.1,457.4,239,457.2z"/>
<path class="st0" d="M182.7,446.3L182.7,446.3c-4-1.4-8.2,0.6-9.6,4.5c-1.4,3.9,0.7,8.2,4.6,9.6c0.8,0.3,1.7,0.4,2.5,0.4
	c3.1,0,6-1.9,7.1-5C188.6,452,186.6,447.7,182.7,446.3z"/>
<path class="st0" d="M296,451l1.8,7.3L296,451c-4,1-6.4,5.1-5.4,9.1c0.9,3.4,3.9,5.6,7.3,5.6c0.6,0,1.2-0.1,1.9-0.2
	c0,0,0.2,0,0.2-0.1c4-1.1,6.3-5.2,5.2-9.2C304.1,452.4,300,450,296,451z"/>
<path class="st0" d="M323.1,441.6l3,6.9L323.1,441.6c-3.8,1.7-5.6,6.1-3.9,9.9c1.2,2.8,4,4.5,6.9,4.5c1,0,2-0.2,3-0.6
	c0,0,0.2-0.1,0.2-0.1c3.8-1.7,5.4-6.1,3.7-9.9C331.3,441.6,326.9,439.9,323.1,441.6z"/>
<path class="st0" d="M154,99.7c1.2,0,2.4-0.3,3.6-0.9c3.7-1.9,5-6.5,3.1-10.1c-1.9-3.7-6.5-5-10.1-3.1l-0.1,0c-3.7,1.9-5,6.5-3,10.1
	C148.7,98.3,151.3,99.7,154,99.7z"/>
<path class="st0" d="M67.3,183.5c1.1,0.6,2.3,0.9,3.5,0.9c2.7,0,5.3-1.5,6.6-4l0.1-0.3c1.8-3.7,0.3-8.2-3.4-10
	c-3.7-1.8-8.2-0.3-10,3.3C62.2,177,63.6,181.5,67.3,183.5z"/>
<path class="st0" d="M56.7,211.7c0.8,0.3,1.6,0.4,2.4,0.4c3.1,0,6-2,7.1-5.1l0.1-0.3c1.2-4-1-8.2-5-9.4c-3.9-1.2-8.1,1-9.3,4.9
	C50.7,206.1,52.8,210.4,56.7,211.7z"/>
<path class="st0" d="M82.1,157.2c1.3,1,2.9,1.4,4.4,1.4c2.3,0,4.6-1.1,6.1-3.1l0.1-0.1c2.4-3.4,1.6-8-1.7-10.4
	c-3.4-2.4-8.1-1.6-10.5,1.7l6,4.4l-6.1-4.4C78,150.1,78.7,154.8,82.1,157.2z"/>
<path class="st0" d="M128.5,115.9c1.6,0,3.2-0.5,4.5-1.5c3.3-2.4,4.1-7.1,1.6-10.5c-2.4-3.3-7.1-4.1-10.5-1.6l-0.2,0.1
	c-3.3,2.5-4,7.2-1.4,10.5C124,114.9,126.3,115.9,128.5,115.9z"/>
<path class="st0" d="M50,325.4c1,3.2,4,5.3,7.2,5.3c0.7,0,1.5-0.1,2.2-0.3c3.9-1.2,6.2-5.4,5-9.3c-1.1-3.9-5.2-6.2-9.2-5.2
	c-4,1.1-6.4,5.2-5.3,9.2C49.9,325.2,50,325.3,50,325.4z"/>
<path class="st0" d="M105.9,135.7c1.9,0,3.9-0.8,5.4-2.3c2.9-2.9,2.9-7.7,0-10.6c-2.9-2.9-7.7-2.9-10.6,0l-0.1,0.1
	c-2.9,3-2.8,7.7,0.1,10.6C102.1,135,104,135.7,105.9,135.7z"/>
<path class="st0" d="M58.3,292.7c-0.5-4.1-4.2-7-8.3-6.5c-4.1,0.5-7,4.2-6.6,8.3l0,0.3c0.5,3.7,3.7,6.4,7.4,6.4c0.4,0,0.7,0,1.1-0.1
	C56,300.6,58.9,296.8,58.3,292.7z"/>
<path class="st0" d="M48.9,271.2c0.1,0,0.2,0,0.2,0c4,0,7.4-3.2,7.5-7.3l0-0.3c0-4.1-3.4-7.5-7.5-7.5c-4.1,0-7.4,3.3-7.5,7.4
	C41.5,267.7,44.7,271.1,48.9,271.2z"/>
<path class="st0" d="M50.5,241.2c0.4,0.1,0.9,0.1,1.3,0.1c3.6,0,6.7-2.6,7.4-6.2c0-0.1,0-0.2,0.1-0.3c0.6-4.1-2.2-7.9-6.3-8.5
	c-4.1-0.6-7.8,2.2-8.5,6.2C43.7,236.6,46.4,240.4,50.5,241.2z"/>
<path class="st0" d="M404.3,159.6c1.5,2.1,3.8,3.2,6.2,3.2c1.5,0,2.9-0.4,4.2-1.3c3.4-2.3,4.3-7,1.9-10.4l-6.2,4.2l6.2-4.2
	c-2.3-3.4-7-4.3-10.4-2c-3.4,2.3-4.3,7-2,10.4L404.3,159.6z"/>
<path class="st0" d="M442.6,235.1c-4.1,0.5-7.1,4.2-6.6,8.3l0,0.3c0.5,3.7,3.7,6.4,7.4,6.4c0.4,0,0.7,0,1.1-0.1
	c4.1-0.6,6.9-4.3,6.4-8.4C450.4,237.6,446.7,234.6,442.6,235.1z"/>
<path class="st0" d="M429.9,213.9L429.9,213.9c1,3.4,4,5.5,7.2,5.5c0.7,0,1.4-0.1,2.1-0.3c4-1.2,6.2-5.3,5.1-9.3l0-0.1
	c-1.2-4-5.3-6.2-9.3-5.1C431.1,205.8,428.8,209.9,429.9,213.9z"/>
<path class="st0" d="M419.4,185.9c1.3,2.7,4,4.2,6.8,4.2c1.1,0,2.2-0.2,3.3-0.8c3.7-1.8,5.3-6.3,3.4-10l-6.8,3.2l6.8-3.2
	c-1.8-3.8-6.2-5.4-10-3.6s-5.4,6.2-3.6,10L419.4,185.9z"/>
<path class="st0" d="M385.4,136.2c1.5,1.5,3.4,2.2,5.4,2.2c1.9,0,3.8-0.7,5.2-2.1c2.9-2.9,3-7.6,0.2-10.5c-2.8-3-7.5-3.2-10.6-0.4
	c-3,2.8-3.2,7.6-0.4,10.6L385.4,136.2z"/>
<path class="st0" d="M445,266.4c-4.1-0.1-7.6,3.1-7.7,7.2c-0.2,4.1,3,7.6,7.1,7.8c0.1,0,0.3,0,0.4,0c3.9,0,7.3-3.1,7.5-7.1l0-0.3
	C452.4,269.9,449.2,266.5,445,266.4z"/>
<path class="st0" d="M337.4,99.3l0.2,0.1c1.1,0.6,2.3,0.9,3.5,0.9c2.7,0,5.2-1.4,6.6-4c2-3.6,0.6-8.2-3-10.2l-3.6,6.6l3.6-6.6
	c-3.6-2-8.2-0.7-10.2,3C332.5,92.8,333.8,97.4,337.4,99.3z"/>
<path class="st0" d="M362.8,115.8l0.1,0.1c1.4,1,2.9,1.5,4.5,1.5c2.3,0,4.5-1,6-3c2.5-3.3,1.9-8-1.4-10.5l-0.1,0
	c-3.3-2.5-8-1.9-10.5,1.4S359.5,113.3,362.8,115.8z"/>
<path class="st0" d="M507.4,379.9l-35.2-35.3c-3-3-7-4.7-11.2-4.7c-4.2,0-8.2,1.7-11.2,4.7l-0.8,0.8l-2.3-2.3
	c-2.9-2.9-5.1-6.2-6.6-9.8c-0.1-0.5-0.3-0.9-0.5-1.4c-1.1-3.2-1.7-6.7-1.7-10.2v-10c0.7,0.4,1.4,0.6,2.2,0.8
	c0.4,0.1,0.9,0.1,1.3,0.1c3.6,0,6.7-2.5,7.4-6.1c0.8-4.1-1.8-8-5.9-8.8c-1.8-0.4-3.6,0-5,0.8c-0.5-10.7-4.8-20.6-12.4-28.2
	L391.2,236c-7.7-7.7-17.9-11.9-28.7-11.9c-8.4,0-16.4,2.5-23.1,7.2l-3.6-3.6V142c0-10.3-3.8-20.3-10.6-28.1
	c-4.8-5.5-7.5-12.6-7.5-20v-6.3h0.5c8.7,0,15.9-7.1,15.9-15.9V21.9c0-8.7-7.1-15.9-15.9-15.9H178.1c-8.7,0-15.9,7.1-15.9,15.9v49.9
	c0,8.7,7.1,15.9,15.9,15.9h1.2v3.3c0,8.1-3.1,15.7-8.9,21.4l-15.1,15.1c-8,8-12.4,18.7-12.4,30.1v48.4c0,6.6,1.6,12.8,4.4,18.3
	c-9.9,0.6-19.2,4.7-26.3,11.8l-34.2,34.2c-8,8-12.4,18.7-12.4,30.1v21.4c0,8.1-3.1,15.7-8.8,21.4l-2.3,2.3c0,0,0,0,0,0l-0.8-0.8
	c-3-3-7-4.7-11.2-4.7c-4.2,0-8.2,1.7-11.2,4.7L4.6,379.9c-6.2,6.2-6.2,16.2,0,22.4l12.1,12.1c2.9,2.9,7.7,2.9,10.6,0
	c2.9-2.9,2.9-7.7,0-10.6l-12.1-12.1c-0.3-0.3-0.3-0.9,0-1.2l35.2-35.3c0.3-0.3,0.9-0.3,1.2,0l6.1,6.1h0l83.6,83.7l9.4,9.4
	c0.3,0.3,0.3,0.9,0,1.2L115.5,491c-0.3,0.3-0.9,0.3-1.2,0l-65.8-65.9c-2.9-2.9-7.7-2.9-10.6,0c-2.9,2.9-2.9,7.7,0,10.6l65.8,65.9
	c3,3,7,4.7,11.2,4.7c4.2,0,8.2-1.7,11.2-4.7l35.2-35.3c6.2-6.2,6.2-16.2,0-22.4l-0.4-0.4l4.4-4.4c5.2-5.2,12.1-8.3,19.4-8.8
	c10.3-0.7,20-5.1,27.3-12.4l32.3-32.4c9.3-2.4,16.6-10,18.6-19.6c3.3,1.6,7,2.5,11,2.5c14.1,0,25.6-11.5,25.6-25.6V325
	c3.2,1.5,6.8,2.3,10.6,2.3c14.1,0,25.6-11.5,25.6-25.6V249l23.1,23.2c1.5,1.5,3.4,2.2,5.3,2.2c1.9,0,3.8-0.7,5.3-2.2
	c2.9-2.9,2.9-7.7,0-10.6l-19.2-19.3c3.7-2.1,7.9-3.1,12.3-3.1c6.8,0,13.2,2.7,18.1,7.5l34.2,34.2c5.2,5.2,8.1,12.1,8.1,19.5v21.4
	c0,12.1,4.7,23.5,13.2,32l2.3,2.3L427.4,367l-65.8,65.9l-3.7-3.7c0,0-0.1-0.1-0.1-0.1l-0.6-0.6c-7.8-7.8-18.1-12.5-29-13.2
	c-6.7-0.4-12.9-3.3-17.7-8l-24.6-24.5c-2.9-2.9-7.7-2.9-10.6,0c-2.9,2.9-2.9,7.7,0,10.6l24.6,24.5c7.3,7.3,17,11.7,27.3,12.4
	c7.3,0.5,14.2,3.6,19.4,8.8l0.4,0.4c0.2,0.2,0.4,0.4,0.6,0.6l3.5,3.5l-0.4,0.4c-6.2,6.2-6.2,16.2,0,22.4l35.2,35.3
	c3,3,7,4.7,11.2,4.7c4.2,0,8.2-1.7,11.2-4.7l99.1-99.2C513.5,396.2,513.5,386.1,507.4,379.9z M442.8,305.4l-0.1,0l-1.4-0.3
	L442.8,305.4z M201.5,407.3c-4.7,4.7-11,7.6-17.7,8c-11,0.7-21.3,5.4-29,13.2l-4.4,4.4l-4-4c-0.1-0.1-0.1-0.1-0.2-0.2l-72.5-72.7
	l2.3-2.3c8.5-8.5,13.2-19.9,13.2-32v-21.4c0-7.4,2.9-14.3,8.1-19.5l34.2-34.2c4.8-4.8,11.2-7.5,18.1-7.5c4.4,0,8.6,1.1,12.3,3.2
	l-19.3,19.3c-2.9,2.9-2.9,7.7,0,10.6c1.5,1.5,3.4,2.2,5.3,2.2c1.9,0,3.8-0.7,5.3-2.2l23-23.1v93.6c0,14.1,11.5,25.6,25.6,25.6
	c4,0,7.7-0.9,11.1-2.5c1.5,7.4,6.3,13.7,12.7,17.3L201.5,407.3z M320.7,301.7c0,5.9-4.8,10.6-10.6,10.6c-5.8,0-10.6-4.8-10.6-10.6
	V218c0-4.1-3.4-7.5-7.5-7.5s-7.5,3.4-7.5,7.5v124.8c0,5.9-4.7,10.6-10.6,10.6c-5.2,0-9.6-3.8-10.4-8.9V217.9c0-4.1-3.4-7.5-7.5-7.5
	c-1.3,0-2.6,0.4-3.7,1c-2.4,1.3-4,3.8-4,6.6v124.8c0,1,0.1,1.9,0.2,2.8v15.1c0,5.9-4.7,10.6-10.6,10.6c-5.8,0-10.6-4.8-10.6-10.6
	V217.8c0-4.1-3.4-7.5-7.5-7.5c-4.1,0-7.5,3.4-7.5,7.5v125c0,5.9-4.7,10.6-10.6,10.6c-5.8,0-10.6-4.8-10.6-10.6V203.3
	c0-4.1-3.4-7.5-7.5-7.5c-4.1,0-7.5,3.4-7.5,7.5v25.8c-0.6,0.2-1.2,0.5-1.8,0.9c-9.7-3.6-16.6-13-16.6-24v-48.4
	c0-7.4,2.9-14.3,8.1-19.5l15.1-15.1c8.5-8.5,13.2-19.9,13.2-32v-3.3h15.1c4.1,0,7.5-3.4,7.5-7.5c0-4.1-3.4-7.5-7.5-7.5h-31.2
	c-0.5,0-0.9-0.4-0.9-0.9V21.9c0-0.5,0.4-0.9,0.9-0.9h140.1c0.5,0,0.9,0.4,0.9,0.9v49.9c0,0.5-0.4,0.9-0.9,0.9h-73.6
	c-4.1,0-7.5,3.4-7.5,7.5c0,4.1,3.4,7.5,7.5,7.5h58.1v6.3c0,11,4,21.6,11.2,29.9c4.4,5,6.8,11.5,6.8,18.2V301.7z M496.8,391.8
	L397.7,491c-0.2,0.2-0.4,0.2-0.6,0.2c-0.2,0-0.4-0.1-0.6-0.2l-35.2-35.3c-0.3-0.3-0.3-0.9,0-1.2l5.7-5.7l0,0l57.5-57.6l35.9-35.9
	c0.3-0.3,0.9-0.3,1.2,0l35.2,35.3C497.1,390.9,497.1,391.4,496.8,391.8z"/>
<path class="st0" d="M201.8,38.8c-4.4,0-8,3.6-8,8c0,4.4,3.6,8,8,8c4.4,0,8-3.6,8-8C209.8,42.4,206.2,38.8,201.8,38.8z"/>
<path class="st0" d="M463.4,380.7c-4.4,0-8,3.6-8,8s3.6,8,8,8c4.4,0,8-3.6,8-8S467.8,380.7,463.4,380.7z"/>
<path class="st0" d="M125,457.2c0-4.4-3.6-8-8-8c-4.4,0-8,3.6-8,8s3.6,8,8,8C121.4,465.2,125,461.6,125,457.2z"/>
</svg>
