<?xml version="1.0" encoding="utf-8"?>
<!-- Generator: Adobe Illustrator 23.0.3, SVG Export Plug-In . SVG Version: 6.00 Build 0)  -->
<svg version="1.1" id="Livello_1" xmlns="http://www.w3.org/2000/svg" xmlns:xlink="http://www.w3.org/1999/xlink" x="0px" y="0px"
	 viewBox="0 0 512 512" style="enable-background:new 0 0 512 512;" xml:space="preserve">
<style type="text/css">
	.st0{fill:#FFFFFF;}
</style>
<path class="st0" d="M312,296c-4.4,0-8-3.6-8-8c0-8.8-7.2-16-16-16c-4.4,0-8-3.6-8-8c0-4.4,3.6-8,8-8c17.7,0,32,14.4,32,32
	C320,292.4,316.4,296,312,296z"/>
<path class="st0" d="M288,272c-4.4,0-8-3.6-8-8v-24c0-4.4,3.6-8,8-8c4.4,0,8,3.6,8,8v24C296,268.4,292.4,272,288,272z"/>
<path class="st0" d="M200,296c-4.4,0-8-3.6-8-8c0-30.9,25.1-56,56-56c4.4,0,8,3.6,8,8c0,4.4-3.6,8-8,8c-22.1,0-40,17.9-40,40
	C208,292.4,204.4,296,200,296z"/>
<path class="st0" d="M288,248h-40c-4.4,0-8-3.6-8-8c0-4.4,3.6-8,8-8h40c4.4,0,8,3.6,8,8C296,244.4,292.4,248,288,248z"/>
<path class="st0" d="M256,368c-44.4,0-62.4-34.9-63.2-36.4c-2-4-0.4-8.8,3.6-10.7c3.9-2,8.7-0.4,10.7,3.5
	c0.6,1.2,14.6,27.6,48.9,27.6c34.7,0,48.7-27.3,48.8-27.6c2-4,6.8-5.5,10.7-3.6c4,2,5.6,6.8,3.6,10.7C318.4,333.1,300.4,368,256,368
	z"/>
<path class="st0" d="M200,336c-4.4,0-8-3.6-8-8v-40c0-4.4,3.6-8,8-8s8,3.6,8,8v40C208,332.4,204.4,336,200,336z"/>
<path class="st0" d="M312,336c-4.4,0-8-3.6-8-8v-40c0-4.4,3.6-8,8-8s8,3.6,8,8v40C320,332.4,316.4,336,312,336z"/>
<path class="st0" d="M184,440c-4.4,0-8-3.6-8-8c0-17.6,14.4-32,32-32c4.4,0,8,3.6,8,8c0,4.4-3.6,8-8,8c-8.8,0-16,7.2-16,16
	C192,436.4,188.4,440,184,440z"/>
<path class="st0" d="M232,416h-24c-4.4,0-8-3.6-8-8c0-4.4,3.6-8,8-8h24c4.4,0,8,3.6,8,8C240,412.4,236.4,416,232,416z"/>
<path class="st0" d="M328,440c-4.4,0-8-3.6-8-8c0-8.8-7.2-16-16-16c-4.4,0-8-3.6-8-8c0-4.4,3.6-8,8-8c17.6,0,32,14.4,32,32
	C336,436.4,332.4,440,328,440z"/>
<path class="st0" d="M304,416h-24c-4.4,0-8-3.6-8-8c0-4.4,3.6-8,8-8h24c4.4,0,8,3.6,8,8C312,412.4,308.4,416,304,416z"/>
<path class="st0" d="M232,416c-4.4,0-8-3.6-8-8v-29.5c0-4.4,3.6-8,8-8s8,3.6,8,8V408C240,412.4,236.4,416,232,416z"/>
<path class="st0" d="M280,416c-4.4,0-8-3.6-8-8v-29.4c0-4.4,3.6-8,8-8s8,3.6,8,8V408C288,412.4,284.4,416,280,416z"/>
<path class="st0" d="M256,391.9c-35.3,0-64-28.7-64-64c0-4.4,3.6-8,8-8s8,3.6,8,8c0,26.5,21.5,48,48,48s48-21.5,48-48
	c0-4.4,3.6-8,8-8s8,3.6,8,8C320,363.2,291.3,391.9,256,391.9z"/>
<path class="st0" d="M280,416h-48c-4.4,0-8-3.6-8-8c0-4.4,3.6-8,8-8h48c4.4,0,8,3.6,8,8C288,412.4,284.4,416,280,416z"/>
<path class="st0" d="M144,456c-4.4,0-8-3.6-8-8v-72c0-4.4,3.6-8,8-8c4.4,0,8,3.6,8,8v72C152,452.4,148.4,456,144,456z"/>
<path class="st0" d="M144,384c-2.6,0-5.1-1.2-6.7-3.6c-2.5-3.7-1.5-8.6,2.2-11.1l24-16c3.7-2.5,8.6-1.5,11.1,2.2
	c2.5,3.7,1.5,8.6-2.2,11.1l-24,16C147.1,383.6,145.5,384,144,384z"/>
<path class="st0" d="M64,192c-13.2,0-24-10.8-24-24s10.8-24,24-24s24,10.8,24,24S77.2,192,64,192z M64,160c-4.4,0-8,3.6-8,8
	c0,4.4,3.6,8,8,8s8-3.6,8-8C72,163.6,68.4,160,64,160z"/>
<path class="st0" d="M88,216c-4.4,0-8-3.6-8-8c0-8.8-7.2-16-16-16s-16,7.2-16,16c0,4.4-3.6,8-8,8s-8-3.6-8-8c0-17.6,14.4-32,32-32
	s32,14.4,32,32C96,212.4,92.4,216,88,216z"/>
<path class="st0" d="M128,192c-13.2,0-24-10.8-24-24s10.8-24,24-24s24,10.8,24,24S141.2,192,128,192z M128,160c-4.4,0-8,3.6-8,8
	c0,4.4,3.6,8,8,8s8-3.6,8-8C136,163.6,132.4,160,128,160z"/>
<path class="st0" d="M152,216c-4.4,0-8-3.6-8-8c0-8.8-7.2-16-16-16s-16,7.2-16,16c0,4.4-3.6,8-8,8c-4.4,0-8-3.6-8-8
	c0-17.6,14.4-32,32-32s32,14.4,32,32C160,212.4,156.4,216,152,216z"/>
<path class="st0" d="M192,192c-13.2,0-24-10.8-24-24s10.8-24,24-24s24,10.8,24,24S205.2,192,192,192z M192,160c-4.4,0-8,3.6-8,8
	c0,4.4,3.6,8,8,8s8-3.6,8-8C200,163.6,196.4,160,192,160z"/>
<path class="st0" d="M216,216c-4.4,0-8-3.6-8-8c0-8.8-7.2-16-16-16s-16,7.2-16,16c0,4.4-3.6,8-8,8s-8-3.6-8-8c0-17.6,14.4-32,32-32
	s32,14.4,32,32C224,212.4,220.4,216,216,216z"/>
<path class="st0" d="M256,192c-13.2,0-24-10.8-24-24s10.8-24,24-24s24,10.8,24,24S269.2,192,256,192z M256,160c-4.4,0-8,3.6-8,8
	c0,4.4,3.6,8,8,8s8-3.6,8-8C264,163.6,260.4,160,256,160z"/>
<path class="st0" d="M280,216c-4.4,0-8-3.6-8-8c0-8.8-7.2-16-16-16s-16,7.2-16,16c0,4.4-3.6,8-8,8s-8-3.6-8-8c0-17.6,14.4-32,32-32
	s32,14.4,32,32C288,212.4,284.4,216,280,216z"/>
<path class="st0" d="M320,192c-13.2,0-24-10.8-24-24s10.8-24,24-24s24,10.8,24,24S333.2,192,320,192z M320,160c-4.4,0-8,3.6-8,8
	c0,4.4,3.6,8,8,8s8-3.6,8-8C328,163.6,324.4,160,320,160z"/>
<path class="st0" d="M344,216c-4.4,0-8-3.6-8-8c0-8.8-7.2-16-16-16s-16,7.2-16,16c0,4.4-3.6,8-8,8s-8-3.6-8-8c0-17.6,14.4-32,32-32
	s32,14.4,32,32C352,212.4,348.4,216,344,216z"/>
<path class="st0" d="M384,192c-13.2,0-24-10.8-24-24s10.8-24,24-24s24,10.8,24,24S397.2,192,384,192z M384,160c-4.4,0-8,3.6-8,8
	c0,4.4,3.6,8,8,8s8-3.6,8-8C392,163.6,388.4,160,384,160z"/>
<path class="st0" d="M408,216c-4.4,0-8-3.6-8-8c0-8.8-7.2-16-16-16s-16,7.2-16,16c0,4.4-3.6,8-8,8s-8-3.6-8-8c0-17.6,14.4-32,32-32
	s32,14.4,32,32C416,212.4,412.4,216,408,216z"/>
<path class="st0" d="M448,192c-13.2,0-24-10.8-24-24s10.8-24,24-24s24,10.8,24,24S461.2,192,448,192z M448,160c-4.4,0-8,3.6-8,8
	c0,4.4,3.6,8,8,8s8-3.6,8-8C456,163.6,452.4,160,448,160z"/>
<path class="st0" d="M472,216c-4.4,0-8-3.6-8-8c0-8.8-7.2-16-16-16s-16,7.2-16,16c0,4.4-3.6,8-8,8s-8-3.6-8-8c0-17.6,14.4-32,32-32
	s32,14.4,32,32C480,212.4,476.4,216,472,216z"/>
<path class="st0" d="M32,280c-13.2,0-24-10.8-24-24s10.8-24,24-24c13.2,0,24,10.8,24,24S45.3,280,32,280z M32,248c-4.4,0-8,3.6-8,8
	c0,4.4,3.6,8,8,8c4.4,0,8-3.6,8-8C40,251.6,36.4,248,32,248z"/>
<path class="st0" d="M56,304c-4.4,0-8-3.6-8-8c0-8.8-7.2-16-16-16s-16,7.2-16,16c0,4.4-3.6,8-8,8c-4.4,0-8-3.6-8-8
	c0-17.6,14.4-32,32-32s32,14.4,32,32C64,300.4,60.5,304,56,304z"/>
<path class="st0" d="M96,280c-13.2,0-24-10.8-24-24s10.8-24,24-24c13.2,0,24,10.8,24,24S109.3,280,96,280z M96,248c-4.4,0-8,3.6-8,8
	c0,4.4,3.6,8,8,8c4.4,0,8-3.6,8-8C104,251.6,100.4,248,96,248z"/>
<path class="st0" d="M120,304c-4.4,0-8-3.6-8-8c0-8.8-7.2-16-16-16s-16,7.2-16,16c0,4.4-3.6,8-8,8c-4.4,0-8-3.6-8-8
	c0-17.6,14.4-32,32-32s32,14.4,32,32C128,300.4,124.4,304,120,304z"/>
<path class="st0" d="M160,280c-13.2,0-24-10.8-24-24s10.8-24,24-24c13.2,0,24,10.8,24,24S173.3,280,160,280z M160,248
	c-4.4,0-8,3.6-8,8c0,4.4,3.6,8,8,8c4.4,0,8-3.6,8-8C168,251.6,164.4,248,160,248z"/>
<path class="st0" d="M184,304c-4.4,0-8-3.6-8-8c0-8.8-7.2-16-16-16s-16,7.2-16,16c0,4.4-3.6,8-8,8c-4.4,0-8-3.6-8-8
	c0-17.6,14.4-32,32-32s32,14.4,32,32C192,300.4,188.4,304,184,304z"/>
<path class="st0" d="M352,280c-13.2,0-24-10.8-24-24s10.8-24,24-24c13.2,0,24,10.8,24,24S365.2,280,352,280z M352,248
	c-4.4,0-8,3.6-8,8c0,4.4,3.6,8,8,8c4.4,0,8-3.6,8-8C360,251.6,356.4,248,352,248z"/>
<path class="st0" d="M376,304c-4.4,0-8-3.6-8-8c0-8.8-7.2-16-16-16s-16,7.2-16,16c0,4.4-3.6,8-8,8c-4.4,0-8-3.6-8-8
	c0-17.6,14.4-32,32-32c17.6,0,32,14.4,32,32C384,300.4,380.4,304,376,304z"/>
<path class="st0" d="M416,280c-13.2,0-24-10.8-24-24s10.8-24,24-24c13.2,0,24,10.8,24,24S429.2,280,416,280z M416,248
	c-4.4,0-8,3.6-8,8c0,4.4,3.6,8,8,8c4.4,0,8-3.6,8-8C424,251.6,420.4,248,416,248z"/>
<path class="st0" d="M440,304c-4.4,0-8-3.6-8-8c0-8.8-7.2-16-16-16s-16,7.2-16,16c0,4.4-3.6,8-8,8c-4.4,0-8-3.6-8-8
	c0-17.6,14.4-32,32-32c17.6,0,32,14.4,32,32C448,300.4,444.4,304,440,304z"/>
<path class="st0" d="M480,280c-13.2,0-24-10.8-24-24s10.8-24,24-24c13.2,0,24,10.8,24,24S493.2,280,480,280z M480,248
	c-4.4,0-8,3.6-8,8c0,4.4,3.6,8,8,8c4.4,0,8-3.6,8-8C488,251.6,484.4,248,480,248z"/>
<path class="st0" d="M504,304c-4.4,0-8-3.6-8-8c0-8.8-7.2-16-16-16s-16,7.2-16,16c0,4.4-3.6,8-8,8c-4.4,0-8-3.6-8-8
	c0-17.6,14.4-32,32-32c17.6,0,32,14.4,32,32C512,300.4,508.4,304,504,304z"/>
<path class="st0" d="M184,304H8c-4.4,0-8-3.6-8-8c0-4.4,3.6-8,8-8h176c4.4,0,8,3.6,8,8C192,300.4,188.4,304,184,304z"/>
<path class="st0" d="M96,104c-13.2,0-24-10.8-24-24s10.8-24,24-24c13.2,0,24,10.8,24,24S109.3,104,96,104z M96,72c-4.4,0-8,3.6-8,8
	c0,4.4,3.6,8,8,8c4.4,0,8-3.6,8-8C104,75.6,100.4,72,96,72z"/>
<path class="st0" d="M120,128c-4.4,0-8-3.6-8-8c0-8.8-7.2-16-16-16s-16,7.2-16,16c0,4.4-3.6,8-8,8c-4.4,0-8-3.6-8-8
	c0-17.6,14.4-32,32-32s32,14.4,32,32C128,124.4,124.4,128,120,128z"/>
<path class="st0" d="M160,104c-13.2,0-24-10.8-24-24s10.8-24,24-24c13.2,0,24,10.8,24,24S173.3,104,160,104z M160,72
	c-4.4,0-8,3.6-8,8c0,4.4,3.6,8,8,8c4.4,0,8-3.6,8-8C168,75.6,164.4,72,160,72z"/>
<path class="st0" d="M184,128c-4.4,0-8-3.6-8-8c0-8.8-7.2-16-16-16s-16,7.2-16,16c0,4.4-3.6,8-8,8c-4.4,0-8-3.6-8-8
	c0-17.6,14.4-32,32-32s32,14.4,32,32C192,124.4,188.4,128,184,128z"/>
<path class="st0" d="M224,104c-13.2,0-24-10.8-24-24s10.8-24,24-24c13.2,0,24,10.8,24,24S237.3,104,224,104z M224,72
	c-4.4,0-8,3.6-8,8c0,4.4,3.6,8,8,8c4.4,0,8-3.6,8-8C232,75.6,228.4,72,224,72z"/>
<path class="st0" d="M248,128c-4.4,0-8-3.6-8-8c0-8.8-7.2-16-16-16s-16,7.2-16,16c0,4.4-3.6,8-8,8c-4.4,0-8-3.6-8-8
	c0-17.6,14.4-32,32-32s32,14.4,32,32C256,124.4,252.4,128,248,128z"/>
<path class="st0" d="M288,104c-13.2,0-24-10.8-24-24s10.8-24,24-24c13.2,0,24,10.8,24,24S301.2,104,288,104z M288,72
	c-4.4,0-8,3.6-8,8c0,4.4,3.6,8,8,8c4.4,0,8-3.6,8-8C296,75.6,292.4,72,288,72z"/>
<path class="st0" d="M312,128c-4.4,0-8-3.6-8-8c0-8.8-7.2-16-16-16s-16,7.2-16,16c0,4.4-3.6,8-8,8c-4.4,0-8-3.6-8-8
	c0-17.6,14.4-32,32-32c17.6,0,32,14.4,32,32C320,124.4,316.4,128,312,128z"/>
<path class="st0" d="M352,104c-13.2,0-24-10.8-24-24s10.8-24,24-24c13.2,0,24,10.8,24,24S365.2,104,352,104z M352,72
	c-4.4,0-8,3.6-8,8c0,4.4,3.6,8,8,8c4.4,0,8-3.6,8-8C360,75.6,356.4,72,352,72z"/>
<path class="st0" d="M376,128c-4.4,0-8-3.6-8-8c0-8.8-7.2-16-16-16s-16,7.2-16,16c0,4.4-3.6,8-8,8c-4.4,0-8-3.6-8-8
	c0-17.6,14.4-32,32-32c17.6,0,32,14.4,32,32C384,124.4,380.4,128,376,128z"/>
<path class="st0" d="M416,104c-13.2,0-24-10.8-24-24s10.8-24,24-24c13.2,0,24,10.8,24,24S429.2,104,416,104z M416,72
	c-4.4,0-8,3.6-8,8c0,4.4,3.6,8,8,8c4.4,0,8-3.6,8-8C424,75.6,420.4,72,416,72z"/>
<path class="st0" d="M440,128c-4.4,0-8-3.6-8-8c0-8.8-7.2-16-16-16s-16,7.2-16,16c0,4.4-3.6,8-8,8c-4.4,0-8-3.6-8-8
	c0-17.6,14.4-32,32-32c17.6,0,32,14.4,32,32C448,124.4,444.4,128,440,128z"/>
<path class="st0" d="M440,128H72c-4.4,0-8-3.6-8-8c0-4.4,3.6-8,8-8h368c4.4,0,8,3.6,8,8C448,124.4,444.4,128,440,128z"/>
<path class="st0" d="M472,216H40c-4.4,0-8-3.6-8-8c0-4.4,3.6-8,8-8h432c4.4,0,8,3.6,8,8C480,212.4,476.4,216,472,216z"/>
<path class="st0" d="M184,456c-4.4,0-8-3.6-8-8v-16c0-4.4,3.6-8,8-8s8,3.6,8,8v16C192,452.4,188.4,456,184,456z"/>
<path class="st0" d="M328,456c-4.4,0-8-3.6-8-8v-16c0-4.4,3.6-8,8-8s8,3.6,8,8v16C336,452.4,332.4,456,328,456z"/>
<path class="st0" d="M432,456h-80c-4.4,0-8-3.6-8-8c0-4.4,3.6-8,8-8h80c4.4,0,8,3.6,8,8C440,452.4,436.4,456,432,456z"/>
<path class="st0" d="M376,456c-4.4,0-8-3.6-8-8v-56c0-4.4,3.6-8,8-8s8,3.6,8,8v56C384,452.4,380.4,456,376,456z"/>
<path class="st0" d="M408,456c-4.4,0-8-3.6-8-8v-56c0-4.4,3.6-8,8-8s8,3.6,8,8v56C416,452.4,412.4,456,408,456z"/>
<path class="st0" d="M408,400h-32c-4.4,0-8-3.6-8-8c0-4.4,3.6-8,8-8h32c4.4,0,8,3.6,8,8C416,396.4,412.4,400,408,400z"/>
<path class="st0" d="M408,424h-32c-4.4,0-8-3.6-8-8c0-4.4,3.6-8,8-8h32c4.4,0,8,3.6,8,8C416,420.4,412.4,424,408,424z"/>
<path class="st0" d="M504,304H328c-4.4,0-8-3.6-8-8c0-4.4,3.6-8,8-8h176c4.4,0,8,3.6,8,8C512,300.4,508.4,304,504,304z"/>
</svg>
