<?xml version="1.0"?>
<svg xmlns="http://www.w3.org/2000/svg" xmlns:xlink="http://www.w3.org/1999/xlink" xmlns:svgjs="http://svgjs.com/svgjs" version="1.1" width="512" height="512" x="0" y="0" viewBox="0 0 496 496" style="enable-background:new 0 0 512 512" xml:space="preserve"><g><path xmlns="http://www.w3.org/2000/svg" d="m496 336v-125.296875c0-19.34375-13.816406-35.894531-32.839844-39.351563l-55.160156-10.023437v-15.441406c14.609375-11.742188 24-29.71875 24-49.878907v-16h16v-16.007812h-16v-8c0-30.878906-25.128906-56-56-56h-16c-30.871094 0-56 25.121094-56 56v8h-16v16h16v16c0 19.121094 8.472656 36.265625 21.808594 48h-68.71875l-8.378906-14.671875c.832031-1.808594 1.601562-3.640625 2.289062-5.480469l21-5.742187v-44.210938l-21-5.742187c-.6875-1.839844-1.457031-3.671875-2.289062-5.480469l10.808593-18.917969-31.253906-31.265625-18.9375 10.800781c-1.816406-.832031-3.640625-1.601562-5.472656-2.289062l-5.742188-21h-44.21875l-5.742187 21c-1.832032.6875-3.65625 1.449219-5.472656 2.289062l-18.9375-10.800781-31.253907 31.265625 10.808594 18.917969c-.832031 1.808594-1.601563 3.640625-2.289063 5.480469l-21.007812 5.742187v44.210938l21 5.742187c.6875 1.839844 1.457031 3.671875 2.289062 5.480469l-8.378906 14.671875h-54.910156c-22.054688 0-40 17.945312-40 40v272c0 22.054688 17.945312 40 40 40h56v-64h86.113281l32 16h241.886719c22.054688 0 40-17.945312 40-40s-17.945312-40-40-40h-24v-32zm-16-125.296875v109.296875h-32v-80h-16v80h-128v-80h-16v80h-32v-109.296875c0-11.605469 8.289062-21.535156 19.703125-23.613281l31.402344-5.714844 16.160156 64.648438 44.734375-35.777344 44.734375 35.792968 16.160156-64.648437 31.402344 5.714844c11.414063 2.0625 19.703125 12 19.703125 23.597656zm-146.695312-34.078125 22.710937 22.710938-23.289063 18.632812-9.855468-39.449219zm79.824218 1.894531-9.855468 39.449219-23.289063-18.632812 22.710937-22.710938zm-21.128906-13.832031-24 24-24-24v-9.398438c7.414062 3.015626 15.511719 4.710938 24 4.710938s16.585938-1.695312 24-4.710938zm24-108.6875v8h-22.9375l5.152344-41.230469c10.714844 7.183594 17.785156 19.390625 17.785156 33.230469zm-40-40c2.34375 0 4.617188.304688 6.847656.695312l-5.910156 47.304688h-17.875l-5.910156-47.304688c2.230468-.390624 4.503906-.695312 6.847656-.695312zm-56 40c0-13.839844 7.070312-26.046875 17.785156-33.230469l5.152344 41.230469h-22.9375zm0 40v-16h96v16c0 26.472656-21.527344 48-48 48s-48-21.527344-48-48zm-200.585938 29.839844c-1.886718-3.558594-3.429687-7.246094-4.574218-10.953125l-1.289063-4.199219-17.550781-4.792969v-19.789062l17.542969-4.800781 1.289062-4.199219c1.152344-3.707031 2.6875-7.394531 4.574219-10.953125l2.066406-3.886719-9.039062-15.832031 13.992187-14 15.832031 9.03125 3.878907-2.050782c3.597656-1.902343 7.296875-3.4375 10.96875-4.574218l4.191406-1.296875 4.816406-17.542969h19.78125l4.808594 17.542969 4.191406 1.296875c3.671875 1.136718 7.371094 2.671875 10.96875 4.574218l3.878907 2.050782 15.832031-9.03125 13.992187 14-9.039062 15.832031 2.066406 3.886719c1.886719 3.558594 3.429688 7.246094 4.574219 10.953125l1.289062 4.199219 17.542969 4.800781v19.789062l-17.542969 4.800781-1.289062 4.199219c-1.152344 3.707031-2.6875 7.394531-4.574219 10.953125l-2.066406 3.886719 8.136718 14.265625h-125.328124l8.144531-14.265625zm-39.414062 354.160156h-40c-13.230469 0-24-10.769531-24-24s10.769531-24 24-24h40zm144-96h176v48h-176zm-16 43.054688-38.113281-19.054688 38.113281-19.054688zm272-19.054688c0 13.230469-10.769531 24-24 24h-40v-48h40c13.230469 0 24 10.769531 24 24zm-64-40h-201.886719l-80 40 16 8h-110.113281c-9.039062 0-17.296875 3.128906-24 8.207031v-240.207031c0-13.230469 10.769531-24 24-24h288v1.328125l-55.160156 10.023437c-19.023438 3.464844-32.839844 20.007813-32.839844 39.351563v125.296875h176zm0 0" fill="#ffffff" data-original="#000000" style=""/><path xmlns="http://www.w3.org/2000/svg" d="m224 96c0-26.472656-21.527344-48-48-48s-48 21.527344-48 48 21.527344 48 48 48 48-21.527344 48-48zm-48 32c-17.648438 0-32-14.351562-32-32s14.351562-32 32-32 32 14.351562 32 32-14.351562 32-32 32zm0 0" fill="#ffffff" data-original="#000000" style=""/><path xmlns="http://www.w3.org/2000/svg" d="m32 384h96v16h-96zm0 0" fill="#ffffff" data-original="#000000" style=""/><path xmlns="http://www.w3.org/2000/svg" d="m144 176c-35.800781 0-66.289062 23.3125-76.414062 56.273438l-35.585938-35.585938v171.3125h171.3125l-35.585938-35.585938c32.953126-10.132812 56.273438-40.660156 56.273438-76.414062 0-44.113281-35.886719-80-80-80zm-96 176v-116.6875l116.6875 116.6875zm106.40625-32.910156-73.496094-73.488282c5-30.808593 31.433594-53.601562 63.089844-53.601562 35.289062 0 64 28.710938 64 64 0 31.625-22.800781 58.078125-53.59375 63.089844zm0 0" fill="#ffffff" data-original="#000000" style=""/></g></svg>
