<?xml version="1.0" encoding="utf-8"?>
<!-- Generator: Adobe Illustrator 23.0.3, SVG Export Plug-In . SVG Version: 6.00 Build 0)  -->
<svg version="1.1" id="Livello_1" xmlns="http://www.w3.org/2000/svg" xmlns:xlink="http://www.w3.org/1999/xlink" x="0px" y="0px"
	 viewBox="0 0 502 502" style="enable-background:new 0 0 502 502;" xml:space="preserve">
<style type="text/css">
	.st0{fill:#FFFFFF;}
</style>
<g>
	<path class="st0" d="M94.9,145.6h1.6c2.8,0,5,2.2,5,5v67.2c0,2.8,2.2,5,5,5h1.1c2.8,0,5-2.2,5-5v-77.2c0-2.8-2.2-5-5-5H94.9
		c-2.8,0-5,2.2-5,5C89.9,143.4,92.1,145.6,94.9,145.6z"/>
	<path class="st0" d="M165.8,134.3c-24.1,0-30.4,19.1-30.4,44c0,25.3,6.3,44.5,30.4,44.5c24,0,30.3-19.2,30.3-44.5
		C196.1,153.3,189.8,134.3,165.8,134.3z M165.8,212.8c-17.3,0-19.6-15.7-19.6-34.5c0-18.1,2.3-34,19.6-34c17.1,0,19.4,15.9,19.4,34
		C185.2,197.1,182.9,212.8,165.8,212.8z"/>
	<path class="st0" d="M217.3,145.6h1.6c2.8,0,5,2.2,5,5v67.2c0,2.8,2.2,5,5,5h1.1c2.8,0,5-2.2,5-5v-77.2c0-2.8-2.2-5-5-5h-12.7
		c-2.8,0-5,2.2-5,5C212.3,143.4,214.5,145.6,217.3,145.6z"/>
	<path class="st0" d="M115.1,242.8c-24.1,0-30.4,19.1-30.4,44.1c0,25.3,6.3,44.5,30.4,44.5c24,0,30.3-19.2,30.3-44.5
		C145.4,261.9,139.1,242.8,115.1,242.8z M115.1,321.3c-17.3,0-19.6-15.7-19.6-34.5c0-18.1,2.3-34,19.6-34c17.1,0,19.4,15.9,19.4,34
		C134.5,305.7,132.2,321.3,115.1,321.3z"/>
	<path class="st0" d="M172.2,244.1h-12.7c-2.8,0-5,2.2-5,5c0,2.8,2.2,5,5,5h1.6c2.8,0,5,2.2,5,5v67.2c0,2.8,2.2,5,5,5h1.1
		c2.8,0,5-2.2,5-5v-77.2C177.3,246.4,175,244.1,172.2,244.1z"/>
	<path class="st0" d="M223.5,242.8c-24.1,0-30.4,19.1-30.4,44.1c0,25.3,6.3,44.5,30.4,44.5c24,0,30.3-19.2,30.3-44.5
		C253.8,261.9,247.5,242.8,223.5,242.8z M223.5,321.3c-17.3,0-19.6-15.7-19.6-34.5c0-18.1,2.3-34,19.6-34c17.1,0,19.4,15.9,19.4,34
		C242.9,305.7,240.6,321.3,223.5,321.3z"/>
	<path class="st0" d="M485.9,359.7h-28V115.1c0-21.4-17.4-38.8-38.8-38.8H82.8c-21.4,0-38.8,17.4-38.8,38.8v244.6h-28
		c-8.9,0-16.1,7.2-16.1,16.1v9.3c0,22.3,18.1,40.4,40.4,40.4h421.2c22.3,0,40.4-18.1,40.4-40.4v-9.3
		C502,366.9,494.8,359.7,485.9,359.7z M52.1,115.1c0-17,13.8-30.8,30.8-30.8h336.3c17,0,30.8,13.8,30.8,30.8v244.6h-13.6V111.9
		c0-7.7-6.3-14-14-14H79.6c-7.7,0-14,6.3-14,14v247.8H52.1V115.1z M73.6,359.7V111.9c0-3.3,2.7-6,6-6h342.7c3.3,0,6,2.7,6,6v247.8
		H73.6z M303.2,367.7v6.2c0,8.1-6.6,14.7-14.7,14.7h-75c-8.1,0-14.7-6.6-14.7-14.7v-6.2H303.2z M494,385.2
		c0,17.9-14.5,32.4-32.4,32.4H40.4C22.5,417.6,8,403,8,385.2v-9.3c0-4.5,3.6-8.1,8.1-8.1h174.7v6.2c0,12.5,10.2,22.7,22.7,22.7h75
		c12.5,0,22.7-10.2,22.7-22.7v-6.2h174.7c4.5,0,8.1,3.6,8.1,8.1L494,385.2L494,385.2z"/>
	<path class="st0" d="M414.6,167h-28.2v-11.8c7.6-0.1,13.7-6.3,13.7-14v-8c0-7.7-6.3-14-14-14H280.2c-7.7,0-14,6.3-14,14v8
		c0,7.6,6.1,13.8,13.7,14V167h-28.3c-1.9,0-3.6,1.4-3.9,3.3c-0.3,1.6-6.2,39.6,42.2,70.6c4.1,5.7,9.3,10.6,15.4,14.3
		c1.6,14.1,0.5,34.5-12.5,55.8c-6.6,1.1-11.6,6.9-11.6,13.8v2c0,7.7,6.3,14,14,14h75.9c7.7,0,14-6.3,14-14v-2
		c0-6.9-5-12.6-11.6-13.8c-13-21.3-14.2-41.7-12.5-55.8c6.1-3.7,11.3-8.6,15.4-14.4c48.3-31,42.4-69,42.1-70.6
		C418.2,168.4,416.5,167,414.6,167z M274.2,141.3v-8c0-3.3,2.7-6,6-6h105.9c3.3,0,6,2.7,6,6v8c0,3.3-2.7,6-6,6
		c-20.3,0-85.5,0-105.9,0C276.9,147.3,274.2,144.6,274.2,141.3z M255.3,175h24.6v35c0,5.4,0.8,10.6,2.3,15.5
		C257.3,204.7,255.1,183.1,255.3,175z M377.1,324.9v2c0,3.3-2.7,6-6,6h-75.9c-3.3,0-6-2.7-6-6v-2c0-3.3,2.7-6,6-6h75.9
		C374.4,318.9,377.1,321.6,377.1,324.9z M364.1,310.9h-62c10.5-19.2,12.4-37.5,11.6-51.4c12.5,4.9,26.4,4.9,38.9,0
		C351.7,273.4,353.7,291.7,364.1,310.9z M378.3,210c0,24.9-20.3,45.2-45.2,45.2s-45.2-20.3-45.2-45.2v-54.7h90.4V210z M384,225.4
		c1.5-4.9,2.3-10.1,2.3-15.4v-35h24.5C410.9,183.1,408.6,204.7,384,225.4z"/>
</g>
</svg>
