<?xml version="1.0"?>
<svg xmlns="http://www.w3.org/2000/svg" xmlns:xlink="http://www.w3.org/1999/xlink" xmlns:svgjs="http://svgjs.com/svgjs" version="1.1" width="512" height="512" x="0" y="0" viewBox="0 0 64 64" style="enable-background:new 0 0 512 512" xml:space="preserve" class=""><g><path xmlns="http://www.w3.org/2000/svg" d="m27 21a1 1 0 0 0 -1-1h-4a1 1 0 0 0 -1 1v4a1 1 0 0 0 1 1h4a1 1 0 0 0 1-1zm-2 3h-2v-2h2z" fill="#ffffff" data-original="#000000" style="" class=""/><path xmlns="http://www.w3.org/2000/svg" d="m35 21a1 1 0 0 0 -1-1h-4a1 1 0 0 0 -1 1v4a1 1 0 0 0 1 1h4a1 1 0 0 0 1-1zm-2 3h-2v-2h2z" fill="#ffffff" data-original="#000000" style="" class=""/><path xmlns="http://www.w3.org/2000/svg" d="m43 21a1 1 0 0 0 -1-1h-4a1 1 0 0 0 -1 1v4a1 1 0 0 0 1 1h4a1 1 0 0 0 1-1zm-2 3h-2v-2h2z" fill="#ffffff" data-original="#000000" style="" class=""/><path xmlns="http://www.w3.org/2000/svg" d="m27 29a1 1 0 0 0 -1-1h-4a1 1 0 0 0 -1 1v4a1 1 0 0 0 1 1h4a1 1 0 0 0 1-1zm-2 3h-2v-2h2z" fill="#ffffff" data-original="#000000" style="" class=""/><path xmlns="http://www.w3.org/2000/svg" d="m35 29a1 1 0 0 0 -1-1h-4a1 1 0 0 0 -1 1v4a1 1 0 0 0 1 1h4a1 1 0 0 0 1-1zm-2 3h-2v-2h2z" fill="#ffffff" data-original="#000000" style="" class=""/><path xmlns="http://www.w3.org/2000/svg" d="m43 29a1 1 0 0 0 -1-1h-4a1 1 0 0 0 -1 1v4a1 1 0 0 0 1 1h4a1 1 0 0 0 1-1zm-2 3h-2v-2h2z" fill="#ffffff" data-original="#000000" style="" class=""/><path xmlns="http://www.w3.org/2000/svg" d="m26 36h-4a1 1 0 0 0 -1 1v4a1 1 0 0 0 1 1h4a1 1 0 0 0 1-1v-4a1 1 0 0 0 -1-1zm-1 4h-2v-2h2z" fill="#ffffff" data-original="#000000" style="" class=""/><path xmlns="http://www.w3.org/2000/svg" d="m34 36h-4a1 1 0 0 0 -1 1v4a1 1 0 0 0 1 1h4a1 1 0 0 0 1-1v-4a1 1 0 0 0 -1-1zm-1 4h-2v-2h2z" fill="#ffffff" data-original="#000000" style="" class=""/><path xmlns="http://www.w3.org/2000/svg" d="m42 36h-4a1 1 0 0 0 -1 1v4a1 1 0 0 0 1 1h4a1 1 0 0 0 1-1v-4a1 1 0 0 0 -1-1zm-1 4h-2v-2h2z" fill="#ffffff" data-original="#000000" style="" class=""/><path xmlns="http://www.w3.org/2000/svg" d="m15 33a1 1 0 0 0 -2 0v4a1 1 0 0 0 2 0z" fill="#ffffff" data-original="#000000" style="" class=""/><path xmlns="http://www.w3.org/2000/svg" d="m10 32h-5v-2h9a1 1 0 0 0 0-2h-10a1 1 0 0 0 -1 1v32a1 1 0 0 0 2 0v-7h5a1 1 0 0 0 1-1v-4a1 1 0 0 0 -1-1h-5v-2h5a1 1 0 0 0 1-1v-4a1 1 0 0 0 -1-1h-5v-2h5a1 1 0 0 0 1-1v-4a1 1 0 0 0 -1-1zm-1 18v2h-4v-2zm0-8v2h-4v-2zm0-6h-4v-2h4z" fill="#ffffff" data-original="#000000" style="" class=""/><path xmlns="http://www.w3.org/2000/svg" d="m15 41a1 1 0 0 0 -2 0v4a1 1 0 0 0 2 0z" fill="#ffffff" data-original="#000000" style="" class=""/><path xmlns="http://www.w3.org/2000/svg" d="m14 48a1 1 0 0 0 -1 1v4a1 1 0 0 0 2 0v-4a1 1 0 0 0 -1-1z" fill="#ffffff" data-original="#000000" style="" class=""/><path xmlns="http://www.w3.org/2000/svg" d="m60 36h-7v-11a1 1 0 0 0 -2 0v3h-4v-3a1 1 0 0 0 -2 0v31h-4v-6h1a1 1 0 0 0 1-1v-4a1 1 0 0 0 -1-1h-20a1 1 0 0 0 -1 1v4a1 1 0 0 0 1 1h1v6h-4v-38h26v3a1 1 0 0 0 2 0v-4a1 1 0 0 0 -1-1h-7v-5a1 1 0 0 0 -1-1h-3v-3a1 1 0 0 0 -1-1h-1v-3a1 1 0 0 0 -2 0v3h-1a1 1 0 0 0 -1 1v3h-3a1 1 0 0 0 -1 1v5h-7a1 1 0 0 0 -1 1v39h-4a1 1 0 0 0 0 2h37v2h-37a1 1 0 0 0 0 2h38a1 1 0 0 0 1-1v-3h7v3a1 1 0 0 0 2 0v-24a1 1 0 0 0 -1-1zm-29-28h2v2h-2zm-4 4h10v4h-10zm20 40v-2h12v2zm8-14v2h-8v-2zm-8 10v-2h2v2zm4-2h2v2h-2zm4 0h4v2h-4zm4-2h-12v-2h12zm0-6v2h-2v-2zm-8-8v2h-1a1 1 0 0 0 0 2h1v2h-4v-6zm-28 16h18v2h-18zm2 4h6v6h-6zm8 6v-6h6v6zm14 0v-2h4v2zm6 0v-2h2v2zm4 0v-2h2v2z" fill="#ffffff" data-original="#000000" style="" class=""/></g></svg>
