<svg xmlns="http://www.w3.org/2000/svg" viewBox="0 0 226.3 57.36"><defs><style>.cls-1{fill:#1601fe;}.cls-2{fill:#282827;}.cls-3{fill:#94d7ec;}.cls-4{fill:#2d2d2d;}.cls-5{fill:#fff;}</style></defs><title>Asset 2</title><g id="Layer_2" data-name="Layer 2"><g id="Layer_1-2" data-name="Layer 1"><g id="Layer_2-2" data-name="Layer 2"><g id="Layer_1-2-2" data-name="Layer 1-2"><path class="cls-1" d="M24.42,6.66C16.64,6.57,10,12,9.72,18.45c-.29,6.76,5.88,12.83,14.52,13C32,31.58,38.82,26,38.91,19.54,39,12.29,32.78,6.75,24.42,6.66Z"/><path class="cls-2" d="M44.87,15.93c-1.67-8.09-9.56-14-19.43-14.58C16.22.81,7.37,6,4.44,13.61,2.79,18,0,24.85,0,24.85c0,11,16.65,27,24.35,32.51,7.17-5.55,23.57-20.49,23.57-32.6A44,44,0,0,1,44.87,15.93ZM24.26,31.42c-8.64-.14-14.81-6.21-14.52-13C10,12,16.66,6.54,24.44,6.63c8.34.09,14.59,5.63,14.49,12.85C38.84,26,32,31.55,24.26,31.42Z"/><path class="cls-3" d="M18.71,27.19a7.25,7.25,0,0,0,5.7,2.53,7.38,7.38,0,0,0,5.26-2.29,7.62,7.62,0,0,0,2.1-7.54l-5.11.26c1,1.45.79,5-2.35,4.92s-2.66-3.81-2.15-4.78l-5.48-.1A9,9,0,0,0,18.71,27.19Z"/><path class="cls-4" d="M39.48,6.7C34.82,2.57,28.89,0,24,0,20.48,0,14.52,2.69,9.84,6.4,3.53,11.4.05,17.63.05,24,.05,34.7,12.15,46.5,23.17,46.5a27.07,27.07,0,0,0,16.46-6.27C45,35.83,48,30.17,48,24.3,48,17.8,45,11.55,39.48,6.7ZM23.17,43.47C13.67,43.47,3.08,33,3.08,24,3.08,11.35,19.14,3,24,3,32,3,45,11.77,45,24.3,45,35,32.92,43.47,23.17,43.47Z"/><path class="cls-4" d="M33.68,20.11l-.3-1.44-9.47.22h-.44l-8.2.19-.4,1.16c-.4,1.19-.24,5.22,2.57,8.15a9,9,0,0,0,7,3.08h.07a9.06,9.06,0,0,0,6.43-2.8C34.31,25.36,34.12,22.2,33.68,20.11Zm-16.83.09,5,.07A6,6,0,0,0,21.94,24a2.72,2.72,0,0,0,2.4,1.3h.18a2.72,2.72,0,0,0,2.62-1.4A5.22,5.22,0,0,0,27,20.14l4.67-.25a7.89,7.89,0,0,1-2.14,7.36,7.13,7.13,0,0,1-5,2.22h0A7.07,7.07,0,0,1,19,27C16.82,24.88,16.73,21,16.85,20.2Z"/><path class="cls-1" d="M24,3C19.14,3,3.08,11.35,3.08,24c0,12.13,17.15,26.47,21.19,29.37,3.78-3,20.68-16.9,20.68-29C45,11.77,32,3,24,3Zm.36,30.33c-8,.85-12.61-8.54-12.17-11.41L5.31,20l16.45.27L27,20.16l15.7-.89-6.23,2.2c.34,1.23.12,10.06-12,11.89Z"/><path class="cls-5" d="M33.61,19.79V20l.1.45c.39,2.08.4,5.1-2.84,8.26a9.06,9.06,0,0,1-6.43,2.8h0a9,9,0,0,1-7-3.08,10,10,0,0,1-2.69-7.53l.16-.71L5.29,20s5,2.78,5,2.8a14,14,0,0,0,3.39,7.44c1.71,2,5.2,5.42,9.45,5.42,2.74,0,9.25-1.39,12.52-6.13a15,15,0,0,0,2.51-7.3l4.48-3Z"/><path class="cls-5" d="M75.34,22.46a11.69,11.69,0,0,0-3.77-1.71,18.12,18.12,0,0,0-4.47-.54,14.66,14.66,0,0,0-1.58.08,2.5,2.5,0,0,0-2.45,1.65,20.88,20.88,0,0,0-.81,6.3q0,7.77,2.64,9.33A9.9,9.9,0,0,0,70,38.68a9,9,0,0,0,4.6-1.16,8.34,8.34,0,0,0,3.15-3.17,9.13,9.13,0,0,0,1.14-4.58,9.26,9.26,0,0,0-1-4.33A8.5,8.5,0,0,0,75.34,22.46ZM73.77,32.53a4.14,4.14,0,0,1-3.69,1.82,7.52,7.52,0,0,1-1.22-.1,22.65,22.65,0,0,1-.47-4.91,33.85,33.85,0,0,1,.31-4.76,7.25,7.25,0,0,1,4,1.45,4.52,4.52,0,0,1,1.79,3.74,4.85,4.85,0,0,1-.72,2.76Z"/><path class="cls-5" d="M91.2,24.36A5.84,5.84,0,0,0,88.78,24a1.67,1.67,0,0,0-1.14.42,1.86,1.86,0,0,0-.54,1.32v.79a21,21,0,0,1-.15,2.65c-.17,1.31-.46,2-.89,2q-.3,0-.36-.6V29a13.6,13.6,0,0,1,.15-1.41,8.92,8.92,0,0,0,.1-1.08,2.2,2.2,0,0,0-1.3-2.15,4.93,4.93,0,0,0-2.09-.4,1.68,1.68,0,0,0-1.84,1.5s0,.07,0,.11a16.69,16.69,0,0,0-.2,2.49A19.7,19.7,0,0,0,80.76,31a5.92,5.92,0,0,0,1.39,3,4,4,0,0,0,3.26,1.39,2.18,2.18,0,0,0,1.44-.61,11.59,11.59,0,0,1-.09,1.66,2.32,2.32,0,0,1-.34,1,.77.77,0,0,1-.7.39.8.8,0,0,1-.48-.17,1,1,0,0,1-.36-.42,1.84,1.84,0,0,0-1.07-1,1.72,1.72,0,0,0-.66-.13,1.94,1.94,0,0,0-.8.18,1.87,1.87,0,0,0-1,1.06,1.93,1.93,0,0,0-.12.67,1.91,1.91,0,0,0,.17.79,6.07,6.07,0,0,0,2.12,2.6,5.5,5.5,0,0,0,3.18,1,4.61,4.61,0,0,0,4-2.24q2-3,2-9.9a14.25,14.25,0,0,0-.51-4.79A2,2,0,0,0,91.2,24.36Z"/><path class="cls-5" d="M102.91,30.24c-.47-.27-.92-.51-1.34-.72a11.17,11.17,0,0,1-1.15-.64.81.81,0,0,1-.47-.66.6.6,0,0,1,.27-.51,1,1,0,0,1,.65-.21.84.84,0,0,1,.87.6,1.88,1.88,0,0,0,1.79,1.32,1.9,1.9,0,0,0,.61-.1,1.88,1.88,0,0,0,1.12-.94,1.81,1.81,0,0,0,.21-.85,2,2,0,0,0-.11-.62,5.51,5.51,0,0,0-2.2-2.92,5.9,5.9,0,0,0-3.28-1,6.3,6.3,0,0,0-3.73,1.07,3.86,3.86,0,0,0-1.69,3.34,4.19,4.19,0,0,0,1.4,3.19,11.06,11.06,0,0,0,2.65,1.68c.47.23.86.45,1.17.64a.8.8,0,0,1,.46.65.75.75,0,0,1-.34.61,1.29,1.29,0,0,1-.8.25.67.67,0,0,1-.72-.43,1.91,1.91,0,0,0-1-1.12,1.93,1.93,0,0,0-1.44-.11,1.89,1.89,0,0,0-1.13,1,1.75,1.75,0,0,0-.22.86,1.78,1.78,0,0,0,.1.59,4.32,4.32,0,0,0,2,2.48,6.31,6.31,0,0,0,3.16.82,7.31,7.31,0,0,0,4-1.08,3.57,3.57,0,0,0,1.79-3.13A4.55,4.55,0,0,0,102.91,30.24Z"/><path class="cls-5" d="M115,34.88h-.16c-1,0-1.55-1.59-1.55-4.78q0-.72,0-1.5a6.76,6.76,0,0,0,.94-.06,1.48,1.48,0,0,0,.76-.32,1.8,1.8,0,0,0,.49-.87,2.38,2.38,0,0,0,.09-.62,1.86,1.86,0,0,0-.52-1.25,1.89,1.89,0,0,0-1.51-.59c.09-1.13.13-1.84.13-2.13a4.71,4.71,0,0,0-.13-1.1,1.67,1.67,0,0,0-.91-1,6,6,0,0,0-2.6-.41,2,2,0,0,0-1.26.41,1.71,1.71,0,0,0-.55,1.36v2.86a2.14,2.14,0,0,0-1.49.52,1.58,1.58,0,0,0-.47,1.23,1.86,1.86,0,0,0,.69,1.52,2,2,0,0,0,1.32.44,28.92,28.92,0,0,0,.6,5.91,5.25,5.25,0,0,0,1.82,3.17,6.13,6.13,0,0,0,3.75,1,2.11,2.11,0,0,0,1.41-.49,1.82,1.82,0,0,0,.61-1.47,2.11,2.11,0,0,0-.38-1.24A1.26,1.26,0,0,0,115,34.88Z"/><path class="cls-5" d="M122.89,22.88a5.54,5.54,0,0,0-4.76,2.39,8.76,8.76,0,0,0-1.53,5.2v.79a8.07,8.07,0,0,0,.41,2.11,8.31,8.31,0,0,0,1.18,2.45,6,6,0,0,0,1.94,1.75,5.46,5.46,0,0,0,2.69.65,4.8,4.8,0,0,0,2.51-.66,7,7,0,0,0,3-4.19,11,11,0,0,0,.45-3.17,8.75,8.75,0,0,0-1.34-4.93A5.15,5.15,0,0,0,122.89,22.88Zm1.89,9a5.82,5.82,0,0,1-.53,1.68c-.24.48-.52.71-.84.71a.83.83,0,0,1-.74-.5,5.27,5.27,0,0,1-.54-2.63,8.05,8.05,0,0,1,.25-2,3.66,3.66,0,0,1,.58-1.29,1.17,1.17,0,0,1,1-.51c.34,0,.6.24.78.73a6,6,0,0,1,.26,2A10.25,10.25,0,0,1,124.78,31.88Z"/><path class="cls-5" d="M140.26,25.33a11.07,11.07,0,0,0-3.74-.62h-.46a4.23,4.23,0,0,0-.69-1,2.55,2.55,0,0,0-1-.68,4.94,4.94,0,0,0-1.76-.25,1.75,1.75,0,0,0-1.17.42,1.84,1.84,0,0,0-.55,1.35q-.2,3.09-.2,6.19c0,2.41.08,4.84.25,7.26a3.72,3.72,0,0,0,.31,1.35,1.83,1.83,0,0,0,1,.91,6.51,6.51,0,0,0,2.39.33,1.77,1.77,0,0,0,1.28-.49,1.61,1.61,0,0,0,.5-1.22v-.15c-.08-1.27-.15-2.51-.19-3.71a8.66,8.66,0,0,0,1.25.09,10.84,10.84,0,0,0,1.7-.16,6.66,6.66,0,0,0,2.13-.75,5,5,0,0,0,1.83-1.65,4.48,4.48,0,0,0,.71-2.56,4.77,4.77,0,0,0-.46-2.15A5.3,5.3,0,0,0,140.26,25.33Zm-.76,5.47a4,4,0,0,1-2,.41,6.61,6.61,0,0,1-1.36-.13V28.55a11.71,11.71,0,0,1,2.24.18c1,.2,1.54.61,1.54,1.22A.93.93,0,0,1,139.5,30.8Z"/><path class="cls-5" d="M146.26,22.64a3.63,3.63,0,0,0,3.81,0,1.51,1.51,0,0,0,0-2.66,3.57,3.57,0,0,0-3.81,0,1.51,1.51,0,0,0,0,2.66Z"/><path class="cls-5" d="M150.94,26.33a4,4,0,0,0-.16-1.14,1.6,1.6,0,0,0-.93-.94,6,6,0,0,0-2.54-.4,2,2,0,0,0-1.26.43,1.8,1.8,0,0,0-.57,1.38q-.12,2.64-.12,5.55c0,3.46.16,5.55.46,6.28a1.92,1.92,0,0,0,1,1,6.1,6.1,0,0,0,2.38.35,2.06,2.06,0,0,0,1.35-.46,1.62,1.62,0,0,0,.46-1.26v-.28c-.12-1.59-.17-3.16-.17-4.73C150.84,30.73,150.87,28.81,150.94,26.33Z"/><path class="cls-5" d="M164.65,27.75a8.42,8.42,0,0,0-1.19-2.53,5.64,5.64,0,0,0-2-1.78,6.48,6.48,0,0,0-3.07-.66,5.54,5.54,0,0,0-2.74.68,5.31,5.31,0,0,0-2,2,1.76,1.76,0,0,0-.28.93,3.25,3.25,0,0,0,.13.69,1.49,1.49,0,0,0,.84.82,1.88,1.88,0,0,0,.88.22A3.08,3.08,0,0,0,156,28a1.77,1.77,0,0,0,.94-.83,1.48,1.48,0,0,1,.48-.51,1.26,1.26,0,0,1,.69-.16c.27,0,.55.23.84.7a3.74,3.74,0,0,1,.52,1.57q-4.21,0-6.12,1.74a3.44,3.44,0,0,0-1.07,2.69,3.59,3.59,0,0,0,1.08,2.69,5.77,5.77,0,0,0,4.22,1.56,8.28,8.28,0,0,0,2.76-.49,2.33,2.33,0,0,0,.91,1,4.42,4.42,0,0,0,2.21.39,2,2,0,0,0,1.26-.41,1.75,1.75,0,0,0,.57-1.38q.06-1.27.06-3a28.69,28.69,0,0,0-.15-2.88A15.76,15.76,0,0,0,164.65,27.75Zm-6.82,6.13a3.3,3.3,0,0,1-1.19-.19.67.67,0,0,1-.5-.64.92.92,0,0,1,.71-.86,3.94,3.94,0,0,1,1.39-.27,4,4,0,0,1,1.63.28l.06,1.21A4.26,4.26,0,0,1,157.83,33.88Z"/><path class="cls-5" d="M184.63,33.94a2,2,0,0,0-.9-.21,2.13,2.13,0,0,0-.77.14,16.11,16.11,0,0,1-4.67.85c-.08-.88-.13-1.78-.13-2.7,0-1.09.09-2.45.25-4.09s.39-3.33.68-5.06a3.44,3.44,0,0,0,0-.46,2.94,2.94,0,0,0-.33-1.29A2.85,2.85,0,0,0,177.58,20a4.29,4.29,0,0,0-2.12-.48,2.07,2.07,0,0,0-2.35,1.74v0a61.42,61.42,0,0,0-1,10.28,20.8,20.8,0,0,0,.55,4.93q.66,2.69,4.79,2.69h.2a19.47,19.47,0,0,0,4-.45,19.68,19.68,0,0,0,2.74-.75,2.2,2.2,0,0,0,1.45-2,2.16,2.16,0,0,0-.15-.78A2.07,2.07,0,0,0,184.63,33.94Z"/><path class="cls-5" d="M198.75,27.75a8.69,8.69,0,0,0-1.2-2.53,5.6,5.6,0,0,0-2-1.78,6.51,6.51,0,0,0-3.07-.66,5.54,5.54,0,0,0-2.74.68,5.41,5.41,0,0,0-2,2,1.84,1.84,0,0,0-.27.93,2.71,2.71,0,0,0,.13.69,1.49,1.49,0,0,0,.84.82,1.85,1.85,0,0,0,.88.22,3.16,3.16,0,0,0,.79-.15,1.81,1.81,0,0,0,.94-.83,1.46,1.46,0,0,1,.47-.51,1.31,1.31,0,0,1,.69-.16c.27,0,.55.23.84.7a3.75,3.75,0,0,1,.53,1.57q-4.22,0-6.12,1.74a3.44,3.44,0,0,0-1.08,2.69,3.56,3.56,0,0,0,1.09,2.69,5.75,5.75,0,0,0,4.21,1.56,8.28,8.28,0,0,0,2.74-.54,2.35,2.35,0,0,0,.92,1,4.37,4.37,0,0,0,2.2.39,2,2,0,0,0,1.27-.41,1.75,1.75,0,0,0,.57-1.38v-3a28.69,28.69,0,0,0-.15-2.88A15.76,15.76,0,0,0,198.75,27.75Zm-6.83,6.13a3.25,3.25,0,0,1-1.18-.19.67.67,0,0,1-.5-.64.91.91,0,0,1,.71-.86,3.9,3.9,0,0,1,1.39-.27,4.08,4.08,0,0,1,1.63.28l.06,1.21A4.31,4.31,0,0,1,191.92,33.88Z"/><path class="cls-5" d="M210.27,26.81a7.79,7.79,0,0,0-2-.25,9,9,0,0,0-1.36.11l.21-3.61a2.57,2.57,0,0,0-.31-1.22,2.43,2.43,0,0,0-1.13-1,4.89,4.89,0,0,0-2.17-.4,1.91,1.91,0,0,0-1.24.41,1.79,1.79,0,0,0-.59,1.32q-.39,4.71-.39,8.15,0,5.44.74,6.57a3.45,3.45,0,0,0,3.16,1.4,1.76,1.76,0,0,0,1.63-1h.66a9.86,9.86,0,0,0,3.17-.56,5.87,5.87,0,0,0,2.77-1.85,4.55,4.55,0,0,0,1-3,4.71,4.71,0,0,0-1.31-3.51A6.15,6.15,0,0,0,210.27,26.81ZM209.94,33a4.73,4.73,0,0,1-2.44.53h-.65V30.69a5,5,0,0,1,1.67-.25c1.29,0,2,.43,2.1,1.27v.09A1.32,1.32,0,0,1,209.94,33Z"/><path class="cls-5" d="M223.71,30.24c-.47-.27-.92-.51-1.34-.72a11.18,11.18,0,0,1-1.19-.64.81.81,0,0,1-.47-.66.6.6,0,0,1,.27-.51,1,1,0,0,1,.65-.21.84.84,0,0,1,.87.6,1.81,1.81,0,0,0,.93,1.11,1.85,1.85,0,0,0,.86.21,1.9,1.9,0,0,0,.61-.1,1.88,1.88,0,0,0,1.12-.94,1.81,1.81,0,0,0,.21-.85,2,2,0,0,0-.11-.62,5.51,5.51,0,0,0-2.2-2.92,5.9,5.9,0,0,0-3.28-1,6.3,6.3,0,0,0-3.73,1.07,3.86,3.86,0,0,0-1.69,3.34,4.19,4.19,0,0,0,1.4,3.19,11.06,11.06,0,0,0,2.65,1.68c.47.23.86.45,1.17.64a.8.8,0,0,1,.46.65.75.75,0,0,1-.34.61,1.29,1.29,0,0,1-.8.25A.67.67,0,0,1,219,34a1.91,1.91,0,0,0-1-1.12,1.93,1.93,0,0,0-1.44-.11,1.89,1.89,0,0,0-1.13,1,1.75,1.75,0,0,0-.22.86,1.78,1.78,0,0,0,.1.59,4.32,4.32,0,0,0,2,2.48,6.31,6.31,0,0,0,3.16.82,7.31,7.31,0,0,0,4-1.08,3.57,3.57,0,0,0,1.79-3.13A4.55,4.55,0,0,0,223.71,30.24Z"/></g></g></g></g></svg>