<?xml version="1.0" encoding="utf-8"?>
<!-- Generator: Adobe Illustrator 23.0.3, SVG Export Plug-In . SVG Version: 6.00 Build 0)  -->
<svg version="1.1" id="Livello_1" xmlns="http://www.w3.org/2000/svg" xmlns:xlink="http://www.w3.org/1999/xlink" x="0px" y="0px"
	 viewBox="0 0 400 400" style="enable-background:new 0 0 400 400;" xml:space="preserve">
<style type="text/css">
	.st0{fill:url(#SVGID_1_);}
	.st1{fill:url(#SVGID_2_);}
	.st2{fill:url(#SVGID_3_);}
	.st3{fill:url(#SVGID_4_);}
	.st4{fill:url(#SVGID_5_);}
	.st5{fill:url(#SVGID_6_);}
</style>
<g>
	<linearGradient id="SVGID_1_" gradientUnits="userSpaceOnUse" x1="192.3902" y1="24.3952" x2="207.9344" y2="24.3952">
		<stop  offset="0" style="stop-color:#003162"/>
		<stop  offset="0.1543" style="stop-color:#023565"/>
		<stop  offset="0.2948" style="stop-color:#07406D"/>
		<stop  offset="0.43" style="stop-color:#0F527B"/>
		<stop  offset="0.5618" style="stop-color:#1C6C8E"/>
		<stop  offset="0.6914" style="stop-color:#2B8EA7"/>
		<stop  offset="0.8191" style="stop-color:#3EB7C6"/>
		<stop  offset="0.943" style="stop-color:#55E7E9"/>
		<stop  offset="0.9988" style="stop-color:#60FFFB"/>
	</linearGradient>
	<path class="st0" d="M200.2,49.5c4.3,0,7.8-3.5,7.8-7.8V7.4c0-4.2-3.1-7.8-7.3-8.1c-4.5-0.3-8.3,3.3-8.3,7.8v34.7
		C192.4,46,195.9,49.5,200.2,49.5L200.2,49.5z"/>
	<linearGradient id="SVGID_2_" gradientUnits="userSpaceOnUse" x1="2.4573" y1="230.0036" x2="399" y2="230.0036">
		<stop  offset="0" style="stop-color:#003162"/>
		<stop  offset="0.1543" style="stop-color:#023565"/>
		<stop  offset="0.2948" style="stop-color:#07406D"/>
		<stop  offset="0.43" style="stop-color:#0F527B"/>
		<stop  offset="0.5618" style="stop-color:#1C6C8E"/>
		<stop  offset="0.6914" style="stop-color:#2B8EA7"/>
		<stop  offset="0.8191" style="stop-color:#3EB7C6"/>
		<stop  offset="0.943" style="stop-color:#55E7E9"/>
		<stop  offset="0.9988" style="stop-color:#60FFFB"/>
	</linearGradient>
	<path class="st1" d="M391.4,268l-13.8-13.8c-4.9-4.9-11.5-7.6-18.5-7.6c-4.5,0-8.8,1.1-12.6,3.2l-26.1-26l1.3-1.3
		c10.6-10.6,10.6-27.8,0-38.4c-3.8-3.8-8.5-6.3-13.6-7.4c0.7-2.4,1.1-5,1.1-7.6c0-7.3-2.8-14.1-7.9-19.2c-3.8-3.8-8.5-6.3-13.6-7.4
		c0.7-2.4,1.1-5,1.1-7.6c0-7.3-2.8-14.1-7.9-19.2c-3.9-3.9-8.6-6.3-13.6-7.3c2.7-9.2,0.4-19.6-6.9-26.8c-6-6-14.2-8.6-22.1-7.7
		l-51.6-9.8c-7.9-1.5-17.7-2.5-23.9,3.2c-0.4,0.4-0.8,0.8-1.2,1.2c-9.6-3.5-20.9-1.4-28.6,6.3c-5.1,5.1-7.9,11.9-7.9,19.2
		c0,2.6,0.4,5.2,1.1,7.6c-5.1,1.1-9.8,3.6-13.6,7.4c-5.1,5.1-7.9,11.9-8,19.2c0,2.6,0.4,5.2,1.1,7.6c-5.1,1.1-9.8,3.6-13.6,7.3
		c-5.1,5.1-7.9,11.9-7.9,19.2c0,5.6,1.7,10.9,4.7,15.3c-3.9,1.3-7.4,3.5-10.4,6.5c-10.6,10.6-10.6,27.8,0,38.4l1.3,1.3l-26.1,26
		c-9.7-4.6-21.6-2.9-29.6,5.1l-13.8,13.8c-4.9,4.9-7.6,11.5-7.6,18.5c0,7,2.7,13.5,7.6,18.5l17.3,17.2c3.1,3.1,8,3.1,11.1,0
		c3.1-3.1,3.1-8,0-11.1l-17.3-17.2c-2-2-3-4.6-3-7.4c0-2.8,1.1-5.4,3-7.4L35,266c3.5-3.5,8.7-4,12.8-1.6c0.3,0.4,0.6,0.8,1,1.2
		c0.7,0.7,1.4,1.2,2.2,1.6l79.3,79.2c0.4,0.8,0.9,1.6,1.6,2.3c0.7,0.7,1.4,1.2,2.2,1.5c1.7,1.9,2.6,4.3,2.6,6.9c0,2.8-1.1,5.4-3,7.4
		l-13.8,13.8c-4.1,4.1-10.7,4.1-14.8,0l-17.3-17.3c-3.1-3.1-8-3.1-11.1,0c-3.1,3.1-3.1,8,0,11.1L94,389.4c5.1,5.1,11.8,7.6,18.4,7.6
		c6.7,0,13.4-2.5,18.5-7.6l13.8-13.8c4.9-4.9,7.6-11.5,7.6-18.5c0-5-1.4-9.8-4-13.9l29.3-29.3c0,0,0.1-0.1,0.1-0.1
		c3.4-3.5,12.7-2.8,21.8-2.2c6.4,0.4,13.6,0.9,20.6,0.1l32.1,32.1c-2.1,3.8-3.2,8.1-3.2,12.5c0,7,2.7,13.5,7.6,18.5l13.8,13.8
		c4.9,4.9,11.5,7.6,18.5,7.6c7,0,13.5-2.7,18.5-7.6l83.9-83.8c4.9-4.9,7.6-11.5,7.6-18.5C399,279.5,396.3,272.9,391.4,268L391.4,268
		z M183.6,79.5l34,6.4l-20.3,20.3c-3.1-1.5-7.5-4.3-12.2-8.9c-6.5-6.2-11.1-13.3-11.5-17.8c0,0,0,0,0,0c0,0,0,0,0,0
		c0-0.3,0-0.6,0-0.8C174.6,78.6,177.3,78.3,183.6,79.5L183.6,79.5z M144,85.9c4-4,10.1-4.4,14.6-1.4c2.5,10.6,11.6,20.3,15.7,24.2
		c3,2.9,12.7,11.6,22.6,14c1.3,1.9,2,4.2,2,6.6c0,3.1-1.2,6-3.3,8.1c-2.2,2.2-5,3.3-8.1,3.3c-3.1,0-6-1.2-8.1-3.4l0,0l0,0L144,102.1
		c-2.2-2.1-3.3-5-3.3-8.1C140.6,90.9,141.8,88,144,85.9L144,85.9z M123.5,120c2.2-2.2,5-3.3,8.1-3.3c3.1,0,6,1.2,8.1,3.4l28.4,28.4
		c4.5,4.5,4.5,11.8,0,16.2c-2.2,2.2-5.1,3.3-8.2,3.3s-6-1.2-8.1-3.3l0,0l-21.6-21.6c0,0-0.1-0.1-0.1-0.1l-6.7-6.7
		c-2.2-2.2-3.4-5-3.4-8.1C120.2,125.1,121.3,122.2,123.5,120L123.5,120z M103,154.2c2.2-2.2,5-3.3,8.1-3.3c3.1,0,5.9,1.2,8.1,3.3
		l21.6,21.6c2.2,2.1,3.3,5,3.3,8.1c0,3.1-1.2,6-3.4,8.1c-2.2,2.2-5,3.3-8.1,3.3c-3.1,0-6-1.2-8.1-3.3l-7.8-7.8c0,0,0,0,0,0
		L103,170.4c-2.2-2.2-3.4-5-3.4-8.1C99.7,159.2,100.9,156.3,103,154.2L103,154.2z M89.4,195.2c2.2-2.2,5.1-3.4,8.1-3.4
		c3.1,0,6,1.2,8.1,3.4l7.9,7.8c2.2,2.1,3.3,5,3.3,8.1c0,3.1-1.2,6-3.4,8.1c-2.2,2.2-5,3.3-8.1,3.3c-3.1,0-6-1.2-8.1-3.4l-1-1
		c0,0,0,0,0,0c0,0,0,0,0,0l-6.8-6.8C84.9,207,84.9,199.7,89.4,195.2L89.4,195.2z M248.9,284.2c-3.1-3.1-8-3.1-11.1,0l-7,7
		c-6.6,6.6-18.6,5.8-30.2,5c-12.6-0.9-25.6-1.8-34,6.9l-28.8,28.8l-72.1-72l25.5-25.5c4.2,2.6,9.1,4,14.2,4c7.3,0,14.1-2.8,19.2-7.9
		c5.1-5.1,8-11.9,8-19.2c0-0.1,0-0.1,0-0.2c0.1,0,0.1,0,0.2,0c7.3,0,14.1-2.8,19.2-7.9c5.1-5.1,8-11.9,8-19.2c0-0.1,0-0.1,0-0.2
		c0.1,0,0.1,0,0.2,0c7.3,0,14.1-2.8,19.2-7.9c5.3-5.3,8-12.4,7.9-19.4c0.1,0,0.1,0,0.2,0c7.3,0,14.1-2.8,19.2-7.9
		c5.1-5.1,7.9-11.9,7.9-19.2c0-5.1-1.4-9.9-4-14.1l22.4-22.4c1.7-1.7,3.7-2.7,5.9-3.1c0.2,0,0.5-0.1,0.7-0.1
		c3.5-0.5,7.1,0.6,9.7,3.2c4.5,4.5,4.5,11.8,0,16.2l-6.8,6.8c0,0,0,0-0.1,0.1l-7.8,7.8c-3.1,3.1-3.1,8,0,11.1c3.1,3.1,8,3.1,11.1,0
		l6.8-6.8c0,0,0,0,0,0l1-1c4.5-4.4,11.8-4.4,16.2,0c2.2,2.1,3.3,5,3.3,8.1c0,3.1-1.2,6-3.4,8.1l-6.8,6.9c0,0,0,0,0,0l-7.8,7.8
		c-3.1,3.1-3.1,8,0,11.1c3.1,3.1,8,3.1,11.1,0l7.9-7.8c2.2-2.2,5-3.3,8.1-3.3c3.1,0,6,1.2,8.1,3.4c2.2,2.1,3.3,5,3.3,8.1
		c0,3.1-1.2,6-3.4,8.1l-13.7,13.7c-3.1,3.1-3.1,8,0,11.1c1.5,1.5,3.5,2.3,5.5,2.3c2,0,4-0.8,5.5-2.3l6.7-6.7c0,0,0.1-0.1,0.1-0.1
		c2.2-2.2,5-3.3,8.1-3.3c3.1,0,6,1.2,8.1,3.4c4.5,4.5,4.5,11.7,0,16.2l-6.8,6.8c0,0,0,0,0,0s0,0,0,0L293,229c-3.1,3.1-3.1,8,0,11.1
		c1.5,1.5,3.5,2.3,5.5,2.3c2,0,4-0.8,5.5-2.3l5.3-5.3l25.3,25.3l-72.1,72l-25.8-25.8c1.8-1.2,3.5-2.5,5.1-4.1l7-7
		C251.9,292.2,252,287.2,248.9,284.2L248.9,284.2z M380.3,293.9l-83.9,83.8c-2,2-4.6,3-7.4,3c-2.8,0-5.4-1.1-7.4-3l-13.8-13.8
		c-2-2-3-4.6-3-7.4c0-2.8,1.1-5.4,3-7.4l83.9-83.8c2-2,4.6-3,7.4-3c2.8,0,5.4,1.1,7.4,3l13.8,13.8c2,2,3,4.6,3,7.4
		C383.3,289.3,382.3,291.9,380.3,293.9z"/>
	<linearGradient id="SVGID_3_" gradientUnits="userSpaceOnUse" x1="65.2788" y1="23.3059" x2="109.4551" y2="23.3059">
		<stop  offset="0" style="stop-color:#003162"/>
		<stop  offset="0.1543" style="stop-color:#023565"/>
		<stop  offset="0.2948" style="stop-color:#07406D"/>
		<stop  offset="0.43" style="stop-color:#0F527B"/>
		<stop  offset="0.5618" style="stop-color:#1C6C8E"/>
		<stop  offset="0.6914" style="stop-color:#2B8EA7"/>
		<stop  offset="0.8191" style="stop-color:#3EB7C6"/>
		<stop  offset="0.943" style="stop-color:#55E7E9"/>
		<stop  offset="0.9988" style="stop-color:#60FFFB"/>
	</linearGradient>
	<path class="st2" d="M96.1,43.1c1.5,1.5,3.5,2.3,5.5,2.3c2,0,4-0.8,5.5-2.3c3.1-3.1,3-8,0-11.1L78.6,3.5c-3.1-3.1-8-3-11.1,0
		c-3.1,3.1-3,8,0,11.1L96.1,43.1z"/>
	<linearGradient id="SVGID_4_" gradientUnits="userSpaceOnUse" x1="290.6141" y1="23.3061" x2="334.7686" y2="23.3061">
		<stop  offset="0" style="stop-color:#003162"/>
		<stop  offset="0.1543" style="stop-color:#023565"/>
		<stop  offset="0.2948" style="stop-color:#07406D"/>
		<stop  offset="0.43" style="stop-color:#0F527B"/>
		<stop  offset="0.5618" style="stop-color:#1C6C8E"/>
		<stop  offset="0.6914" style="stop-color:#2B8EA7"/>
		<stop  offset="0.8191" style="stop-color:#3EB7C6"/>
		<stop  offset="0.943" style="stop-color:#55E7E9"/>
		<stop  offset="0.9988" style="stop-color:#60FFFB"/>
	</linearGradient>
	<path class="st3" d="M298.4,45.4c2,0,4-0.8,5.5-2.3l28.5-28.5c3.1-3.1,3.1-8,0-11.1c-3.1-3.1-8-3.1-11.1,0L292.9,32
		c-3.1,3.1-3.1,8,0,11.1C294.4,44.6,296.4,45.4,298.4,45.4z"/>
	<linearGradient id="SVGID_5_" gradientUnits="userSpaceOnUse" x1="48.3407" y1="341.299" x2="64.0007" y2="341.299">
		<stop  offset="0" style="stop-color:#003162"/>
		<stop  offset="0.1543" style="stop-color:#023565"/>
		<stop  offset="0.2948" style="stop-color:#07406D"/>
		<stop  offset="0.43" style="stop-color:#0F527B"/>
		<stop  offset="0.5618" style="stop-color:#1C6C8E"/>
		<stop  offset="0.6914" style="stop-color:#2B8EA7"/>
		<stop  offset="0.8191" style="stop-color:#3EB7C6"/>
		<stop  offset="0.943" style="stop-color:#55E7E9"/>
		<stop  offset="0.9988" style="stop-color:#60FFFB"/>
	</linearGradient>
	<path class="st4" d="M50.6,335.8c-3,3.1-3,8,0.1,11.1l0,0c1.5,1.5,3.5,2.2,5.5,2.2c2,0,4.1-0.8,5.6-2.3c3-3.1,3-8-0.1-11.1
		C58.6,332.7,53.6,332.7,50.6,335.8z"/>
	<linearGradient id="SVGID_6_" gradientUnits="userSpaceOnUse" x1="260.1927" y1="265.0684" x2="275.8763" y2="265.0684">
		<stop  offset="0" style="stop-color:#003162"/>
		<stop  offset="0.1543" style="stop-color:#023565"/>
		<stop  offset="0.2948" style="stop-color:#07406D"/>
		<stop  offset="0.43" style="stop-color:#0F527B"/>
		<stop  offset="0.5618" style="stop-color:#1C6C8E"/>
		<stop  offset="0.6914" style="stop-color:#2B8EA7"/>
		<stop  offset="0.8191" style="stop-color:#3EB7C6"/>
		<stop  offset="0.943" style="stop-color:#55E7E9"/>
		<stop  offset="0.9988" style="stop-color:#60FFFB"/>
	</linearGradient>
	<path class="st5" d="M268,272.9c1.2,0,2.4-0.3,3.5-0.8c3.9-1.9,5.4-6.7,3.5-10.5c-1.9-3.9-6.7-5.4-10.5-3.5l0,0
		c-3.9,1.9-5.4,6.6-3.4,10.5C262.4,271.3,265.2,272.9,268,272.9L268,272.9z"/>
</g>
</svg>
