<?xml version="1.0" encoding="utf-8"?>
<!-- Generator: Adobe Illustrator 23.0.3, SVG Export Plug-In . SVG Version: 6.00 Build 0)  -->
<svg version="1.1" id="Layer_5" xmlns="http://www.w3.org/2000/svg" xmlns:xlink="http://www.w3.org/1999/xlink" x="0px" y="0px"
	 viewBox="0 0 512 512" style="enable-background:new 0 0 512 512;" xml:space="preserve">
<style type="text/css">
	.st0{fill:#FFFFFF;}
</style>
<path class="st0" d="M472,432c-3.7,0-7.2,0.9-10.3,2.4L353.3,326c2.2-3,4.2-6.1,6-9.3l80.6,21.6c1.3,12,11.4,21.4,23.7,21.4
	c13.2,0,24-10.8,24-24s-10.8-24-24-24c-8.5,0-15.9,4.4-20.1,11l-76.7-20.6c1.9-4.6,3.5-9.4,4.8-14.3l47.2-12.6
	c4.1,7.4,11.9,12.4,20.9,12.4c13.2,0,24-10.8,24-24s-10.8-24-24-24c-11.8,0-21.5,8.5-23.6,19.7l-41,11c0.6-4.7,1-9.5,1-14.4
	c0-11.1-1.6-21.8-4.5-32H408c13.2,0,24-10.8,24-24v-32.4c40.4-4,72-38.2,72-79.6c0-44.1-35.9-80-80-80s-80,35.9-80,80
	c0,41.4,31.6,75.6,72,79.6V200c0,4.4-3.6,8-8,8h-42.1c-18.6-42.3-60.8-72-109.9-72c-9.2,0-18.1,1.1-26.8,3.1l7.4-27.5
	c11.2-2,19.7-11.8,19.7-23.6c0-13.2-10.8-24-24-24s-24,10.8-24,24c0,9,5,16.8,12.4,20.9l-9.6,35.9c-6.7,2.7-13,6-19,9.8l-18.9-70.4
	c6.6-4.3,11-11.7,11-20.2c0-13.2-10.8-24-24-24s-24,10.8-24,24c0,12.3,9.4,22.4,21.3,23.7l20.6,77c-3.2,2.8-6.3,5.7-9.2,8.8
	L61.6,65.9c1.5-3.1,2.4-6.6,2.4-10.3c0-13.2-10.8-24-24-24s-24,10.8-24,24s10.8,24,24,24c3.7,0,7.2-0.9,10.3-2.4l108.6,108.6
	c-2.1,3-4.1,6-6,9.2l-80.8-21.6c-1.3-12-11.4-21.4-23.7-21.4c-13.2,0-24,10.8-24,24s10.8,24,24,24c8.5,0,15.9-4.4,20.1-11l76.9,20.6
	c-1.9,4.6-3.5,9.4-4.8,14.2l-47.3,12.7C89.2,229,81.4,224,72.4,224c-13.2,0-24,10.8-24,24c0,13.2,10.8,24,24,24
	c11.8,0,21.5-8.5,23.6-19.7l41.1-11c-0.6,4.8-1,9.7-1,14.7c0,11.1,1.6,21.8,4.5,32H104c-13.2,0-24,10.8-24,24v32.4
	c-40.4,4-72,38.2-72,79.6c0,44.1,35.9,80,80,80s80-35.9,80-80c0-41.4-31.6-75.6-72-79.6V312c0-4.4,3.6-8,8-8h42.1
	c18.6,42.3,60.8,72,109.9,72c9.2,0,18.1-1.1,26.6-3.1l-7.3,27.2c-11.2,2-19.7,11.8-19.7,23.6c0,13.2,10.8,24,24,24s24-10.8,24-24
	c0-9-5-16.8-12.4-20.9l9.5-35.5c6.7-2.7,13.1-6,19.2-9.9l18.8,70.1c-6.6,4.3-11.1,11.7-11.1,20.1c0,13.2,10.8,24,24,24
	s24-10.8,24-24c0-12.3-9.4-22.4-21.3-23.7l-20.5-76.7c3.3-2.8,6.4-5.8,9.3-8.9l107.4,107.4c-1.5,3.1-2.4,6.6-2.4,10.3
	c0,13.2,10.8,24,24,24s24-10.8,24-24S485.2,432,472,432L472,432z M463.6,327.6c4.4,0,8,3.6,8,8s-3.6,8-8,8s-8-3.6-8-8
	S459.2,327.6,463.6,327.6z M439.6,255.6c4.4,0,8,3.6,8,8s-3.6,8-8,8s-8-3.6-8-8S435.2,255.6,439.6,255.6z M400,80
	c0-13.2,10.8-24,24-24s24,10.8,24,24s-10.8,24-24,24S400,93.2,400,80z M424,152c-14.4,0-27.6-4.8-38.3-12.9
	c9-11.9,23.2-19.1,38.3-19.1s29.3,7.2,38.3,19.1C451.6,147.2,438.4,152,424,152L424,152z M360,88c0-35.3,28.7-64,64-64
	s64,28.7,64,64c0,15.1-5.3,29.1-14.1,40c-6.3-7.9-14.4-14.1-23.4-18.2c8.3-7.3,13.6-17.9,13.6-29.8c0-22.1-17.9-40-40-40
	s-40,17.9-40,40c0,11.9,5.3,22.5,13.6,29.8c-9.1,4.1-17.1,10.3-23.4,18.2C365.3,117.1,360,103.1,360,88z M232.4,80c4.4,0,8,3.6,8,8
	s-3.6,8-8,8s-8-3.6-8-8S228,80,232.4,80z M152.4,64c0-4.4,3.6-8,8-8s8,3.6,8,8s-3.6,8-8,8S152.4,68.4,152.4,64z M40,63.6
	c-4.4,0-8-3.6-8-8s3.6-8,8-8s8,3.6,8,8S44.4,63.6,40,63.6z M48.4,184c-4.4,0-8-3.6-8-8s3.6-8,8-8s8,3.6,8,8S52.8,184,48.4,184z
	 M72.4,256c-4.4,0-8-3.6-8-8s3.6-8,8-8s8,3.6,8,8S76.8,256,72.4,256z M49.7,475.1c9-11.9,23.2-19.1,38.3-19.1s29.3,7.2,38.3,19.1
	c-10.7,8-23.9,12.9-38.3,12.9S60.4,483.2,49.7,475.1z M64,416c0-13.2,10.8-24,24-24s24,10.8,24,24s-10.8,24-24,24S64,429.2,64,416z
	 M152,424c0,15.1-5.3,29.1-14.1,40c-6.3-7.9-14.4-14.1-23.4-18.2c8.3-7.3,13.6-17.9,13.6-29.8c0-22.1-17.9-40-40-40s-40,17.9-40,40
	c0,11.9,5.3,22.5,13.6,29.8c-9.1,4.1-17.1,10.3-23.4,18.2c-8.8-11-14.1-24.9-14.1-40c0-35.3,28.7-64,64-64S152,388.7,152,424z
	 M279.6,431.6c-4.4,0-8-3.6-8-8s3.6-8,8-8s8,3.6,8,8S284,431.6,279.6,431.6z M359.6,447.6c0,4.4-3.6,8-8,8s-8-3.6-8-8s3.6-8,8-8
	S359.6,443.2,359.6,447.6z M216,224c0-22.1,17.9-40,40-40s40,17.9,40,40s-17.9,40-40,40S216,246.1,216,224L216,224z M277.7,283.4
	L256,344.2l-21.7-60.8c6.9-2.2,14.2-3.4,21.7-3.4C263.5,280,270.8,281.2,277.7,283.4z M219.6,290l24.8,69.4
	c-22.1-2.5-42.1-12-57.9-26.1C191.6,314.6,203.7,299.3,219.6,290L219.6,290z M292.4,290c15.9,9.4,28.1,24.7,33.1,43.2
	c-15.7,14.2-35.7,23.7-57.9,26.1L292.4,290z M256,152c57.3,0,104,46.7,104,104c0,24.1-8.3,46.2-22.1,63.8c-9-23-27.5-41-50.1-49.8
	c14.6-10.1,24.2-27,24.2-46c0-30.9-25.1-56-56-56s-56,25.1-56,56c0,19.1,9.6,35.9,24.2,46c-22.7,8.8-41.1,26.8-50.1,49.8
	C160.3,302.2,152,280.1,152,256C152,198.7,198.7,152,256,152L256,152z M472,464c-4.4,0-8-3.6-8-8s3.6-8,8-8s8,3.6,8,8
	S476.4,464,472,464z"/>
</svg>
