<?xml version="1.0" encoding="utf-8"?>
<!-- Generator: Adobe Illustrator 23.0.3, SVG Export Plug-In . SVG Version: 6.00 Build 0)  -->
<svg version="1.1" id="Livello_1" xmlns="http://www.w3.org/2000/svg" xmlns:xlink="http://www.w3.org/1999/xlink" x="0px" y="0px"
	 viewBox="0 0 496 496" style="enable-background:new 0 0 496 496;" xml:space="preserve">
<style type="text/css">
	.st0{fill:#003162;}
</style>
<path class="st0" d="M216,120c-52.9,0-96,43.1-96,96s43.1,96,96,96s96-43.1,96-96S268.9,120,216,120z M216,136
	c43.5,0,78.9,34.9,79.9,78.1l-50.1,22.5c-4.6-12-16.2-20.6-29.8-20.6c-13.6,0-25.1,8.5-29.8,20.4l-50.1-23.6
	C137.8,170.2,172.9,136,216,136z M232,248c0,8.8-7.2,16-16,16s-16-7.2-16-16s7.2-16,16-16S232,239.2,232,248z M216,296
	c-38.9,0-71.4-27.9-78.5-64.8l47,22.1c2.6,15.1,15.6,26.7,31.5,26.7c15.8,0,28.9-11.5,31.5-26.6l46.9-21.1
	C286.8,268.6,254.5,296,216,296z"/>
<path class="st0" d="M357.7,290.3c-3.1-3.1-8.2-3.1-11.3,0L336,300.7l-13.6-13.6C336,266.7,344,242.3,344,216c0-2-0.2-3.9-0.3-5.9
	l53.7-24.2c5.3,3.8,11.6,6.1,18.6,6.1c17.6,0,32-14.4,32-32c0-11.1-5.7-20.9-14.3-26.6l27.8-69.6c0.8,0.1,1.6,0.2,2.5,0.2
	c17.6,0,32-14.4,32-32S481.6,0,464,0s-32,14.4-32,32c0,11.1,5.7,20.9,14.3,26.6l-27.8,69.6c-0.8-0.1-1.6-0.2-2.5-0.2
	c-5.7,0-11,1.6-15.6,4.3l-45.2-51.6c3-4.9,4.8-10.5,4.8-16.6c0-17.6-14.4-32-32-32c-11.6,0-21.7,6.3-27.3,15.6L175.9,32.9
	c0-0.3,0.1-0.6,0.1-0.9c0-17.6-14.4-32-32-32s-32,14.4-32,32c0,8.1,3.1,15.5,8.1,21.1l-73,94.9c-2.2-1.2-4.6-2.2-7.2-2.8V62.9
	c13.8-3.6,24-16,24-30.9C64,14.4,49.6,0,32,0S0,14.4,0,32c0,14.9,10.2,27.3,24,30.9v82.3c-13.8,3.6-24,16-24,30.9
	c0,17.6,14.4,32,32,32c11,0,20.7-5.6,26.4-14l30,14.1c-0.2,2.6-0.4,5.2-0.4,7.9c0,70.6,57.4,128,128,128c26.3,0,50.7-8,71.1-21.6
	l13.6,13.6l-10.3,10.3c-1.5,1.5-2.3,3.5-2.3,5.7s0.8,4.2,2.3,5.7l124.4,124.4c9,9,20.9,13.9,33.7,13.9c26.2,0,47.6-21.4,47.6-47.6
	c0-12.7-5-24.7-13.9-33.7L357.7,290.3z M464,16c8.8,0,16,7.2,16,16s-7.2,16-16,16s-16-7.2-16-16S455.2,16,464,16z M444.7,400
	L400,444.7L331.3,376l44.7-44.7L444.7,400z M432,160c0,8.8-7.2,16-16,16s-16-7.2-16-16s7.2-16,16-16S432,151.2,432,160z M328,48
	c8.8,0,16,7.2,16,16s-7.2,16-16,16s-16-7.2-16-16S319.2,48,328,48z M144,16c8.8,0,16,7.2,16,16s-7.2,16-16,16s-16-7.2-16-16
	S135.2,16,144,16z M16,32c0-8.8,7.2-16,16-16s16,7.2,16,16s-7.2,16-16,16S16,40.8,16,32z M32,192c-8.8,0-16-7.2-16-16s7.2-16,16-16
	s16,7.2,16,16S40.8,192,32,192z M63.7,178.8c0.1-0.9,0.3-1.8,0.3-2.8c0-6.3-1.9-12.2-5.1-17.1l74.5-96.8c3.3,1.2,6.8,1.9,10.6,1.9
	c11.6,0,21.7-6.3,27.3-15.6l124.8,14.7c0,0.3-0.1,0.6-0.1,0.9c0,17.6,14.4,32,32,32c5.7,0,11-1.6,15.6-4.3l45.2,51.6
	c-3,4.9-4.8,10.5-4.8,16.6c0,4.7,1.1,9.1,2.9,13.1l-45,20.3C331.2,133.6,278.8,88,216,88c-62.1,0-114,44.5-125.6,103.4L63.7,178.8z
	 M104,216c0-61.8,50.2-112,112-112s112,50.2,112,112s-50.2,112-112,112S104,277.8,104,216z M299.8,312.5c4.5-3.9,8.8-8.2,12.7-12.7
	l12.2,12.2L312,324.7L299.8,312.5z M317.7,341.7l34.3-34.3l12.7,12.7L320,364.7L307.3,352L317.7,341.7z M448.4,480
	c-8.4,0-16.4-3.3-22.3-9.3L411.3,456l44.7-44.7l14.7,14.7c6,6,9.3,13.9,9.3,22.3C480,465.8,465.8,480,448.4,480z"/>
<path class="st0" d="M440,440h16v16h-16V440z"/>
</svg>
