<?xml version="1.0" encoding="utf-8"?>
<!-- Generator: Adobe Illustrator 23.0.3, SVG Export Plug-In . SVG Version: 6.00 Build 0)  -->
<svg version="1.1" id="Livello_1" xmlns="http://www.w3.org/2000/svg" xmlns:xlink="http://www.w3.org/1999/xlink" x="0px" y="0px"
	 viewBox="0 0 479 479" style="enable-background:new 0 0 479 479;" xml:space="preserve">
<style type="text/css">
	.st0{fill:#FFFFFF;}
</style>
<path class="st0" d="M468.7,252.5l-3.4-2.6c-9-7.5-21.8-8-31.4-1.3l0-54.3c0.1-5.9-2.6-11.6-7.2-15.3c-4.6-3.7-10.6-5.2-16.4-4
	c-1.2-9.9-9.6-17.4-19.6-17.3h-0.3c-7.3,0-14,4-17.5,10.5c-5.2-1.7-10.8-1.2-15.5,1.5c1.7-43.2,3.1-77.8,3-86.1
	c0-10.9-8.9-19.7-19.7-19.7h-0.3c-1.3,0-2.5,0.1-3.8,0.4V57c0.1-6.3-2.9-12.3-8-16c-5.1-3.7-11.8-4.7-17.7-2.6
	c-3.4-6.5-10.2-10.5-17.5-10.4h-0.3c-10-0.1-18.4,7.4-19.6,17.3c-5.8-1.3-11.8,0.2-16.4,3.9c-4.6,3.7-7.2,9.4-7.2,15.3l0,54.3
	c-9.6-6.7-22.4-6.2-31.4,1.3l-3.4,2.6c-3.1,2.4-4,6.8-2.1,10.2l33.1,59.4l2.5,40.2c-0.9,0.2-1.8,0.4-2.7,0.7
	c-3.4-6.5-10.1-10.5-17.5-10.5h-0.3c-10,0-18.4,7.5-19.6,17.4c-5.8-1.2-11.8,0.3-16.4,4.1c-4.6,3.7-7.2,9.3-7.2,15.2l0,54.3
	c-2-1.4-4.3-2.5-6.6-3.3l8.8-145.8l33.1-59.4c1.9-3.4,1-7.8-2.1-10.2l-3.4-2.6c-9-7.5-21.8-8-31.4-1.3l0-54.3
	c0.1-5.9-2.5-11.6-7.1-15.4c-4.6-3.8-10.7-5.2-16.5-3.9C158.6,7.4,150.1,0,140.2,0h-0.3c-7.3,0-14,4-17.5,10.5c-2-0.6-4.1-1-6.3-1
	c-10.9,0-19.8,8.8-20,19.7v7.2c-1.1-0.3-2.2-0.5-3.3-0.5h-0.3C81.8,36,73,44.8,72.9,55.7c0,9.3,1.7,51.6,3.7,102c-0.5,0-0.9,0-1.4,0
	h-0.3c-7.3,0-14,4-17.5,10.5c-2-0.6-4.1-1-6.2-1c-10.9,0-19.8,8.8-19.9,19.7v7.2c-1.1-0.3-2.2-0.5-3.4-0.5h-0.3
	C16.8,193.7,8,202.5,8,213.4c0,9.9,1.9,57.1,4.1,111.7c2.4,60.6,5.2,129.1,5.2,146c0,2.1,0.8,4.1,2.4,5.6c1.5,1.5,3.5,2.3,5.6,2.3
	h395.3c4.2,0,7.7-3.2,8-7.4l9.2-149.5l33.1-59.3C472.7,259.3,471.8,255,468.7,252.5z M230.5,131.1c4-2.2,9-1.3,12,2.1L252,144
	c2.2,2.5,5.7,3.4,8.8,2.2c3.1-1.2,5.2-4.1,5.2-7.5l0.1-74.4c0-2,1.6-3.7,3.6-3.8c2-0.1,3.7,1.5,3.9,3.5v23.7c0,17.2,0,32.4,0,33.9
	c0,2.1,0.8,4.1,2.3,5.6c1.5,1.5,3.5,2.3,5.6,2.3h0c4.4,0,8-3.5,8-7.9c0-1.5,0-16.7,0-33.9c0-5.7,0.2-11.5,0.2-17.2
	c0-0.1,0.2-0.2,0.2-0.3v-23c-0.1-0.9,0.3-1.8,0.9-2.5c0.7-0.7,1.6-1,2.5-1h0.3c0.9,0,1.8,0.3,2.4,1c0.6,0.7,0.9,1.6,0.8,2.5v74.4
	c0,4.4,3.6,8,8,8s8-3.6,8-8V57c0.1-2.1,1.9-3.7,4-3.7c2.1,0,3.9,1.6,4,3.7v64.8c0,4.4,3.6,8,8,8c4.4,0,8-3.6,8-8V83.6
	c0-2.1,1.7-3.8,3.8-3.8h0.3c2.1,0,3.7,1.7,3.8,3.8c0,9.5-1.9,58.5-4,110.4c-9.7,1.4-16.9,9.7-17,19.5c0,9.9,1.9,57,4.1,111.6
	c2.2,53.5,4.6,113.1,5.1,138h-46.3c0.6-21,3-64.1,5.1-102.3c2.2-38.9,4.1-72.6,4-82.5c0-10.9-8.8-19.7-19.7-19.8h-0.3
	c-1.3,0.1-2.5,0.3-3.7,0.6v-7.2c0-5.7-2.5-11.1-6.8-14.9l-2.9-47.6c-0.1-1.2-0.4-2.4-1-3.4L230.5,131.1z M92.7,51.9h0.3
	c2.1,0,3.3,1.8,3.3,3.9V94c0,4.4,3.6,8,8,8c4.4,0,8-3.6,8-8V29.2c0.1-2.1,1.9-3.7,4-3.7c2.1,0,3.9,1.6,4,3.7V94c0,4.4,3.6,8,8,8
	c4.4,0,8-3.6,8-8V19.5c0-1,0.4-1.9,1.1-2.6c0.7-0.7,1.7-1,2.6-1h0.3c2.1-0.1,3.8,1.5,3.9,3.6v23c0,0.1-0.1,0.2-0.1,0.3
	c0,5.7,0,11.6,0,17.2c0,17.3,0,32.4,0,33.9c0,2.1,0.8,4.1,2.3,5.6c1.5,1.5,3.5,2.3,5.6,2.3h0c2.1,0,4.1-0.8,5.6-2.3
	c1.5-1.5,2.3-3.5,2.3-5.6c0-1.5,0-16.6,0-33.9c0-7.8,0-16.1,0-23.7c0.1-2,1.8-3.6,3.9-3.5c2,0.1,3.6,1.7,3.6,3.8l0.1,74.4
	c0,3.3,2.1,6.3,5.2,7.5c3.1,1.2,6.6,0.3,8.8-2.2l9.5-10.8c3-3.4,8-4.3,12-2.1l-30.6,54.9c-0.6,1-0.9,2.2-1,3.4l-8.9,148.5
	c-3.2,1-6.2,2.6-8.8,4.8l-3.4,2.6c-3.1,2.4-4,6.8-2.1,10.2l33.2,59.4l8.2,75.9h-76l8.6-141l33.1-59.3c1.9-3.4,1-7.8-2.1-10.2
	l-3.4-2.6c-9-7.5-21.8-8-31.4-1.3l0-54.3c0-5.9-2.7-11.5-7.2-15.2c-4.6-3.7-10.6-5.2-16.4-4.1c-0.3-2.1-0.8-4.1-1.8-6.1l-0.1-1.7
	c-2.1-52.4-4.1-101.9-4.1-111.5C88.9,53.6,90.6,51.9,92.7,51.9z M88.7,463H33.1c-0.5-24.9-2.9-82.4-5.1-138.7
	c-2.1-52.1-4.1-101.4-4.1-111c0-2.1,1.7-3.8,3.8-3.8H28c2.1,0,3.4,1.9,3.4,3.9v38.2c0,4.4,3.6,8,8,8s8-3.6,8-8v-64.8
	c0.1-2.1,1.9-3.7,4-3.7c2.1,0,3.9,1.6,4,3.7v64.8c0,4.4,3.6,8,8,8s8-3.6,8-8v-74.4c0-1,0.4-1.9,1.1-2.6c0.7-0.7,1.6-1.1,2.6-1h0.3
	c2.1-0.1,3.9,1.5,4,3.6v23c0,0.1-0.1,0.2-0.1,0.3c0,5.3-0.1,10.7-0.1,16c0,18.1,0,33.6,0,35.1c0,2.1,0.8,4.1,2.3,5.6
	c1.5,1.5,3.5,2.3,5.6,2.3h0c2.1,0,4.1-0.8,5.6-2.3c1.5-1.5,2.3-3.5,2.3-5.6c0-1.5,0-17.8,0-35.1c0-7.4,0-15.2,0-22.4
	c0.1-2,1.8-3.6,3.9-3.5c2,0.1,3.6,1.7,3.6,3.8l0.1,74.4c0,3.3,2.1,6.3,5.2,7.5c3.1,1.2,6.6,0.3,8.8-2.2l9.5-10.8c3-3.4,8-4.3,12-2.1
	l-30.6,54.9c-0.6,1-0.9,2.1-1,3.3L97.6,463H88.7z M205.6,463l-8.5-79.2c-0.1-1.1-0.4-2.1-1-3L165.5,326c4-2.2,9-1.3,12,2.1l9.5,10.8
	c2.2,2.5,5.7,3.4,8.8,2.2c3.1-1.2,5.2-4.1,5.2-7.5l0.1-74.4c0-2,1.6-3.7,3.6-3.8c2-0.1,3.7,1.5,3.9,3.5v23.7c0,17.2,0,32.3,0,33.7
	c0,2.1,0.8,4.1,2.3,5.6c1.5,1.5,3.5,2.3,5.6,2.3h0c2.1,0,4.1-0.8,5.6-2.2c1.5-1.5,2.4-3.5,2.4-5.6c0-1.5,0-16.6,0-33.9
	c0-5.7,0.2-11.5,0.2-17.2c0-0.1,0.2-0.2,0.2-0.3v-23c0-2.1,1.3-3.7,3.3-3.7h0.3c2.1,0,3.4,1.7,3.4,3.7v74.4c0,4.4,3.6,8,8,8
	s8-3.6,8-8v-64.8c0.1-2.1,1.9-3.8,4-3.8c2.1,0,3.9,1.6,4,3.8v64.8c0,4.4,3.6,8,8,8c4.4,0,8-3.6,8-8v-38.2c0-2.1,1.6-3.9,3.7-4h0.3
	c2.1,0.1,3.8,1.8,3.8,3.9c0,9.5-1.9,44.4-4,81.5c-2.2,38.5-4.6,81.3-5.1,103.3H205.6z M422.9,315.9c-0.6,1-0.9,2.1-1,3.3L413.1,463
	h-64.4c-0.5-24.9-2.9-82.4-5.1-138.7c-2.1-52.1-4.1-101.4-4.1-111c0-2.1,1.7-3.8,3.8-3.8h0.3c2.2,0.1,4,1.7,4.2,3.9v38.2
	c0,4.4,3.6,8,8,8c4.4,0,8-3.6,8-8v-64.8c-0.1-1.3,0.5-2.6,1.7-3.2c1.1-0.7,2.5-0.7,3.6,0c1.1,0.7,1.8,1.9,1.7,3.2v64.8
	c0,4.4,3.6,8,8,8c4.4,0,8-3.6,8-8v-74.4c0-1,0.4-1.9,1.2-2.6c0.7-0.7,1.7-1.1,2.7-1h0.3c2.1-0.1,3.8,1.6,3.9,3.6v23
	c0,0.1-0.1,0.2-0.1,0.3c0,5.7,0,11.6,0,17.2c0,17.3,0,32.4,0,33.8c0,2.1,0.9,4.1,2.4,5.6c1.5,1.5,3.5,2.3,5.6,2.3h0
	c2.1,0,4.1-0.8,5.6-2.3c1.5-1.5,2.3-3.5,2.3-5.6c0-1.5,0-16.6,0-33.8c0-7.8,0-16.1,0-23.7c0.1-2,1.8-3.6,3.9-3.5s3.6,1.7,3.6,3.8
	l0.1,74.4c0,3.3,2.1,6.3,5.2,7.5c3.1,1.2,6.6,0.3,8.8-2.2l9.5-10.8c3-3.4,8-4.3,12-2.1L422.9,315.9z"/>
</svg>
