<svg id="Capa_1" data-name="Capa 1" xmlns="http://www.w3.org/2000/svg" viewBox="0 0 377.64 316.62"><defs><style>.cls-1{fill:#ffffff;}</style></defs><title>studentuniversity-building</title><path class="cls-1" d="M369.64,347.13H8a8,8,0,0,1,0-16H369.64a8,8,0,0,1,0,16ZM355,310.67a8,8,0,0,1-8-8V125.88H293.09a8,8,0,0,1,0-16H355a8,8,0,0,1,8,8V302.67A8,8,0,0,1,355,310.67Zm-69.4,0a8,8,0,0,1-8-8V212.3a8,8,0,0,1,16,0v90.37A8,8,0,0,1,285.57,310.67Zm-64.5,0a8,8,0,0,1-8-8V212.3a8,8,0,0,1,16,0v90.37A8,8,0,0,1,221.07,310.67Zm-64.5,0a8,8,0,0,1-8-8V212.3a8,8,0,0,1,16,0v90.37A8,8,0,0,1,156.57,310.67Zm-64.5,0a8,8,0,0,1-8-8V212.3a8,8,0,0,1,16,0v90.37A8,8,0,0,1,92.07,310.67Zm-69.4,0a8,8,0,0,1-8-8V117.88a8,8,0,0,1,8-8H84.56a8,8,0,0,1,0,16H30.67V302.67A8,8,0,0,1,22.67,310.67Zm298.38-74.81a8,8,0,0,1-8-8V212.3a8,8,0,0,1,16,0v15.56A8,8,0,0,1,321.05,235.86Zm-264.45,0a8,8,0,0,1-8-8V212.3a8,8,0,0,1,16,0v15.56A8,8,0,0,1,56.6,235.86Zm264.45-48.79a8,8,0,0,1-8-8V163.52a8,8,0,0,1,16,0v15.55A8,8,0,0,1,321.05,187.07Zm-264.45,0a8,8,0,0,1-8-8V163.52a8,8,0,1,1,16,0v15.55A8,8,0,0,1,56.6,187.07Zm229,0H92.07a8,8,0,0,1,0-16h193.5a8,8,0,0,1,0,16Zm0-27.27A7.88,7.88,0,0,1,282,159L188,112.37,95.68,159a8,8,0,1,1-7.21-14.29l92.35-46.61V38.51a8,8,0,0,1,8-8h57.83a8,8,0,0,1,8,8V68.73a8,8,0,0,1-8,8H196.82V98.9l92.3,45.73a8,8,0,0,1-3.56,15.17ZM196.82,60.73h41.83V46.51H196.82Z" transform="translate(0 -30.51)"/></svg>