<?xml version="1.0" encoding="utf-8"?>
<!-- Generator: Adobe Illustrator 23.0.3, SVG Export Plug-In . SVG Version: 6.00 Build 0)  -->
<svg version="1.1" id="Livello_1" xmlns="http://www.w3.org/2000/svg" xmlns:xlink="http://www.w3.org/1999/xlink" x="0px" y="0px"
	 viewBox="0 0 80 80" style="enable-background:new 0 0 80 80;" xml:space="preserve">
<style type="text/css">
	.st0{fill:#003162;}
</style>
<path class="st0" d="M40,79.6C18,79.6,0.2,61.7,0.2,39.8C0.2,17.9,18,0,40,0c21.9,0,39.8,17.9,39.8,39.8
	C79.8,61.7,61.9,79.6,40,79.6 M40,6.1C21.4,6.1,6.2,21.2,6.2,39.8c0,18.6,15.1,33.7,33.7,33.7c18.6,0,33.7-15.1,33.7-33.7
	C73.7,21.2,58.6,6.1,40,6.1"/>
<path class="st0" d="M57.5,35.2c0.7-4.9-3-7.5-8.1-9.3l1.7-6.6l-4-1l-1.6,6.5c-1.1-0.3-2.2-0.5-3.2-0.8l1.6-6.5l-4-1l-1.7,6.6
	c-0.9-0.2-1.7-0.4-2.6-0.6l0,0L30,21.1l-1.1,4.3c0,0,3,0.7,2.9,0.7c1.6,0.4,1.9,1.5,1.9,2.3l-1.9,7.6c0.1,0,0.3,0.1,0.4,0.1
	c-0.1,0-0.3-0.1-0.4-0.1l-2.6,10.6c-0.2,0.5-0.7,1.2-1.8,1c0,0.1-2.9-0.7-2.9-0.7l-2,4.6l5.3,1.3c1,0.2,1.9,0.5,2.9,0.7l-1.7,6.7
	l4,1l1.7-6.6c1.1,0.3,2.2,0.6,3.2,0.8l-1.6,6.6l4,1l1.7-6.7c6.9,1.3,12.1,0.8,14.2-5.4c1.8-5-0.1-7.9-3.7-9.8
	C55,40.6,57,38.8,57.5,35.2 M48.3,48.2c-1.2,5-9.7,2.3-12.4,1.6l2.2-8.9C40.8,41.6,49.6,42.9,48.3,48.2 M49.5,35.2
	c-1.1,4.6-8.2,2.2-10.4,1.7l2-8.1C43.4,29.3,50.7,30.4,49.5,35.2"/>
</svg>
