<svg id="Livello_1" data-name="Livello 1" xmlns="http://www.w3.org/2000/svg" viewBox="0 0 79.6 79.6"><defs><style>.cls-1{fill:#87D3DD;}</style></defs><title>dai</title><path class="cls-1" d="M40,79.8A39.8,39.8,0,1,1,79.8,40,39.9,39.9,0,0,1,40,79.8M40,6.3A33.7,33.7,0,1,0,73.7,40,33.72,33.72,0,0,0,40,6.3" transform="translate(-0.2 -0.2)"/><path class="cls-1" d="M59.27,42.09c-.78,0-1.56,0-2.34,0-.33,0-.46-.09-.4-.46a14.7,14.7,0,0,0,0-3.18c0-.4.09-.5.45-.5.79,0,1.57,0,2.35,0,.39,0,.54-.11.53-.52,0-.94,0-1.89,0-2.83,0-.47-.12-.63-.59-.61-1,0-2,0-3,0a.89.89,0,0,1-1-.67,14.73,14.73,0,0,0-3.18-4.91A18.09,18.09,0,0,0,39,23.05c-2.11-.05-4.21,0-6.32,0-2.37,0-4.73,0-7.1,0-.59,0-.75.16-.75.74,0,3.13,0,6.25,0,9.38,0,.75-.23.92-.92.88-1.09-.05-2.18,0-3.27,0-.42,0-.59.11-.57.55,0,.93,0,1.85,0,2.77,0,.49.11.66.62.65,1.19,0,2.37,0,3.55,0,.43,0,.59.13.57.57,0,1,0,2,0,3,0,.48-.17.61-.62.6-1.18,0-2.37,0-3.55,0-.41,0-.6.09-.58.55q0,1.45,0,2.91c0,.42.15.52.54.51,1.11,0,2.23,0,3.33,0,.77-.05.89.23.88.92,0,3.07,0,6.15,0,9.23,0,.62.17.8.8.8q6.06,0,12.14,0a24.5,24.5,0,0,0,4.1-.28c6.24-1,10.89-4.23,13.46-10.15a.69.69,0,0,1,.79-.49c1.07,0,2.13,0,3.2,0,.42,0,.59-.09.57-.55,0-.94,0-1.89,0-2.84C59.91,42.18,59.71,42.07,59.27,42.09ZM28.72,33.23c0-2,0-4,0-6,0-.49.08-.71.65-.7,3.36,0,6.72-.09,10.08.05a13.15,13.15,0,0,1,11.2,6.15c.13.2.24.41.36.61.27.44.25.67-.36.64-.85,0-1.7,0-2.56,0H40c-3.5,0-7,0-10.5,0C28.87,34,28.71,33.85,28.72,33.23Zm22.2,13.61a12.9,12.9,0,0,1-9.37,6.31,37.49,37.49,0,0,1-6.44.27c-1.92,0-3.83,0-5.75,0-.5,0-.64-.15-.63-.64,0-2,0-4,0-6,0-.56.14-.72.71-.72,3.54,0,7.09,0,10.64,0H50.5c.23,0,.54-.13.66.09S51,46.63,50.92,46.84Zm1.68-5.46c0,.54-.24.74-.83.73-3.73,0-7.47,0-11.21,0s-7.38,0-11.07,0c-.56,0-.8-.12-.76-.74.05-.94,0-1.89,0-2.83,0-.42.12-.6.56-.58.64,0,1.28,0,1.92,0,6.83,0,13.67,0,20.5,0,.66,0,.9.22.9.81C52.61,39.63,52.61,40.51,52.6,41.38Z" transform="translate(-0.2 -0.2)"/></svg>