<?xml version="1.0" encoding="utf-8"?>
<!-- Generator: Adobe Illustrator 23.0.3, SVG Export Plug-In . SVG Version: 6.00 Build 0)  -->
<svg version="1.1" id="Livello_1" xmlns="http://www.w3.org/2000/svg" xmlns:xlink="http://www.w3.org/1999/xlink" x="0px" y="0px"
	 viewBox="0 0 80 80" style="enable-background:new 0 0 80 80;" xml:space="preserve">
<style type="text/css">
	.st0{fill:#87D3DD;}
</style>
<polygon class="st0" points="40.2,62.2 53.8,43.1 40.2,51.1 26.6,43.1 40.2,62.2 40.2,62.2 40.2,62.2 40.2,62.2 "/>
<polygon class="st0" points="40.2,48.5 40.2,48.5 53.8,40.5 40.2,18 40.2,18 40.2,18 40.2,18 40.2,18 26.6,40.5 "/>
<path class="st0" d="M40.2,79.9C18.3,79.9,0.4,62,0.4,40.1c0-21.9,17.8-39.8,39.8-39.8C62.2,0.3,80,18.1,80,40.1
	C80,62,62.2,79.9,40.2,79.9 M40.2,6.4C21.6,6.4,6.5,21.5,6.5,40.1c0,18.6,15.1,33.7,33.7,33.7c18.6,0,33.7-15.1,33.7-33.7
	C73.9,21.5,58.8,6.4,40.2,6.4"/>
</svg>
