<svg id="Livello_1" data-name="Livello 1" xmlns="http://www.w3.org/2000/svg" viewBox="0 0 38.2 38.2">
  <defs>
    <style>
      .cls-1 {
        fill: #1c355d;
      }

      .cls-2 {
        fill: #fff;
      }
    </style>
  </defs>
  <title>youtube</title>
  <circle class="cls-1" cx="19.1" cy="19.1" r="19.1"/>
  <path class="cls-2" d="M31.1,17.55c0-.26,0-.52,0-.79a5.8,5.8,0,0,0-.95-3.28,3.62,3.62,0,0,0-2.53-1c-1.17-.13-2.35-.21-3.53-.26-2.39-.09-4.78,0-7.17,0-1.23,0-2.46.05-3.68.15-1.51.12-3,.34-3.75,1.84a10.92,10.92,0,0,0-.56,4.51c0,1.3,0,2.6,0,3.9.07,1.69.17,3.89,2,4.63a10.67,10.67,0,0,0,3.18.55c1.1.07,2.2.06,3.31.08,2.31,0,4.62-.05,6.93-.09a15.5,15.5,0,0,0,4.79-.58c1.32-.45,1.67-1.88,1.85-3.13a26,26,0,0,0,.13-3.74C31.11,19.4,31.13,18.47,31.1,17.55ZM17.75,23.36V16.59L23.5,20Z" transform="translate(-0.9 -0.9)"/>
</svg>
