<svg id="Livello_1" data-name="Livello 1" xmlns="http://www.w3.org/2000/svg" viewBox="0 0 480 480"><defs><style>.cls-1{fill:#20509e;}</style></defs><title>2admin</title><g id="admin"><path class="cls-1" d="M464,288h-.64a53.6,53.6,0,0,0,.64-8,56.07,56.07,0,0,0-56-56,53,53,0,0,0-42.32,21.36A50,50,0,0,0,344,240a47.9,47.9,0,0,0-32.56,12.8,122.76,122.76,0,0,0-16.8-6.8A80.08,80.08,0,0,0,336,176a24.07,24.07,0,0,0,24-24v-8a24.07,24.07,0,0,0-24-24v-2.24A55.85,55.85,0,0,0,360,72V24a8,8,0,0,0-8-8H208a56.07,56.07,0,0,0-56,56V96a32.06,32.06,0,0,0,13.84,26.32A24,24,0,0,0,152,144v8a24.07,24.07,0,0,0,24,24,80.08,80.08,0,0,0,41.36,70,128.52,128.52,0,0,0-85.28,90.4A51.32,51.32,0,0,0,104,328a56.07,56.07,0,0,0-56,56,53.6,53.6,0,0,0,.64,8H48a32,32,0,0,0,0,64H163.28A127.84,127.84,0,0,0,384,368a131.8,131.8,0,0,0-1.12-16H464a32,32,0,0,0,0-64Zm-139-8a108.09,108.09,0,0,1-12.32,8.48,113.1,113.1,0,0,0-14-23.92A111.14,111.14,0,0,1,325,280Zm-61,80V319.6a124.43,124.43,0,0,0,39.76-8.88,194.21,194.21,0,0,1,8,49.28Zm47.76,16a194.21,194.21,0,0,1-8,49.28A124.43,124.43,0,0,0,264,416.4V376Zm-13.44-80.32A111.11,111.11,0,0,1,264,303.6V257.36C277.52,261.44,289.6,275.52,298.32,295.68ZM344,144v8a8,8,0,0,1-8,8V136A8,8,0,0,1,344,144ZM176,160a8,8,0,0,1-8-8v-8a8,8,0,0,1,8-8Zm0-56v5.76A16,16,0,0,1,168,96V72a40,40,0,0,1,40-40H344V72a39.8,39.8,0,0,1-10.24,26.56,7.49,7.49,0,0,0-3.68-2.24L285,84a7.87,7.87,0,0,0-8.88,3.52,37.21,37.21,0,0,1-9,10.16,43.86,43.86,0,0,1-18.24,7.92A58.87,58.87,0,0,0,256,80.72,8,8,0,0,0,248.75,72q-.37,0-.75,0h-8a8,8,0,0,0-3.12.64l-56,24A8,8,0,0,0,176,104Zm37.28,160.56a113.1,113.1,0,0,0-14,23.92A108.09,108.09,0,0,1,187,280,111.14,111.14,0,0,1,213.28,264.56ZM175,290.88a130.59,130.59,0,0,0,18.48,12.72,206.08,206.08,0,0,0-9.28,56.4H144.4A111.36,111.36,0,0,1,175,290.88ZM48,440a16,16,0,0,1,0-32H58.8a8.22,8.22,0,0,0,6.56-3.36,8.09,8.09,0,0,0,1-7.28A41.66,41.66,0,0,1,64,384a40,40,0,0,1,40-40,36.24,36.24,0,0,1,24.8,10.16A130.74,130.74,0,0,0,128,368a127.42,127.42,0,0,0,22.24,72Zm96.4-64h39.84a206.08,206.08,0,0,0,9.28,56.4A130.59,130.59,0,0,0,175,445.12,111.36,111.36,0,0,1,144.4,376ZM187,456a108.09,108.09,0,0,1,12.32-8.48,113.1,113.1,0,0,0,14,23.92A111.14,111.14,0,0,1,187,456Zm61,22.64c-13.52-4.08-25.6-18.16-34.32-38.32A111.11,111.11,0,0,1,248,432.4Zm0-62.24a124.43,124.43,0,0,0-39.76,8.88,194.21,194.21,0,0,1-8-49.28H248Zm0-56.4H200.24a194.21,194.21,0,0,1,8-49.28A124.43,124.43,0,0,0,248,319.6Zm0-56.4a111.11,111.11,0,0,1-34.32-7.92c8.72-20.16,20.8-34.24,34.32-38.32ZM192,176V109.28l46.32-19.84a22.56,22.56,0,0,1-4.16,9.12,39.62,39.62,0,0,1-4.16,3.6,11.1,11.1,0,0,0-5.6,12.24,10.65,10.65,0,0,0,7.6,6.88,57.57,57.57,0,0,0,44.8-10.88,50.66,50.66,0,0,0,9.44-9.52l33.76,9.2V176a64,64,0,0,1-128,0Zm72,302.64V432.4a111.11,111.11,0,0,1,34.32,7.92C289.6,460.48,277.52,474.56,264,478.64Zm34.72-7.2a113.1,113.1,0,0,0,14-23.92A108.09,108.09,0,0,1,325,456,111.14,111.14,0,0,1,298.72,471.44ZM337,445.12a130.59,130.59,0,0,0-18.48-12.72,206.08,206.08,0,0,0,9.28-56.4H367.6A111.36,111.36,0,0,1,337,445.12ZM327.76,360a206.08,206.08,0,0,0-9.28-56.4A130.59,130.59,0,0,0,337,290.88,111.36,111.36,0,0,1,367.6,360ZM464,336H379.76a128.1,128.1,0,0,0-53.12-74.64A31.51,31.51,0,0,1,344,256a35.19,35.19,0,0,1,19.36,6.56,8,8,0,0,0,6.32,1.28,8.44,8.44,0,0,0,5.2-3.68A38.66,38.66,0,0,1,408,240a40,40,0,0,1,40,40,41.66,41.66,0,0,1-2.32,13.36,8.09,8.09,0,0,0,1,7.28A8.22,8.22,0,0,0,453.2,304H464a16,16,0,0,1,0,32Z" transform="translate(-16 -16)"/><rect class="cls-1" x="104" y="128" width="16" height="16"/><path class="cls-1" d="M72,160h32V144H64a8,8,0,0,0-8,8V312H72Z" transform="translate(-16 -16)"/><rect class="cls-1" x="360" y="128" width="16" height="16"/><path class="cls-1" d="M440,216h16V152a8,8,0,0,0-8-8H408v16h32Z" transform="translate(-16 -16)"/></g></svg>