<svg id="Livello_1" data-name="Livello 1" xmlns="http://www.w3.org/2000/svg" viewBox="0 0 504.74 434.42">
  <defs>
    <style>
      .cls-1 {
        fill: #fff;
      }
    </style>
  </defs>
  <title>baf-legal</title>
  <path class="cls-1" d="M497.92,212.13H486.24l-56.78-139,28.65-6.37a14.39,14.39,0,0,0,11.15-17,14.13,14.13,0,0,0-17-11.15L299.43,71.5a50.25,50.25,0,0,0-44.05-26c-26.53,0-47.76,20.7-49.88,46.17L52.66,124.57a14.39,14.39,0,0,0-11.15,17,14.1,14.1,0,0,0,13.8,11.15,6.72,6.72,0,0,0,3.18-.53l19.64-4.25L24.53,280.6H12.85A9.75,9.75,0,0,0,3.3,291.21c5.31,48.29,46.7,86,96.59,86s91.28-37.68,96.59-86a9.49,9.49,0,0,0-9.56-10.61H175.25L117.93,140.49l93.94-20.17a53.7,53.7,0,0,0,22.29,21.23V429.19H151.37a21.76,21.76,0,1,0,0,43.52h208a21.76,21.76,0,1,0,0-43.52H277.14V141a48.47,48.47,0,0,0,28.13-41.39l83.85-18-53.07,130H324.38a9.77,9.77,0,0,0-9.56,10.62c5.31,48.29,46.71,86,96.59,86s91.28-37.68,96.59-86A10.08,10.08,0,0,0,497.92,212.13ZM55.84,280.6,99.89,172.33,143.94,280.6Zm311-68.47,44.05-108.26,44.05,108.26Z" transform="translate(-3.26 -38.29)"/>
</svg>
