<svg id="Livello_1" data-name="Livello 1" xmlns="http://www.w3.org/2000/svg" viewBox="0 0 484.03 484.02">
  <defs>
    <style>
      .cls-1 {
        fill: #fff;
      }
    </style>
  </defs>
  <title>baf-research</title>
  <path class="cls-1" d="M239.7,120.5A119.8,119.8,0,1,0,359.5,240.3,119.82,119.82,0,0,0,239.7,120.5Zm0,223.7A103.9,103.9,0,1,1,343.6,240.3,103.88,103.88,0,0,1,239.7,344.2Z" transform="translate(0.02 -0.6)"/>
  <path class="cls-1" d="M271.7,224.3h-9.5a24.18,24.18,0,0,0-22.5-16h-32a24,24,0,0,0,0,48h9.5a24.18,24.18,0,0,0,22.5,16h32a24,24,0,0,0,0-48Zm-71.9,8a8,8,0,0,1,8-8h32a23.9,23.9,0,0,0-22.5,16h-9.5A8,8,0,0,1,199.8,232.3Zm71.9,24h-32a23.9,23.9,0,0,0,22.5-16h9.5a8,8,0,0,1,0,16Z" transform="translate(0.02 -0.6)"/>
  <path class="cls-1" d="M481.7,425.8l-4.4-4.4a7.85,7.85,0,0,0,2.1-5.3V272.3a8,8,0,0,0-8-8h-82a137.62,137.62,0,0,0,0-47.9h26.1a7.79,7.79,0,0,0,5.7-2.4l55.9-55.9a7.87,7.87,0,0,0,2.3-5.6V8.6a8,8,0,0,0-8-8H327.6a8.15,8.15,0,0,0-6.1,2.8c-19.9,23.2-44.8,49.8-51.3,53.3l-.9.3c-.4.1-.8.3-1.1.4a7.1,7.1,0,0,0-1.4,1,6,6,0,0,0-1.9,2.3,5.68,5.68,0,0,0-1.1,3.8V90.6a137.62,137.62,0,0,0-47.9,0V8.6a8,8,0,0,0-8-8H63.9a8.15,8.15,0,0,0-6.1,2.8C38,26.6,13,53.2,6.5,56.7l-.9.3c-.4.1-.8.3-1.1.4a7.1,7.1,0,0,0-1.4,1c-.3.2-.6.5-.9.7a9.06,9.06,0,0,0-1.1,1.6A5.68,5.68,0,0,0,0,64.5V208.3a8,8,0,0,0,8,8H90a137.62,137.62,0,0,0,0,47.9H63.9a8.15,8.15,0,0,0-6.1,2.8C38,290.3,13,316.9,6.5,320.3l-.9.3c-.4.1-.8.3-1.1.4a7.1,7.1,0,0,0-1.4,1c-.3.2-.6.5-.9.7a9.06,9.06,0,0,0-1.1,1.6A5.68,5.68,0,0,0,0,328.1V472a8,8,0,0,0,8,8H151.8a7.79,7.79,0,0,0,5.7-2.4l55.9-55.9a7.87,7.87,0,0,0,2.3-5.6V390a137.62,137.62,0,0,0,47.9,0v82a8,8,0,0,0,8,8H415.4a7.85,7.85,0,0,0,5.3-2.1l4.4,4.4a8,8,0,0,0,11.3,0l45.2-45.2A7.94,7.94,0,0,0,481.7,425.8Zm-58.2-58.2V331.5l39.9-39.9v116Zm-16-16-9.6-9.6a8.22,8.22,0,0,0-11.3,0l-5.6,5.7-11.5-11.5h38Zm44.6-71.3-39.9,39.9H368.6a154.25,154.25,0,0,0,17.5-39.9Zm11.3-131.2L423.5,189V67.8l39.9-39.9ZM331.3,16.6H452.2L412.3,56.5H294.5C303,48.3,314.8,35.7,331.3,16.6ZM279.6,72.5H407.4V200.3H386A152,152,0,0,0,279.7,94V72.5ZM199.8,94a148.14,148.14,0,0,0-39.9,17.5V67.8l39.9-39.9V94ZM67.6,16.6H188.5L148.6,56.5H30.9C39.4,48.3,51.1,35.7,67.6,16.6ZM16,200.4V72.5H143.8v50.2a151.45,151.45,0,0,0-50.4,77.6H16Zm51.6,79.9H93.4a149.53,149.53,0,0,0,17.5,39.9h-80C39.4,311.9,51.1,299.4,67.6,280.3ZM16,464V336.2H122.1a158.93,158.93,0,0,0,21.7,21.7V464Zm183.8-51.2-39.9,39.9V369.1a154.25,154.25,0,0,0,39.9,17.5v26.2ZM103.9,240.3A135.8,135.8,0,1,1,239.7,376.1C164.7,376.1,104,315.3,103.9,240.3ZM279.6,464V386.6a150.48,150.48,0,0,0,48.9-23.5L347,381.5l-5.7,5.6a8,8,0,0,0,0,11.3l65.5,65.5Zm151.2,1.3-72.5-72.5,5.7-5.6a8,8,0,0,0,0-11.3L341.1,353a150.59,150.59,0,0,0,11.3-11.3l22.9,22.9a8.22,8.22,0,0,0,11.3,0l5.6-5.7,72.5,72.5Z" transform="translate(0.02 -0.6)"/>
</svg>
