<?xml version="1.0" encoding="utf-8"?>
<!-- Generator: Adobe Illustrator 23.0.3, SVG Export Plug-In . SVG Version: 6.00 Build 0)  -->
<svg version="1.1" id="Livello_1" xmlns="http://www.w3.org/2000/svg" xmlns:xlink="http://www.w3.org/1999/xlink" x="0px" y="0px"
	 viewBox="0 0 512 512" style="enable-background:new 0 0 512 512;" xml:space="preserve">
<style type="text/css">
	.st0{fill:#FFFFFF;}
</style>
<path class="st0" d="M312,299c-4.4,0-8-3.6-8-8.1c0-8.9-7.2-16.2-16-16.2c-4.4,0-8-3.6-8-8.1c0-4.5,3.6-8.1,8-8.1
	c17.7,0,32,14.5,32,32.4C320,295.4,316.4,299,312,299z"/>
<path class="st0" d="M288,274.7c-4.4,0-8-3.6-8-8.1v-24.3c0-4.5,3.6-8.1,8-8.1c4.4,0,8,3.6,8,8.1v24.3
	C296,271.1,292.4,274.7,288,274.7z"/>
<path class="st0" d="M200,299c-4.4,0-8-3.6-8-8.1c0-31.3,25.1-56.7,56-56.7c4.4,0,8,3.6,8,8.1c0,4.5-3.6,8.1-8,8.1
	c-22.1,0-40,18.2-40,40.5C208,295.4,204.4,299,200,299z"/>
<path class="st0" d="M288,250.4h-40c-4.4,0-8-3.6-8-8.1c0-4.5,3.6-8.1,8-8.1h40c4.4,0,8,3.6,8,8.1C296,246.8,292.4,250.4,288,250.4z
	"/>
<path class="st0" d="M256,371.9c-44.4,0-62.4-35.4-63.2-36.9c-2-4-0.4-8.9,3.6-10.9c3.9-2,8.7-0.4,10.7,3.6
	c0.6,1.2,14.6,27.9,48.9,27.9c34.7,0,48.7-27.6,48.8-27.9c2-4,6.8-5.6,10.7-3.6c4,2,5.6,6.9,3.6,10.9
	C318.4,336.5,300.4,371.9,256,371.9z"/>
<path class="st0" d="M200,339.5c-4.4,0-8-3.6-8-8.1v-40.5c0-4.5,3.6-8.1,8-8.1s8,3.6,8,8.1v40.5C208,335.9,204.4,339.5,200,339.5z"
	/>
<path class="st0" d="M312,339.5c-4.4,0-8-3.6-8-8.1v-40.5c0-4.5,3.6-8.1,8-8.1s8,3.6,8,8.1v40.5C320,335.9,316.4,339.5,312,339.5z"
	/>
<path class="st0" d="M184,444.7c-4.4,0-8-3.6-8-8.1c0-17.9,14.4-32.4,32-32.4c4.4,0,8,3.6,8,8.1c0,4.5-3.6,8.1-8,8.1
	c-8.8,0-16,7.3-16,16.2C192,441.1,188.4,444.7,184,444.7z"/>
<path class="st0" d="M232,420.5h-24c-4.4,0-8-3.6-8-8.1c0-4.5,3.6-8.1,8-8.1h24c4.4,0,8,3.6,8,8.1C240,416.9,236.4,420.5,232,420.5z
	"/>
<path class="st0" d="M328,444.7c-4.4,0-8-3.6-8-8.1c0-8.9-7.2-16.2-16-16.2c-4.4,0-8-3.6-8-8.1c0-4.5,3.6-8.1,8-8.1
	c17.6,0,32,14.5,32,32.4C336,441.1,332.4,444.7,328,444.7z"/>
<path class="st0" d="M304,420.5h-24c-4.4,0-8-3.6-8-8.1c0-4.5,3.6-8.1,8-8.1h24c4.4,0,8,3.6,8,8.1C312,416.9,308.4,420.5,304,420.5z
	"/>
<path class="st0" d="M232,420.5c-4.4,0-8-3.6-8-8.1v-29.8c0-4.5,3.6-8.1,8-8.1s8,3.6,8,8.1v29.8C240,416.9,236.4,420.5,232,420.5z"
	/>
<path class="st0" d="M280,420.4c-4.4,0-8-3.6-8-8.1v-29.8c0-4.5,3.6-8.1,8-8.1s8,3.6,8,8.1v29.8C288,416.8,284.4,420.4,280,420.4z"
	/>
<path class="st0" d="M256,396.1c-35.3,0-64-29.1-64-64.8c0-4.5,3.6-8.1,8-8.1s8,3.6,8,8.1c0,26.8,21.5,48.6,48,48.6s48-21.8,48-48.6
	c0-4.5,3.6-8.1,8-8.1s8,3.6,8,8.1C320,367,291.3,396.1,256,396.1z"/>
<path class="st0" d="M280,420.4h-48c-4.4,0-8-3.6-8-8.1c0-4.5,3.6-8.1,8-8.1h48c4.4,0,8,3.6,8,8.1C288,416.8,284.4,420.4,280,420.4z
	"/>
<path class="st0" d="M144,461c-4.4,0-8-3.6-8-8.1V380c0-4.5,3.6-8.1,8-8.1c4.4,0,8,3.6,8,8.1v72.9C152,457.3,148.4,461,144,461z"/>
<path class="st0" d="M144,388.1c-2.6,0-5.1-1.3-6.7-3.6c-2.5-3.7-1.5-8.7,2.2-11.2l24-16.2c3.7-2.5,8.6-1.5,11.1,2.2
	c2.5,3.7,1.5,8.7-2.2,11.2l-24,16.2C147.1,387.6,145.5,388.1,144,388.1z"/>
<path class="st0" d="M64,193.7c-13.2,0-24-10.9-24-24.3c0-13.4,10.8-24.3,24-24.3s24,10.9,24,24.3C88,182.8,77.2,193.7,64,193.7z
	 M64,161.3c-4.4,0-8,3.6-8,8.1c0,4.5,3.6,8.1,8,8.1s8-3.6,8-8.1C72,164.9,68.4,161.3,64,161.3z"/>
<path class="st0" d="M88,218c-4.4,0-8-3.6-8-8.1c0-8.9-7.2-16.2-16-16.2s-16,7.3-16,16.2c0,4.5-3.6,8.1-8,8.1s-8-3.6-8-8.1
	c0-17.9,14.4-32.4,32-32.4s32,14.5,32,32.4C96,214.4,92.4,218,88,218z"/>
<path class="st0" d="M128,193.7c-13.2,0-24-10.9-24-24.3c0-13.4,10.8-24.3,24-24.3s24,10.9,24,24.3C152,182.8,141.2,193.7,128,193.7
	z M128,161.3c-4.4,0-8,3.6-8,8.1c0,4.5,3.6,8.1,8,8.1s8-3.6,8-8.1C136,164.9,132.4,161.3,128,161.3z"/>
<path class="st0" d="M152,218c-4.4,0-8-3.6-8-8.1c0-8.9-7.2-16.2-16-16.2s-16,7.3-16,16.2c0,4.5-3.6,8.1-8,8.1c-4.4,0-8-3.6-8-8.1
	c0-17.9,14.4-32.4,32-32.4s32,14.5,32,32.4C160,214.4,156.4,218,152,218z"/>
<path class="st0" d="M192,193.7c-13.2,0-24-10.9-24-24.3c0-13.4,10.8-24.3,24-24.3s24,10.9,24,24.3C216,182.8,205.2,193.7,192,193.7
	z M192,161.3c-4.4,0-8,3.6-8,8.1c0,4.5,3.6,8.1,8,8.1s8-3.6,8-8.1C200,164.9,196.4,161.3,192,161.3z"/>
<path class="st0" d="M216,218c-4.4,0-8-3.6-8-8.1c0-8.9-7.2-16.2-16-16.2s-16,7.3-16,16.2c0,4.5-3.6,8.1-8,8.1s-8-3.6-8-8.1
	c0-17.9,14.4-32.4,32-32.4s32,14.5,32,32.4C224,214.4,220.4,218,216,218z"/>
<path class="st0" d="M256,193.7c-13.2,0-24-10.9-24-24.3c0-13.4,10.8-24.3,24-24.3s24,10.9,24,24.3C280,182.8,269.2,193.7,256,193.7
	z M256,161.3c-4.4,0-8,3.6-8,8.1c0,4.5,3.6,8.1,8,8.1s8-3.6,8-8.1C264,164.9,260.4,161.3,256,161.3z"/>
<path class="st0" d="M280,218c-4.4,0-8-3.6-8-8.1c0-8.9-7.2-16.2-16-16.2s-16,7.3-16,16.2c0,4.5-3.6,8.1-8,8.1s-8-3.6-8-8.1
	c0-17.9,14.4-32.4,32-32.4s32,14.5,32,32.4C288,214.4,284.4,218,280,218z"/>
<path class="st0" d="M320,193.7c-13.2,0-24-10.9-24-24.3c0-13.4,10.8-24.3,24-24.3s24,10.9,24,24.3C344,182.8,333.2,193.7,320,193.7
	z M320,161.3c-4.4,0-8,3.6-8,8.1c0,4.5,3.6,8.1,8,8.1s8-3.6,8-8.1C328,164.9,324.4,161.3,320,161.3z"/>
<path class="st0" d="M344,218c-4.4,0-8-3.6-8-8.1c0-8.9-7.2-16.2-16-16.2s-16,7.3-16,16.2c0,4.5-3.6,8.1-8,8.1s-8-3.6-8-8.1
	c0-17.9,14.4-32.4,32-32.4s32,14.5,32,32.4C352,214.4,348.4,218,344,218z"/>
<path class="st0" d="M384,193.7c-13.2,0-24-10.9-24-24.3c0-13.4,10.8-24.3,24-24.3s24,10.9,24,24.3C408,182.8,397.2,193.7,384,193.7
	z M384,161.3c-4.4,0-8,3.6-8,8.1c0,4.5,3.6,8.1,8,8.1s8-3.6,8-8.1C392,164.9,388.4,161.3,384,161.3z"/>
<path class="st0" d="M408,218c-4.4,0-8-3.6-8-8.1c0-8.9-7.2-16.2-16-16.2s-16,7.3-16,16.2c0,4.5-3.6,8.1-8,8.1s-8-3.6-8-8.1
	c0-17.9,14.4-32.4,32-32.4s32,14.5,32,32.4C416,214.4,412.4,218,408,218z"/>
<path class="st0" d="M448,193.7c-13.2,0-24-10.9-24-24.3c0-13.4,10.8-24.3,24-24.3s24,10.9,24,24.3C472,182.8,461.2,193.7,448,193.7
	z M448,161.3c-4.4,0-8,3.6-8,8.1c0,4.5,3.6,8.1,8,8.1s8-3.6,8-8.1C456,164.9,452.4,161.3,448,161.3z"/>
<path class="st0" d="M472,218c-4.4,0-8-3.6-8-8.1c0-8.9-7.2-16.2-16-16.2s-16,7.3-16,16.2c0,4.5-3.6,8.1-8,8.1s-8-3.6-8-8.1
	c0-17.9,14.4-32.4,32-32.4s32,14.5,32,32.4C480,214.4,476.4,218,472,218z"/>
<path class="st0" d="M32,282.8c-13.2,0-24-10.9-24-24.3c0-13.4,10.8-24.3,24-24.3c13.2,0,24,10.9,24,24.3
	C56,271.9,45.3,282.8,32,282.8z M32,250.4c-4.4,0-8,3.6-8,8.1c0,4.5,3.6,8.1,8,8.1c4.4,0,8-3.6,8-8.1C40,254,36.4,250.4,32,250.4z"
	/>
<path class="st0" d="M56,307.1c-4.4,0-8-3.6-8-8.1c0-8.9-7.2-16.2-16-16.2S16,290,16,299c0,4.5-3.6,8.1-8,8.1c-4.4,0-8-3.6-8-8.1
	c0-17.9,14.4-32.4,32-32.4s32,14.5,32,32.4C64,303.5,60.5,307.1,56,307.1z"/>
<path class="st0" d="M96,282.8c-13.2,0-24-10.9-24-24.3c0-13.4,10.8-24.3,24-24.3c13.2,0,24,10.9,24,24.3
	C120,271.9,109.3,282.8,96,282.8z M96,250.4c-4.4,0-8,3.6-8,8.1c0,4.5,3.6,8.1,8,8.1c4.4,0,8-3.6,8-8.1
	C104,254,100.4,250.4,96,250.4z"/>
<path class="st0" d="M120,307.1c-4.4,0-8-3.6-8-8.1c0-8.9-7.2-16.2-16-16.2S80,290,80,299c0,4.5-3.6,8.1-8,8.1c-4.4,0-8-3.6-8-8.1
	c0-17.9,14.4-32.4,32-32.4s32,14.5,32,32.4C128,303.5,124.4,307.1,120,307.1z"/>
<path class="st0" d="M160,282.8c-13.2,0-24-10.9-24-24.3c0-13.4,10.8-24.3,24-24.3c13.2,0,24,10.9,24,24.3
	C184,271.9,173.3,282.8,160,282.8z M160,250.4c-4.4,0-8,3.6-8,8.1c0,4.5,3.6,8.1,8,8.1c4.4,0,8-3.6,8-8.1
	C168,254,164.4,250.4,160,250.4z"/>
<path class="st0" d="M184,307.1c-4.4,0-8-3.6-8-8.1c0-8.9-7.2-16.2-16-16.2s-16,7.3-16,16.2c0,4.5-3.6,8.1-8,8.1c-4.4,0-8-3.6-8-8.1
	c0-17.9,14.4-32.4,32-32.4s32,14.5,32,32.4C192,303.5,188.4,307.1,184,307.1z"/>
<path class="st0" d="M352,282.8c-13.2,0-24-10.9-24-24.3c0-13.4,10.8-24.3,24-24.3c13.2,0,24,10.9,24,24.3
	C376,271.9,365.2,282.8,352,282.8z M352,250.4c-4.4,0-8,3.6-8,8.1c0,4.5,3.6,8.1,8,8.1c4.4,0,8-3.6,8-8.1
	C360,254,356.4,250.4,352,250.4z"/>
<path class="st0" d="M376,307.1c-4.4,0-8-3.6-8-8.1c0-8.9-7.2-16.2-16-16.2s-16,7.3-16,16.2c0,4.5-3.6,8.1-8,8.1c-4.4,0-8-3.6-8-8.1
	c0-17.9,14.4-32.4,32-32.4c17.6,0,32,14.5,32,32.4C384,303.5,380.4,307.1,376,307.1z"/>
<path class="st0" d="M416,282.8c-13.2,0-24-10.9-24-24.3c0-13.4,10.8-24.3,24-24.3c13.2,0,24,10.9,24,24.3
	C440,271.9,429.2,282.8,416,282.8z M416,250.4c-4.4,0-8,3.6-8,8.1c0,4.5,3.6,8.1,8,8.1c4.4,0,8-3.6,8-8.1
	C424,254,420.4,250.4,416,250.4z"/>
<path class="st0" d="M440,307.1c-4.4,0-8-3.6-8-8.1c0-8.9-7.2-16.2-16-16.2s-16,7.3-16,16.2c0,4.5-3.6,8.1-8,8.1c-4.4,0-8-3.6-8-8.1
	c0-17.9,14.4-32.4,32-32.4c17.6,0,32,14.5,32,32.4C448,303.5,444.4,307.1,440,307.1z"/>
<path class="st0" d="M480,282.8c-13.2,0-24-10.9-24-24.3c0-13.4,10.8-24.3,24-24.3c13.2,0,24,10.9,24,24.3
	C504,271.9,493.2,282.8,480,282.8z M480,250.4c-4.4,0-8,3.6-8,8.1c0,4.5,3.6,8.1,8,8.1c4.4,0,8-3.6,8-8.1
	C488,254,484.4,250.4,480,250.4z"/>
<path class="st0" d="M504,307.1c-4.4,0-8-3.6-8-8.1c0-8.9-7.2-16.2-16-16.2s-16,7.3-16,16.2c0,4.5-3.6,8.1-8,8.1c-4.4,0-8-3.6-8-8.1
	c0-17.9,14.4-32.4,32-32.4c17.6,0,32,14.5,32,32.4C512,303.5,508.4,307.1,504,307.1z"/>
<path class="st0" d="M184,307.1H8c-4.4,0-8-3.6-8-8.1c0-4.5,3.6-8.1,8-8.1h176c4.4,0,8,3.6,8,8.1C192,303.5,188.4,307.1,184,307.1z"
	/>
<path class="st0" d="M96,104.6c-13.2,0-24-10.9-24-24.3S82.8,56,96,56c13.2,0,24,10.9,24,24.3S109.3,104.6,96,104.6z M96,72.2
	c-4.4,0-8,3.6-8,8.1c0,4.5,3.6,8.1,8,8.1c4.4,0,8-3.6,8-8.1C104,75.9,100.4,72.2,96,72.2z"/>
<path class="st0" d="M120,128.9c-4.4,0-8-3.6-8-8.1c0-8.9-7.2-16.2-16-16.2s-16,7.3-16,16.2c0,4.5-3.6,8.1-8,8.1c-4.4,0-8-3.6-8-8.1
	c0-17.9,14.4-32.4,32-32.4s32,14.5,32,32.4C128,125.3,124.4,128.9,120,128.9z"/>
<path class="st0" d="M160,104.6c-13.2,0-24-10.9-24-24.3S146.8,56,160,56c13.2,0,24,10.9,24,24.3S173.3,104.6,160,104.6z M160,72.2
	c-4.4,0-8,3.6-8,8.1c0,4.5,3.6,8.1,8,8.1c4.4,0,8-3.6,8-8.1C168,75.9,164.4,72.2,160,72.2z"/>
<path class="st0" d="M184,128.9c-4.4,0-8-3.6-8-8.1c0-8.9-7.2-16.2-16-16.2s-16,7.3-16,16.2c0,4.5-3.6,8.1-8,8.1c-4.4,0-8-3.6-8-8.1
	c0-17.9,14.4-32.4,32-32.4s32,14.5,32,32.4C192,125.3,188.4,128.9,184,128.9z"/>
<path class="st0" d="M224,104.6c-13.2,0-24-10.9-24-24.3S210.8,56,224,56c13.2,0,24,10.9,24,24.3S237.3,104.6,224,104.6z M224,72.2
	c-4.4,0-8,3.6-8,8.1c0,4.5,3.6,8.1,8,8.1c4.4,0,8-3.6,8-8.1C232,75.9,228.4,72.2,224,72.2z"/>
<path class="st0" d="M248,128.9c-4.4,0-8-3.6-8-8.1c0-8.9-7.2-16.2-16-16.2s-16,7.3-16,16.2c0,4.5-3.6,8.1-8,8.1c-4.4,0-8-3.6-8-8.1
	c0-17.9,14.4-32.4,32-32.4s32,14.5,32,32.4C256,125.3,252.4,128.9,248,128.9z"/>
<path class="st0" d="M288,104.6c-13.2,0-24-10.9-24-24.3S274.8,56,288,56c13.2,0,24,10.9,24,24.3S301.2,104.6,288,104.6z M288,72.2
	c-4.4,0-8,3.6-8,8.1c0,4.5,3.6,8.1,8,8.1c4.4,0,8-3.6,8-8.1C296,75.9,292.4,72.2,288,72.2z"/>
<path class="st0" d="M312,128.9c-4.4,0-8-3.6-8-8.1c0-8.9-7.2-16.2-16-16.2s-16,7.3-16,16.2c0,4.5-3.6,8.1-8,8.1c-4.4,0-8-3.6-8-8.1
	c0-17.9,14.4-32.4,32-32.4c17.6,0,32,14.5,32,32.4C320,125.3,316.4,128.9,312,128.9z"/>
<path class="st0" d="M352,104.6c-13.2,0-24-10.9-24-24.3S338.8,56,352,56c13.2,0,24,10.9,24,24.3S365.2,104.6,352,104.6z M352,72.2
	c-4.4,0-8,3.6-8,8.1c0,4.5,3.6,8.1,8,8.1c4.4,0,8-3.6,8-8.1C360,75.9,356.4,72.2,352,72.2z"/>
<path class="st0" d="M376,128.9c-4.4,0-8-3.6-8-8.1c0-8.9-7.2-16.2-16-16.2s-16,7.3-16,16.2c0,4.5-3.6,8.1-8,8.1c-4.4,0-8-3.6-8-8.1
	c0-17.9,14.4-32.4,32-32.4c17.6,0,32,14.5,32,32.4C384,125.3,380.4,128.9,376,128.9z"/>
<path class="st0" d="M416,104.6c-13.2,0-24-10.9-24-24.3S402.8,56,416,56c13.2,0,24,10.9,24,24.3S429.2,104.6,416,104.6z M416,72.2
	c-4.4,0-8,3.6-8,8.1c0,4.5,3.6,8.1,8,8.1c4.4,0,8-3.6,8-8.1C424,75.9,420.4,72.2,416,72.2z"/>
<path class="st0" d="M440,128.9c-4.4,0-8-3.6-8-8.1c0-8.9-7.2-16.2-16-16.2s-16,7.3-16,16.2c0,4.5-3.6,8.1-8,8.1c-4.4,0-8-3.6-8-8.1
	c0-17.9,14.4-32.4,32-32.4c17.6,0,32,14.5,32,32.4C448,125.3,444.4,128.9,440,128.9z"/>
<path class="st0" d="M440,128.9H72c-4.4,0-8-3.6-8-8.1c0-4.5,3.6-8.1,8-8.1h368c4.4,0,8,3.6,8,8.1C448,125.3,444.4,128.9,440,128.9z
	"/>
<path class="st0" d="M472,218H40c-4.4,0-8-3.6-8-8.1c0-4.5,3.6-8.1,8-8.1h432c4.4,0,8,3.6,8,8.1C480,214.4,476.4,218,472,218z"/>
<path class="st0" d="M184,461c-4.4,0-8-3.6-8-8.1v-16.2c0-4.5,3.6-8.1,8-8.1s8,3.6,8,8.1v16.2C192,457.3,188.4,461,184,461z"/>
<path class="st0" d="M328,461c-4.4,0-8-3.6-8-8.1v-16.2c0-4.5,3.6-8.1,8-8.1s8,3.6,8,8.1v16.2C336,457.3,332.4,461,328,461z"/>
<path class="st0" d="M432,461h-80c-4.4,0-8-3.6-8-8.1c0-4.5,3.6-8.1,8-8.1h80c4.4,0,8,3.6,8,8.1C440,457.3,436.4,461,432,461z"/>
<path class="st0" d="M376,461c-4.4,0-8-3.6-8-8.1v-56.7c0-4.5,3.6-8.1,8-8.1s8,3.6,8,8.1v56.7C384,457.3,380.4,461,376,461z"/>
<path class="st0" d="M408,461c-4.4,0-8-3.6-8-8.1v-56.7c0-4.5,3.6-8.1,8-8.1s8,3.6,8,8.1v56.7C416,457.3,412.4,461,408,461z"/>
<path class="st0" d="M408,404.3h-32c-4.4,0-8-3.6-8-8.1c0-4.5,3.6-8.1,8-8.1h32c4.4,0,8,3.6,8,8.1C416,400.6,412.4,404.3,408,404.3z
	"/>
<path class="st0" d="M408,428.6h-32c-4.4,0-8-3.6-8-8.1c0-4.5,3.6-8.1,8-8.1h32c4.4,0,8,3.6,8,8.1C416,424.9,412.4,428.6,408,428.6z
	"/>
<path class="st0" d="M504,307.1H328c-4.4,0-8-3.6-8-8.1c0-4.5,3.6-8.1,8-8.1h176c4.4,0,8,3.6,8,8.1C512,303.5,508.4,307.1,504,307.1
	z"/>
</svg>
