<?xml version="1.0" encoding="utf-8"?>
<!-- Generator: Adobe Illustrator 23.0.3, SVG Export Plug-In . SVG Version: 6.00 Build 0)  -->
<svg version="1.1" id="Livello_1" xmlns="http://www.w3.org/2000/svg" xmlns:xlink="http://www.w3.org/1999/xlink" x="0px" y="0px"
	 viewBox="0 0 500 500" style="enable-background:new 0 0 500 500;" xml:space="preserve">
<style type="text/css">
	.st0{fill:#FFFFFF;}
</style>
<path class="st0" d="M179.7,325.8c-4.6-1.6-8.9-4.3-12.3-7.7l-16.8-16.8l-5.7-19.4c-2.9-10.9-12.1-18.9-23.2-20.5l-0.7-2.2
	c0,0,0-0.1,0-0.1c-2.8-8.6-11.9-14.3-21.3-14.2c-4-13-17.4-20.6-30.6-17.3c-3.1,0.8-5,3.8-4.5,6.9l18.7,100.7
	c0.1,0.3,0.1,0.6,0.2,0.8c4.5,13.2,13.1,24.7,24.6,32.7l40.8,28.1c0.1,0.1,0.2,0.1,0.3,0.2c2.6,1.6,4.6,4.1,5.4,7l6.8,30.3
	c0.1,0.6,0.4,1.1,0.7,1.6l-7.2,5.5c-1.5,1.1-2.4,2.9-2.4,4.8V494c0,2.2,1.2,4.2,3.2,5.3c1.9,1,4.3,0.9,6.1-0.3l75.6-50
	c1.7-1.1,2.7-3,2.7-5v-55.7c0-2.3-1.3-4.4-3.3-5.4c-2-1-4.5-0.8-6.3,0.6l-6.8,5.2c-0.1-0.7-0.2-1.4-0.2-2.2l-0.6-10.8
	c0-0.2,0-0.3-0.1-0.5c-3.1-22.3-18.4-40.9-39.7-48.3L179.7,325.8z M133.3,285.1c0,0.1,0,0.1,0,0.2l0.9,3.2c-1.6-0.6-3.3-1.1-5-1.5
	l-3.5-11.6C129.5,277.4,132.2,281,133.3,285.1z M109.5,262.7l7.3,24.3c-1.4,0.3-2.8,0.7-4.2,1.2l-9.2-30.8
	C106.2,258.3,108.6,260.2,109.5,262.7L109.5,262.7z M228.3,440.8l-63.6,42v-33.7l63.6-48.7L228.3,440.8z M211,376.7l0.6,10.6
	c0.2,3.2,0.8,6.4,1.8,9.4l-41,31.4l-6.1-26.9c0-0.1,0-0.2-0.1-0.3c-1.6-5.9-5.5-10.9-10.7-14l-40.7-28c-9.2-6.4-16.2-15.6-19.9-26.3
	L77.6,239c5,0.9,9.1,4.6,10.6,9.5l13.1,43.7l0.8,2.7c-0.1,0.1-0.2,0.2-0.3,0.2c-1.2,1.2-1.8,2.7-1.8,4.4c0,1.6,0.7,3.2,2,4.3
	l20.5,18.7c5.9,5.4,11.3,11.3,16.1,17.6c2,2.6,5.8,3.2,8.4,1.2c2.6-2,3.2-5.8,1.2-8.4c-5.3-6.9-11.1-13.4-17.6-19.3l-15-13.7
	c6.9-3.1,15-1.7,20.4,3.7l23,23c4.8,4.7,10.5,8.4,16.9,10.6l3.5,1.2C196.2,344.2,208.4,359,211,376.7z"/>
<path class="st0" d="M277.7,375.8l-0.6,10.8c0,0.7-0.1,1.4-0.2,2.2l-6.8-5.2c-1.8-1.4-4.3-1.6-6.3-0.6c-2,1-3.3,3.1-3.3,5.4V444
	c0,2,1,3.9,2.7,5l75.6,50c1.8,1.2,4.2,1.3,6.1,0.3c1.9-1,3.2-3.1,3.2-5.3v-47.8c0-1.9-0.9-3.6-2.4-4.8l-7.2-5.5
	c0.3-0.5,0.5-1.1,0.7-1.6L346,404c0.9-2.9,2.8-5.4,5.4-7c0.1-0.1,0.2-0.1,0.3-0.2l40.9-28.2c11.5-8,20.1-19.4,24.6-32.7
	c0.1-0.3,0.2-0.5,0.2-0.8l18.7-100.6c0.6-3.1-1.4-6.2-4.5-6.9c-13.2-3.3-26.6,4.3-30.6,17.3c-9.5-0.1-18.5,5.6-21.3,14.2
	c0,0,0,0.1,0,0.1l-0.7,2.2c-11.1,1.6-20.3,9.6-23.2,20.5l-5.7,19.4l-16.8,16.8c-3.5,3.5-7.7,6.1-12.3,7.7l-3.5,1.2
	c-21.3,7.3-36.6,26-39.7,48.3C277.7,375.5,277.7,375.6,277.7,375.8z M336.1,482.9l-63.6-42v-40.4l63.6,48.7V482.9z M391.2,262.7
	c0.9-2.5,3.3-4.5,6.2-5.4l-9.2,30.8c-1.4-0.5-2.8-0.9-4.2-1.2L391.2,262.7z M367.4,285.1c1.1-4.1,3.8-7.6,7.5-9.8l-3.5,11.6
	c-1.7,0.4-3.4,0.9-5,1.5l0.9-3.2C367.4,285.2,367.4,285.1,367.4,285.1z M289.7,376.7c2.5-17.7,14.8-32.5,31.7-38.4l3.5-1.2
	c6.3-2.2,12.1-5.8,16.9-10.6l23-23c5.4-5.4,13.5-6.8,20.4-3.7l-15,13.7c-6.4,5.9-12.3,12.3-17.6,19.3c-2,2.6-1.5,6.4,1.2,8.4
	c2.6,2,6.4,1.5,8.4-1.2c4.8-6.4,10.2-12.3,16.1-17.6l20.5-18.7c1.2-1.1,1.9-2.7,2-4.3c0-1.6-0.6-3.2-1.8-4.4
	c-0.1-0.1-0.2-0.2-0.3-0.2l0.8-2.7l13.1-43.7c1.5-4.9,5.5-8.6,10.6-9.5l-17.4,93.5c-3.7,10.6-10.7,19.8-19.9,26.2l-40.7,28
	c-5.2,3.2-9,8.2-10.7,14c0,0.1-0.1,0.2-0.1,0.3l-6.1,26.9l-41-31.4c1-3.1,1.6-6.2,1.8-9.4L289.7,376.7z"/>
<path class="st0" d="M250.2,263.9c3.3,0,6-2.7,6-6v-19.7c0-3.3-2.7-6-6-6c-3.3,0-6,2.7-6,6v19.7
	C244.2,261.2,246.8,263.9,250.2,263.9z"/>
<path class="st0" d="M244.2,312.9c0,3.3,2.7,6,6,6c3.3,0,6-2.7,6-6v-33.1c0-3.3-2.7-6-6-6c-3.3,0-6,2.7-6,6V312.9z"/>
<path class="st0" d="M298.7,223.9c3.3,0,6-2.7,6-6v-9.8c0-3.3-2.7-6-6-6c-3.3,0-6,2.7-6,6v9.8C292.7,221.2,295.3,223.9,298.7,223.9z
	"/>
<path class="st0" d="M292.7,312.9c0,3.3,2.7,6,6,6c3.3,0,6-2.7,6-6v-25c0-3.3-2.7-6-6-6c-3.3,0-6,2.7-6,6V312.9z"/>
<path class="st0" d="M292.7,266.8c0,3.3,2.7,6,6,6c3.3,0,6-2.7,6-6v-28c0-3.3-2.7-6-6-6c-3.3,0-6,2.7-6,6V266.8z"/>
<path class="st0" d="M197.7,277.8c0,3.3,2.7,6,6,6c3.3,0,6-2.7,6-6v-5c0-3.3-2.7-6-6-6c-3.3,0-6,2.7-6,6V277.8z"/>
<path class="st0" d="M203.7,256.9c3.3,0,6-2.7,6-6v-42.7c0-3.3-2.7-6-6-6c-3.3,0-6,2.7-6,6v42.7
	C197.7,254.2,200.4,256.9,203.7,256.9z"/>
<path class="st0" d="M197.7,312.9c0,3.3,2.7,6,6,6c3.3,0,6-2.7,6-6v-13.1c0-3.3-2.7-6-6-6c-3.3,0-6,2.7-6,6V312.9z"/>
<path class="st0" d="M39.7,74h5.8c2.9,16.9,17.6,29.3,34.8,29.4h1.9c2.9,16.9,17.6,29.3,34.8,29.4h39.2
	c4.9,13.8,12.8,26.4,23.1,36.9c0.1,0.1,0.2,0.3,0.3,0.4c0.1,0.1,0.3,0.2,0.4,0.3c38.8,38.4,101.3,38.4,140,0
	c0.1-0.1,0.3-0.2,0.4-0.3c0.1-0.1,0.2-0.3,0.3-0.4c10.3-10.4,18.2-23,23.2-36.9h39.2c17.2,0,31.9-12.4,34.8-29.4h1.9
	c17.2,0,31.9-12.4,34.8-29.4h5.8c19.5,0,35.3-15.8,35.4-35.4c0-3.3-2.7-6-6-6h-92.8c-22.8-0.1-43.5,13.1-53.2,33.6
	c-4.9-13.8-12.8-26.3-23.1-36.7c-0.1-0.1-0.2-0.3-0.3-0.4c-0.1-0.1-0.3-0.2-0.4-0.3c-38.8-38.4-101.3-38.4-140,0
	c-0.1,0.1-0.3,0.2-0.4,0.3c-0.1,0.1-0.2,0.3-0.3,0.4c-10.3,10.4-18.2,22.9-23.1,36.7c-9.7-20.6-30.4-33.7-53.2-33.6H10.3
	c-3.3,0-6,2.7-6,6C4.3,58.2,20.2,74,39.7,74z M184.2,42.1l2.5,2.5c2.3,2.3,6.1,2.3,8.5,0s2.3-6.1,0-8.5l-2.5-2.5
	C207,21,225.1,13.5,244.2,12.2v3.5c0,3.3,2.7,6,6,6c3.3,0,6-2.7,6-6v-3.5c19.1,1.3,37.2,8.8,51.5,21.4l-2.5,2.5
	c-2.3,2.3-2.3,6.1,0,8.5s6.1,2.3,8.5,0l2.5-2.5c12.6,14.4,20.1,32.5,21.4,51.5H334c-3.3,0-6,2.7-6,6s2.7,6,6,6h3.5
	c-1.3,19.1-8.8,37.2-21.4,51.5l-2.5-2.5c-2.3-2.3-6.1-2.3-8.4,0c-2.3,2.3-2.3,6.1,0,8.4l2.5,2.5c-14.4,12.6-32.5,20.1-51.5,21.4
	v-3.5c0-3.3-2.7-6-6-6c-3.3,0-6,2.7-6,6v3.5c-19.1-1.3-37.2-8.8-51.5-21.4l2.5-2.5c2.3-2.4,2.3-6.1,0-8.4c-2.3-2.3-6.1-2.3-8.4,0
	l-2.5,2.5c-12.6-14.4-20.1-32.5-21.4-51.5h3.5c3.3,0,6-2.7,6-6s-2.7-6-6-6h-3.5C164.1,74.5,171.6,56.4,184.2,42.1z M351,83.8
	c3.7-22.6,23.3-39.2,46.2-39.2h86c-2.7,10.2-12,17.4-22.6,17.4h-41.1c-3.3,0-6,2.7-6,6s2.7,6,6,6h23c-2.7,10.2-12,17.4-22.6,17.4
	h-41.1c-3.3,0-6,2.7-6,6c0,3.3,2.7,6,6,6h27c-2.7,10.2-12,17.4-22.6,17.4h-35.8c1.5-7,2.3-14,2.3-21.2c0-2.3-0.1-4.5-0.2-6.8
	L351,83.8z M103.1,44.7c22.9-0.1,42.5,16.5,46.2,39.1l1.5,9c-0.2,2.2-0.2,4.5-0.2,6.8c0,7.1,0.8,14.2,2.3,21.2H117
	c-10.6,0-19.9-7.1-22.6-17.4h27c3.3,0,6-2.7,6-6s-2.7-6-6-6H80.3c-10.6,0-19.9-7.1-22.6-17.4h23c3.3,0,6-2.7,6-6c0-3.3-2.7-6-6-6
	H39.7c-10.6,0-19.9-7.1-22.6-17.4H103.1z"/>
<path class="st0" d="M250.2,172.4c40.2,0,72.8-32.6,72.8-72.9c0-40.2-32.6-72.8-72.8-72.8c-40.2,0-72.8,32.6-72.8,72.8
	C177.4,139.8,209.9,172.4,250.2,172.4z M250.2,38.7c33.6,0,60.9,27.2,60.8,60.9c0,33.6-27.2,60.9-60.9,60.9
	c-33.6,0-60.9-27.2-60.9-60.9C189.3,66,216.6,38.8,250.2,38.7z"/>
<path class="st0" d="M226.8,141.9h7.3v5.9c0,3.3,2.7,6,6,6s6-2.7,6-6v-5.9h5v5.9c0,3.3,2.7,6,6,6c3.3,0,6-2.7,6-6v-6.1
	c9.4-1.4,16.4-9.4,16.4-19V113c0-4.9-1.9-9.6-5.3-13.2c3.4-3.5,5.3-8.3,5.3-13.2V77c0-9.5-7-17.6-16.4-19v-6.7c0-3.3-2.7-6-6-6
	c-3.3,0-6,2.7-6,6v6.4h-5v-6.4c0-3.3-2.7-6-6-6s-6,2.7-6,6v6.4h-7.3c-3.3,0-6,2.7-6,6v72C220.8,139.2,223.5,141.9,226.8,141.9z
	 M267.6,122.7c0,4-3.2,7.2-7.2,7.2h-27.6v-24h27.6c4,0,7.2,3.2,7.2,7.2V122.7z M232.8,69.9h27.6c4,0,7.2,3.2,7.2,7.2v9.6
	c0,4-3.2,7.2-7.2,7.2h-27.6V69.9z"/>
</svg>
