<?xml version="1.0" encoding="utf-8"?>
<!-- Generator: Adobe Illustrator 23.0.3, SVG Export Plug-In . SVG Version: 6.00 Build 0)  -->
<svg version="1.1" id="Livello_1" xmlns="http://www.w3.org/2000/svg" xmlns:xlink="http://www.w3.org/1999/xlink" x="0px" y="0px"
	 viewBox="0 0 400 400" style="enable-background:new 0 0 400 400;" xml:space="preserve">
<style type="text/css">
	.st0{fill:url(#SVGID_1_);}
	.st1{fill:url(#SVGID_2_);}
	.st2{fill:url(#SVGID_3_);}
	.st3{fill:url(#SVGID_4_);}
	.st4{fill:url(#SVGID_5_);}
</style>
<g>
	<linearGradient id="SVGID_1_" gradientUnits="userSpaceOnUse" x1="281.6211" y1="35.9805" x2="351.582" y2="35.9805">
		<stop  offset="0" style="stop-color:#003162"/>
		<stop  offset="0.1651" style="stop-color:#023465"/>
		<stop  offset="0.3066" style="stop-color:#063F6C"/>
		<stop  offset="0.4395" style="stop-color:#0F5179"/>
		<stop  offset="0.5672" style="stop-color:#1A6A8C"/>
		<stop  offset="0.691" style="stop-color:#298AA4"/>
		<stop  offset="0.8121" style="stop-color:#3CB1C1"/>
		<stop  offset="0.9286" style="stop-color:#51DFE3"/>
		<stop  offset="1" style="stop-color:#60FFFB"/>
	</linearGradient>
	<path class="st0" d="M351.6,36c0-19.3-15.7-35-35-35s-35,15.7-35,35s15.7,35,35,35S351.6,55.3,351.6,36z M316.6,47.6
		c-6.4,0-11.7-5.2-11.7-11.7s5.2-11.7,11.7-11.7s11.7,5.2,11.7,11.7S323,47.6,316.6,47.6z"/>
	<linearGradient id="SVGID_2_" gradientUnits="userSpaceOnUse" x1="48.418" y1="35.9805" x2="118.3789" y2="35.9805">
		<stop  offset="0" style="stop-color:#003162"/>
		<stop  offset="0.1651" style="stop-color:#023465"/>
		<stop  offset="0.3066" style="stop-color:#063F6C"/>
		<stop  offset="0.4395" style="stop-color:#0F5179"/>
		<stop  offset="0.5672" style="stop-color:#1A6A8C"/>
		<stop  offset="0.691" style="stop-color:#298AA4"/>
		<stop  offset="0.8121" style="stop-color:#3CB1C1"/>
		<stop  offset="0.9286" style="stop-color:#51DFE3"/>
		<stop  offset="1" style="stop-color:#60FFFB"/>
	</linearGradient>
	<path class="st1" d="M118.4,36c0-19.3-15.7-35-35-35s-35,15.7-35,35s15.7,35,35,35S118.4,55.3,118.4,36z M83.4,47.6
		c-6.4,0-11.7-5.2-11.7-11.7S77,24.3,83.4,24.3S95.1,29.6,95.1,36S89.8,47.6,83.4,47.6z"/>
	<linearGradient id="SVGID_3_" gradientUnits="userSpaceOnUse" x1="1" y1="305.3301" x2="399" y2="305.3301">
		<stop  offset="0" style="stop-color:#003162"/>
		<stop  offset="0.1651" style="stop-color:#023465"/>
		<stop  offset="0.3066" style="stop-color:#063F6C"/>
		<stop  offset="0.4395" style="stop-color:#0F5179"/>
		<stop  offset="0.5672" style="stop-color:#1A6A8C"/>
		<stop  offset="0.691" style="stop-color:#298AA4"/>
		<stop  offset="0.8121" style="stop-color:#3CB1C1"/>
		<stop  offset="0.9286" style="stop-color:#51DFE3"/>
		<stop  offset="1" style="stop-color:#60FFFB"/>
	</linearGradient>
	<path class="st2" d="M399,258.3H242.2l-9.3-46.6h-65.8l-9.3,46.6H1v23.3h152.2l-9.4,47.4H95.1v70h209.9v-70h-48.7l-9.4-47.4H399
		V258.3z M186.3,235h27.5l18.7,94.1h-64.9L186.3,235z M281.6,352.4v23.3H118.4v-23.3H281.6z"/>
	<linearGradient id="SVGID_4_" gradientUnits="userSpaceOnUse" x1="255.1896" y1="152.9707" x2="378.0144" y2="152.9707">
		<stop  offset="0" style="stop-color:#003162"/>
		<stop  offset="0.1651" style="stop-color:#023465"/>
		<stop  offset="0.3066" style="stop-color:#063F6C"/>
		<stop  offset="0.4395" style="stop-color:#0F5179"/>
		<stop  offset="0.5672" style="stop-color:#1A6A8C"/>
		<stop  offset="0.691" style="stop-color:#298AA4"/>
		<stop  offset="0.8121" style="stop-color:#3CB1C1"/>
		<stop  offset="0.9286" style="stop-color:#51DFE3"/>
		<stop  offset="1" style="stop-color:#60FFFB"/>
	</linearGradient>
	<path class="st3" d="M281.6,156.1V235h70v-78.9l20.5-30.8C387.6,102.1,370.9,71,343,71h-26.4h-26.4c-27.9,0-44.6,31.2-29.1,54.4
		L281.6,156.1z M290.2,94.3H343c9.3,0,14.9,10.4,9.7,18.1l-24.4,36.6v62.6h-23.3v-62.6l-24.4-36.6
		C275.3,104.7,280.9,94.3,290.2,94.3z"/>
	<linearGradient id="SVGID_5_" gradientUnits="userSpaceOnUse" x1="22.3679" y1="152.9707" x2="144.429" y2="152.9707">
		<stop  offset="0" style="stop-color:#003162"/>
		<stop  offset="0.1651" style="stop-color:#023465"/>
		<stop  offset="0.3066" style="stop-color:#063F6C"/>
		<stop  offset="0.4395" style="stop-color:#0F5179"/>
		<stop  offset="0.5672" style="stop-color:#1A6A8C"/>
		<stop  offset="0.691" style="stop-color:#298AA4"/>
		<stop  offset="0.8121" style="stop-color:#3CB1C1"/>
		<stop  offset="0.9286" style="stop-color:#51DFE3"/>
		<stop  offset="1" style="stop-color:#60FFFB"/>
	</linearGradient>
	<path class="st4" d="M48.4,235h70v-47.4h26.1L128,109.9c-2.6-12.1-10.1-22.7-20.6-29c-5.5-3.3-19-9.9-24-9.9s-18.5,6.5-24,9.9
		c-10.5,6.4-18,17-20.6,29l-16.5,77.7h26.1V235z M61.6,114.7C64,103.8,72.8,99.1,83.4,95c10.6,4.2,19.4,8.8,21.8,19.7l10.5,49.5
		H95.1v47.4H71.7v-47.4H51.1L61.6,114.7z"/>
</g>
</svg>
