<?xml version="1.0" encoding="utf-8"?>
<!-- Generator: Adobe Illustrator 23.0.3, SVG Export Plug-In . SVG Version: 6.00 Build 0)  -->
<svg version="1.1" id="Livello_1" xmlns="http://www.w3.org/2000/svg" xmlns:xlink="http://www.w3.org/1999/xlink" x="0px" y="0px"
	 viewBox="0 0 400 400" style="enable-background:new 0 0 400 400;" xml:space="preserve">
<style type="text/css">
	.st0{fill:url(#SVGID_1_);}
	.st1{fill:url(#SVGID_2_);}
	.st2{fill:url(#SVGID_3_);}
	.st3{fill:url(#SVGID_4_);}
</style>
<g>
	<linearGradient id="SVGID_1_" gradientUnits="userSpaceOnUse" x1="0" y1="293.2599" x2="397" y2="293.2599">
		<stop  offset="0" style="stop-color:#003162"/>
		<stop  offset="0.1627" style="stop-color:#023465"/>
		<stop  offset="0.3039" style="stop-color:#073F6C"/>
		<stop  offset="0.437" style="stop-color:#0F517A"/>
		<stop  offset="0.5653" style="stop-color:#1B6A8C"/>
		<stop  offset="0.6902" style="stop-color:#2A8AA4"/>
		<stop  offset="0.8124" style="stop-color:#3CB2C2"/>
		<stop  offset="0.9303" style="stop-color:#52E0E4"/>
		<stop  offset="0.9988" style="stop-color:#60FFFB"/>
	</linearGradient>
	<path class="st0" d="M197.2,390.3c-13.8,0-27.7-2.8-40.5-8.4l-61.2-26.6c-22.1-9.6-45.6-15.7-69.6-18.1l-20.1-2
		c-3.3-0.3-5.8-3.1-5.8-6.4v-63.1c0-1.4,0.5-2.8,1.3-3.9c1.5-2,37.5-49.1,92.6-36.8c31,6.9,55.9,19.7,71.3,29.3
		c11.2,7,24.4,10.6,38,10.6h61.2c10.5,0,19.8,5.6,25,14l52.7-60.7c10.2-13.6,26.9-22,44.4-22l3.8,0c1.3,0,2.6,0.3,3.7,1
		c2.8,1.8,3.6,5.2,2.4,8l-47.7,108.4c-10.4,23.7-31.6,41.6-56.8,47.9l-8.4,2.1l-48.8,19.5C222.8,387.9,210,390.3,197.2,390.3z
		 M12.7,324.2l14.4,1.2c25.5,2.6,50.4,9,73.9,19.3l61.6,26.8c21.6,9.4,46.6,9.8,68.5,1l49.5-19.8c0.3-0.1,0.6-0.2,0.8-0.3l8.9-2.2
		c21.4-5.4,39.5-20.6,48.3-40.8l43.7-99.4c-11.2,1.6-21.5,7.7-28.4,16.8l-58.7,67.7c0,0.3,0,0.5,0,0.8c0,16.3-29.6,29.9-29.6,29.9
		h-85.4c-11.5,0-22.8,1.8-33.7,5.5l-2.5-6.2l-2.1-6.4l0.3-0.1c12.2-4.1,25-6.1,37.9-6.1h87.3c7.5,0,15.1-5.9,16.6-13.2
		c2.2-10.7-6-20.2-16.4-20.2h-62.2c-16.3,0-32.1-4.4-45.6-12.8c-14.8-9.2-38.7-21.5-68.4-28.1c-42.3-9.4-72.8,23.1-79.3,30.8v55.9
		H12.7z"/>
	<linearGradient id="SVGID_2_" gradientUnits="userSpaceOnUse" x1="215.131" y1="146.5777" x2="306.8921" y2="146.5777">
		<stop  offset="0" style="stop-color:#003162"/>
		<stop  offset="0.1627" style="stop-color:#023465"/>
		<stop  offset="0.3039" style="stop-color:#073F6C"/>
		<stop  offset="0.437" style="stop-color:#0F517A"/>
		<stop  offset="0.5653" style="stop-color:#1B6A8C"/>
		<stop  offset="0.6902" style="stop-color:#2A8AA4"/>
		<stop  offset="0.8124" style="stop-color:#3CB2C2"/>
		<stop  offset="0.9303" style="stop-color:#52E0E4"/>
		<stop  offset="0.9988" style="stop-color:#60FFFB"/>
	</linearGradient>
	<path class="st1" d="M256,195c-10,0-21.2-3.1-33.6-9.3c-1.5-0.8-2.7-2.1-3.2-3.6c-0.5-1.4-12.1-34.9,6.3-59.6
		c13.4-18,38.7-26.1,75.1-24.1c3.3,0.2,6,2.8,6.1,6.2c0.1,2.6,2.8,63.6-28.3,83.9C271.9,192.8,264.4,195,256,195z M230.7,175.3
		c17.1,8,30.8,8.8,40.7,2.3c18.4-12,22.4-47.8,22.5-66.4c-28.5-0.7-48,5.7-57.9,19.1C224.1,146.2,228.7,168.1,230.7,175.3z"/>
	<linearGradient id="SVGID_3_" gradientUnits="userSpaceOnUse" x1="92.8603" y1="60.2061" x2="198.3142" y2="60.2061">
		<stop  offset="0" style="stop-color:#003162"/>
		<stop  offset="0.1627" style="stop-color:#023465"/>
		<stop  offset="0.3039" style="stop-color:#073F6C"/>
		<stop  offset="0.437" style="stop-color:#0F517A"/>
		<stop  offset="0.5653" style="stop-color:#1B6A8C"/>
		<stop  offset="0.6902" style="stop-color:#2A8AA4"/>
		<stop  offset="0.8124" style="stop-color:#3CB2C2"/>
		<stop  offset="0.9303" style="stop-color:#52E0E4"/>
		<stop  offset="0.9988" style="stop-color:#60FFFB"/>
	</linearGradient>
	<path class="st2" d="M156.5,109.7c-11.5,0-24.9-2.5-36.5-11c-19.7-14.4-28.8-41.9-26.9-81.7c0.2-3.3,2.8-6,6.1-6.2
		c2.8-0.2,69.4-3.7,91.9,29.9c10.4,15.7,9.6,36.2-2.5,61c-0.7,1.5-2,2.7-3.6,3.3C184.1,105.4,171.8,109.7,156.5,109.7z M182.7,98.8
		L182.7,98.8L182.7,98.8z M105.9,23.7c-0.6,31.9,6.8,53.6,21.8,64.6c18,13.2,42.6,7.6,50.3,5.3c8.8-19.2,9.6-34.5,2.2-45.6
		C166.5,27.4,126.4,23.4,105.9,23.7z"/>
	<linearGradient id="SVGID_4_" gradientUnits="userSpaceOnUse" x1="132.332" y1="164.3528" x2="272.2017" y2="164.3528">
		<stop  offset="0" style="stop-color:#003162"/>
		<stop  offset="0.1627" style="stop-color:#023465"/>
		<stop  offset="0.3039" style="stop-color:#073F6C"/>
		<stop  offset="0.437" style="stop-color:#0F517A"/>
		<stop  offset="0.5653" style="stop-color:#1B6A8C"/>
		<stop  offset="0.6902" style="stop-color:#2A8AA4"/>
		<stop  offset="0.8124" style="stop-color:#3CB2C2"/>
		<stop  offset="0.9303" style="stop-color:#52E0E4"/>
		<stop  offset="0.9988" style="stop-color:#60FFFB"/>
	</linearGradient>
	<path class="st3" d="M207.3,276.4c-0.2,0-0.4,0-0.6,0c-3.5-0.3-6.1-3.3-5.9-6.8c0.4-7.7,1-14.9,1.9-21.8
		c2.7-46.1,1.3-153.3-66.5-183c-3.3-1.4-4.8-5.3-3.4-8.6c1.4-3.3,5.3-4.8,8.6-3.4c40,17.5,65.1,61,72.7,125.9
		c0.7,5.8,1.2,11.5,1.6,17.1c17.9-45.1,45.2-61.1,46.8-62c3.1-1.8,7.1-0.6,8.9,2.5c1.8,3.1,0.7,7.1-2.5,8.9
		c-0.7,0.4-42.6,25.5-53.1,103.1c-0.8,13.3-2,21.7-2.1,22.5C213.3,274,210.5,276.4,207.3,276.4z"/>
</g>
</svg>
