<?xml version="1.0" encoding="utf-8"?>
<!-- Generator: Adobe Illustrator 23.0.3, SVG Export Plug-In . SVG Version: 6.00 Build 0)  -->
<svg version="1.1" id="Livello_1" xmlns="http://www.w3.org/2000/svg" xmlns:xlink="http://www.w3.org/1999/xlink" x="0px" y="0px"
	 viewBox="0 0 100 100" style="enable-background:new 0 0 100 100;" xml:space="preserve">
<style type="text/css">
	.st0{fill:#FFFFFF;}
</style>
<path class="st0" d="M86.1,14.3v58.4H19.9V11.9h64.2C85.2,11.9,86.1,13,86.1,14.3z"/>
<g>
	<path class="st0" d="M18.9,23.7h0.3c0.6,0,1,0.5,1,1.1V40c0,0.6,0.4,1.1,1,1.1h0.2c0.6,0,1-0.5,1-1.1V22.5c0-0.6-0.4-1.1-1-1.1
		h-2.5c-0.6,0-1,0.5-1,1.1S18.4,23.7,18.9,23.7z"/>
	<path class="st0" d="M33,21.1c-4.8,0-6.1,4.3-6.1,10c0,5.7,1.3,10.1,6.1,10.1c4.8,0,6-4.3,6-10.1C39.1,25.4,37.8,21.1,33,21.1z
		 M33,38.9c-3.4,0-3.9-3.5-3.9-7.8c0-4.1,0.5-7.7,3.9-7.7c3.4,0,3.9,3.6,3.9,7.7C36.9,35.3,36.4,38.9,33,38.9z"/>
	<path class="st0" d="M43.3,23.7h0.3c0.6,0,1,0.5,1,1.1V40c0,0.6,0.4,1.1,1,1.1h0.2c0.6,0,1-0.5,1-1.1V22.5c0-0.6-0.4-1.1-1-1.1
		h-2.5c-0.6,0-1,0.5-1,1.1S42.7,23.7,43.3,23.7z"/>
	<path class="st0" d="M22.9,45.6c-4.8,0-6.1,4.3-6.1,10c0,5.7,1.3,10.1,6.1,10.1c4.8,0,6-4.3,6-10.1C29,50,27.7,45.6,22.9,45.6z
		 M22.9,63.4c-3.4,0-3.9-3.5-3.9-7.8c0-4.1,0.5-7.7,3.9-7.7c3.4,0,3.9,3.6,3.9,7.7C26.8,59.9,26.3,63.4,22.9,63.4z"/>
	<path class="st0" d="M34.3,45.9h-2.5c-0.6,0-1,0.5-1,1.1c0,0.6,0.4,1.1,1,1.1h0.3c0.6,0,1,0.5,1,1.1v15.2c0,0.6,0.4,1.1,1,1.1h0.2
		c0.6,0,1-0.5,1-1.1V47.1C35.3,46.5,34.9,45.9,34.3,45.9z"/>
	<path class="st0" d="M44.5,45.6c-4.8,0-6.1,4.3-6.1,10c0,5.7,1.3,10.1,6.1,10.1c4.8,0,6-4.3,6-10.1C50.6,50,49.3,45.6,44.5,45.6z
		 M44.5,63.4c-3.4,0-3.9-3.5-3.9-7.8c0-4.1,0.5-7.7,3.9-7.7c3.4,0,3.9,3.6,3.9,7.7C48.4,59.9,47.9,63.4,44.5,63.4z"/>
	<path class="st0" d="M96.8,72.1h-5.6V16.8c0-4.8-3.5-8.8-7.7-8.8h-67c-4.3,0-7.7,3.9-7.7,8.8v55.3H3.2c-1.8,0-3.2,1.6-3.2,3.6v2.1
		c0,5,3.6,9.1,8,9.1H92c4.4,0,8-4.1,8-9.1v-2.1C100,73.7,98.6,72.1,96.8,72.1z M10.4,16.8c0-3.8,2.8-7,6.1-7h67c3.4,0,6.1,3.1,6.1,7
		v55.3h-2.7V16c0-1.7-1.2-3.2-2.8-3.2H15.9c-1.5,0-2.8,1.4-2.8,3.2v56.1h-2.7V16.8z M14.7,72.1V16c0-0.7,0.5-1.4,1.2-1.4h68.3
		c0.7,0,1.2,0.6,1.2,1.4v56.1H14.7z M60.4,73.9v1.4c0,1.8-1.3,3.3-2.9,3.3H42.5c-1.6,0-2.9-1.5-2.9-3.3v-1.4H60.4z M98.4,77.9
		c0,4-2.9,7.3-6.5,7.3H8c-3.6,0-6.5-3.3-6.5-7.3v-2.1c0-1,0.7-1.8,1.6-1.8H38v1.4c0,2.8,2,5.1,4.5,5.1h14.9c2.5,0,4.5-2.3,4.5-5.1
		v-1.4h34.8c0.9,0,1.6,0.8,1.6,1.8L98.4,77.9L98.4,77.9z"/>
	<path class="st0" d="M82.6,28.5H77v-2.7c1.5,0,2.7-1.4,2.7-3.2v-1.8c0-1.7-1.3-3.2-2.8-3.2H55.8c-1.5,0-2.8,1.4-2.8,3.2v1.8
		c0,1.7,1.2,3.1,2.7,3.2v2.7h-5.6c-0.4,0-0.7,0.3-0.8,0.8c-0.1,0.4-1.2,9,8.4,16c0.8,1.3,1.9,2.4,3.1,3.2c0.3,3.2,0.1,7.8-2.5,12.6
		C57,61.4,56,62.7,56,64.2v0.5c0,1.7,1.3,3.2,2.8,3.2h15.1c1.5,0,2.8-1.4,2.8-3.2v-0.5c0-1.6-1-2.9-2.3-3.1
		c-2.6-4.8-2.8-9.4-2.5-12.6c1.2-0.8,2.3-2,3.1-3.3c9.6-7,8.4-15.6,8.4-16C83.3,28.8,83,28.5,82.6,28.5z M54.6,22.7v-1.8
		c0-0.7,0.5-1.4,1.2-1.4h21.1c0.7,0,1.2,0.6,1.2,1.4v1.8c0,0.7-0.5,1.4-1.2,1.4c-4,0-17,0-21.1,0C55.2,24,54.6,23.4,54.6,22.7z
		 M50.9,30.3h4.9v7.9c0,1.2,0.2,2.4,0.5,3.5C51.3,37,50.8,32.2,50.9,30.3z M75.1,64.2v0.5c0,0.7-0.5,1.4-1.2,1.4H58.8
		c-0.7,0-1.2-0.6-1.2-1.4v-0.5c0-0.7,0.5-1.4,1.2-1.4h15.1C74.6,62.9,75.1,63.5,75.1,64.2z M72.5,61.1H60.2
		c2.1-4.3,2.5-8.5,2.3-11.6c2.5,1.1,5.3,1.1,7.7,0C70.1,52.6,70.5,56.7,72.5,61.1z M75.4,38.2c0,5.6-4,10.2-9,10.2s-9-4.6-9-10.2
		V25.9h18V38.2z M76.5,41.7c0.3-1.1,0.5-2.3,0.5-3.5v-7.9h4.9C81.9,32.2,81.4,37,76.5,41.7z"/>
</g>
</svg>
