<?xml version="1.0" encoding="utf-8"?>
<!-- Generator: Adobe Illustrator 23.0.3, SVG Export Plug-In . SVG Version: 6.00 Build 0)  -->
<svg version="1.1" id="Livello_1" xmlns="http://www.w3.org/2000/svg" xmlns:xlink="http://www.w3.org/1999/xlink" x="0px" y="0px"
	 viewBox="0 0 400 400" style="enable-background:new 0 0 400 400;" xml:space="preserve">
<style type="text/css">
	.st0{fill:url(#SVGID_1_);}
	.st1{fill:url(#SVGID_2_);}
	.st2{fill:url(#SVGID_3_);}
	.st3{fill:url(#SVGID_4_);}
	.st4{fill:url(#SVGID_5_);}
	.st5{fill:url(#SVGID_6_);}
	.st6{fill:url(#SVGID_7_);}
	.st7{fill:url(#SVGID_8_);}
	.st8{fill:url(#SVGID_9_);}
	.st9{fill:url(#SVGID_10_);}
</style>
<g>
	<linearGradient id="SVGID_1_" gradientUnits="userSpaceOnUse" x1="-9.094947e-13" y1="200" x2="400" y2="200">
		<stop  offset="0" style="stop-color:#003162"/>
		<stop  offset="0.2076" style="stop-color:#013464"/>
		<stop  offset="0.3521" style="stop-color:#063D6B"/>
		<stop  offset="0.4775" style="stop-color:#0D4C76"/>
		<stop  offset="0.592" style="stop-color:#176287"/>
		<stop  offset="0.6991" style="stop-color:#247F9C"/>
		<stop  offset="0.8006" style="stop-color:#34A1B5"/>
		<stop  offset="0.8979" style="stop-color:#48CBD4"/>
		<stop  offset="0.9894" style="stop-color:#5DF9F7"/>
		<stop  offset="1" style="stop-color:#60FFFB"/>
	</linearGradient>
	<path class="st0" d="M380.6,12.9h-59.3C318.7,5.4,311.6,0,303.2,0h-90.3c-8.4,0-15.5,5.4-18.2,12.9h-59.3
		c-10.7,0-19.4,8.7-19.4,19.4v83.9h-22c-7.9,0-15.6,2.1-22.4,6L37,141.9H0v116.1h43.2l27.3,18.2c7.4,5,16.1,7.6,25.1,7.6h20.5v96.8
		c0,10.7,8.7,19.4,19.4,19.4h245.2c10.7,0,19.4-8.7,19.4-19.4V32.3C400,21.6,391.3,12.9,380.6,12.9z M154.8,167.7l12.4,0
		c13.3,0,25.4-10.8,26.2-24.1c0.9-15-11-27.5-25.8-27.5h-12.9V51.6h39.9c2.7,7.5,9.8,12.9,18.2,12.9h90.3c8.4,0,15.5-5.4,18.2-12.9
		h39.9v309.7H154.8V167.7z M212.9,12.9h90.3c3.6,0,6.5,2.9,6.5,6.5v25.8c0,3.6-2.9,6.5-6.5,6.5h-90.3c-3.6,0-6.5-2.9-6.5-6.5V19.4
		C206.5,15.8,209.3,12.9,212.9,12.9z M129,32.3c0-3.6,2.9-6.5,6.5-6.5h58.1v12.9h-51.6v77.4H129V32.3z M95.6,271
		c-6.4,0-12.6-1.9-17.9-5.4l-30.6-20.4H12.9v-90.3h27.5l37.7-21.6c4.9-2.8,10.4-4.3,16-4.3h73.2c6.6,0,12.4,4.8,13.2,11.4
		c0.9,7.8-5.2,14.4-12.8,14.4H90.3v6.5c0,17.8-14.5,32.3-32.3,32.3v12.9c22.7,0,41.6-16.9,44.7-38.7h13.4V271H95.6z M387.1,380.6
		c0,3.6-2.9,6.5-6.5,6.5H135.5c-3.6,0-6.5-2.9-6.5-6.5V167.7h12.9v206.5h232.3V38.7h-51.6V25.8h58.1c3.6,0,6.5,2.9,6.5,6.5V380.6z"
		/>
	<linearGradient id="SVGID_2_" gradientUnits="userSpaceOnUse" x1="219.3548" y1="32.2581" x2="232.2581" y2="32.2581">
		<stop  offset="0" style="stop-color:#003162"/>
		<stop  offset="0.2076" style="stop-color:#013464"/>
		<stop  offset="0.3521" style="stop-color:#063D6B"/>
		<stop  offset="0.4775" style="stop-color:#0D4C76"/>
		<stop  offset="0.592" style="stop-color:#176287"/>
		<stop  offset="0.6991" style="stop-color:#247F9C"/>
		<stop  offset="0.8006" style="stop-color:#34A1B5"/>
		<stop  offset="0.8979" style="stop-color:#48CBD4"/>
		<stop  offset="0.9894" style="stop-color:#5DF9F7"/>
		<stop  offset="1" style="stop-color:#60FFFB"/>
	</linearGradient>
	<path class="st1" d="M219.4,25.8h12.9v12.9h-12.9V25.8z"/>
	<linearGradient id="SVGID_3_" gradientUnits="userSpaceOnUse" x1="283.871" y1="32.2581" x2="296.7742" y2="32.2581">
		<stop  offset="0" style="stop-color:#003162"/>
		<stop  offset="0.2076" style="stop-color:#013464"/>
		<stop  offset="0.3521" style="stop-color:#063D6B"/>
		<stop  offset="0.4775" style="stop-color:#0D4C76"/>
		<stop  offset="0.592" style="stop-color:#176287"/>
		<stop  offset="0.6991" style="stop-color:#247F9C"/>
		<stop  offset="0.8006" style="stop-color:#34A1B5"/>
		<stop  offset="0.8979" style="stop-color:#48CBD4"/>
		<stop  offset="0.9894" style="stop-color:#5DF9F7"/>
		<stop  offset="1" style="stop-color:#60FFFB"/>
	</linearGradient>
	<path class="st2" d="M283.9,25.8h12.9v12.9h-12.9V25.8z"/>
	<linearGradient id="SVGID_4_" gradientUnits="userSpaceOnUse" x1="187.0968" y1="270.9531" x2="329.0323" y2="270.9531">
		<stop  offset="0" style="stop-color:#003162"/>
		<stop  offset="0.2076" style="stop-color:#013464"/>
		<stop  offset="0.3521" style="stop-color:#063D6B"/>
		<stop  offset="0.4775" style="stop-color:#0D4C76"/>
		<stop  offset="0.592" style="stop-color:#176287"/>
		<stop  offset="0.6991" style="stop-color:#247F9C"/>
		<stop  offset="0.8006" style="stop-color:#34A1B5"/>
		<stop  offset="0.8979" style="stop-color:#48CBD4"/>
		<stop  offset="0.9894" style="stop-color:#5DF9F7"/>
		<stop  offset="1" style="stop-color:#60FFFB"/>
	</linearGradient>
	<path class="st3" d="M305.6,298.1l-21.8-6.2l0-3.3c11.7-8.2,19.4-21.7,19.4-37v-12.3c0-24.2-18.8-44.6-43-45.8
		c-25.9-1.2-47.4,19.5-47.4,45.1v12.9c0,15.3,7.7,28.8,19.4,37v3.3l-21.8,6.2c-13.8,3.9-23.4,16.7-23.4,31v19.2H329v-19.2
		C329,314.8,319.4,302.1,305.6,298.1z M225.8,251.6v-12.9c0-17.8,14.5-32.3,32.3-32.3s32.3,14.5,32.3,32.3v12.9
		c0,17.8-14.5,32.3-32.3,32.3S225.8,269.4,225.8,251.6z M270.7,294.9l-12.7,16.9l-12.7-16.9c4,1.2,8.3,1.8,12.7,1.8
		C262.5,296.7,266.7,296.1,270.7,294.9z M316.1,335.5H200v-6.3c0-8.6,5.8-16.3,14-18.6l22.2-6.3l21.9,29.1l21.9-29.1l22.2,6.3
		c8.3,2.4,14,10,14,18.6V335.5z"/>
	<linearGradient id="SVGID_5_" gradientUnits="userSpaceOnUse" x1="167.7419" y1="83.871" x2="180.6452" y2="83.871">
		<stop  offset="0" style="stop-color:#003162"/>
		<stop  offset="0.2076" style="stop-color:#013464"/>
		<stop  offset="0.3521" style="stop-color:#063D6B"/>
		<stop  offset="0.4775" style="stop-color:#0D4C76"/>
		<stop  offset="0.592" style="stop-color:#176287"/>
		<stop  offset="0.6991" style="stop-color:#247F9C"/>
		<stop  offset="0.8006" style="stop-color:#34A1B5"/>
		<stop  offset="0.8979" style="stop-color:#48CBD4"/>
		<stop  offset="0.9894" style="stop-color:#5DF9F7"/>
		<stop  offset="1" style="stop-color:#60FFFB"/>
	</linearGradient>
	<path class="st4" d="M167.7,77.4h12.9v12.9h-12.9V77.4z"/>
	<linearGradient id="SVGID_6_" gradientUnits="userSpaceOnUse" x1="193.5484" y1="83.871" x2="348.3871" y2="83.871">
		<stop  offset="0" style="stop-color:#003162"/>
		<stop  offset="0.2076" style="stop-color:#013464"/>
		<stop  offset="0.3521" style="stop-color:#063D6B"/>
		<stop  offset="0.4775" style="stop-color:#0D4C76"/>
		<stop  offset="0.592" style="stop-color:#176287"/>
		<stop  offset="0.6991" style="stop-color:#247F9C"/>
		<stop  offset="0.8006" style="stop-color:#34A1B5"/>
		<stop  offset="0.8979" style="stop-color:#48CBD4"/>
		<stop  offset="0.9894" style="stop-color:#5DF9F7"/>
		<stop  offset="1" style="stop-color:#60FFFB"/>
	</linearGradient>
	<path class="st5" d="M193.5,77.4h154.8v12.9H193.5V77.4z"/>
	<linearGradient id="SVGID_7_" gradientUnits="userSpaceOnUse" x1="206.4516" y1="109.6774" x2="348.3871" y2="109.6774">
		<stop  offset="0" style="stop-color:#003162"/>
		<stop  offset="0.2076" style="stop-color:#013464"/>
		<stop  offset="0.3521" style="stop-color:#063D6B"/>
		<stop  offset="0.4775" style="stop-color:#0D4C76"/>
		<stop  offset="0.592" style="stop-color:#176287"/>
		<stop  offset="0.6991" style="stop-color:#247F9C"/>
		<stop  offset="0.8006" style="stop-color:#34A1B5"/>
		<stop  offset="0.8979" style="stop-color:#48CBD4"/>
		<stop  offset="0.9894" style="stop-color:#5DF9F7"/>
		<stop  offset="1" style="stop-color:#60FFFB"/>
	</linearGradient>
	<path class="st6" d="M206.5,103.2h141.9v12.9H206.5V103.2z"/>
	<linearGradient id="SVGID_8_" gradientUnits="userSpaceOnUse" x1="206.4516" y1="135.4839" x2="348.3871" y2="135.4839">
		<stop  offset="0" style="stop-color:#003162"/>
		<stop  offset="0.2076" style="stop-color:#013464"/>
		<stop  offset="0.3521" style="stop-color:#063D6B"/>
		<stop  offset="0.4775" style="stop-color:#0D4C76"/>
		<stop  offset="0.592" style="stop-color:#176287"/>
		<stop  offset="0.6991" style="stop-color:#247F9C"/>
		<stop  offset="0.8006" style="stop-color:#34A1B5"/>
		<stop  offset="0.8979" style="stop-color:#48CBD4"/>
		<stop  offset="0.9894" style="stop-color:#5DF9F7"/>
		<stop  offset="1" style="stop-color:#60FFFB"/>
	</linearGradient>
	<path class="st7" d="M206.5,129h141.9v12.9H206.5V129z"/>
	<linearGradient id="SVGID_9_" gradientUnits="userSpaceOnUse" x1="335.4839" y1="161.2903" x2="348.3871" y2="161.2903">
		<stop  offset="0" style="stop-color:#003162"/>
		<stop  offset="0.2076" style="stop-color:#013464"/>
		<stop  offset="0.3521" style="stop-color:#063D6B"/>
		<stop  offset="0.4775" style="stop-color:#0D4C76"/>
		<stop  offset="0.592" style="stop-color:#176287"/>
		<stop  offset="0.6991" style="stop-color:#247F9C"/>
		<stop  offset="0.8006" style="stop-color:#34A1B5"/>
		<stop  offset="0.8979" style="stop-color:#48CBD4"/>
		<stop  offset="0.9894" style="stop-color:#5DF9F7"/>
		<stop  offset="1" style="stop-color:#60FFFB"/>
	</linearGradient>
	<path class="st8" d="M335.5,154.8h12.9v12.9h-12.9V154.8z"/>
	<linearGradient id="SVGID_10_" gradientUnits="userSpaceOnUse" x1="206.4516" y1="161.2903" x2="322.5807" y2="161.2903">
		<stop  offset="0" style="stop-color:#003162"/>
		<stop  offset="0.2076" style="stop-color:#013464"/>
		<stop  offset="0.3521" style="stop-color:#063D6B"/>
		<stop  offset="0.4775" style="stop-color:#0D4C76"/>
		<stop  offset="0.592" style="stop-color:#176287"/>
		<stop  offset="0.6991" style="stop-color:#247F9C"/>
		<stop  offset="0.8006" style="stop-color:#34A1B5"/>
		<stop  offset="0.8979" style="stop-color:#48CBD4"/>
		<stop  offset="0.9894" style="stop-color:#5DF9F7"/>
		<stop  offset="1" style="stop-color:#60FFFB"/>
	</linearGradient>
	<path class="st9" d="M206.5,154.8h116.1v12.9H206.5V154.8z"/>
</g>
</svg>
