<?xml version="1.0" encoding="utf-8"?>
<!-- Generator: Adobe Illustrator 23.0.3, SVG Export Plug-In . SVG Version: 6.00 Build 0)  -->
<svg version="1.1" id="Livello_1" xmlns="http://www.w3.org/2000/svg" xmlns:xlink="http://www.w3.org/1999/xlink" x="0px" y="0px"
	 viewBox="0 0 40 40" style="enable-background:new 0 0 40 40;" xml:space="preserve">
<style type="text/css">
	.st0{fill:#003162;}
	.st1{fill:#212121;}
</style>
<g>
	<path class="st0" d="M23.1,38.8c-0.2,0-0.3,0-0.5,0.1C22.8,38.8,22.9,38.8,23.1,38.8z"/>
	<path class="st0" d="M23.5,38.7c-0.1,0-0.2,0-0.2,0C23.3,38.8,23.4,38.7,23.5,38.7z"/>
	<path class="st0" d="M22.2,38.9c-0.2,0-0.4,0-0.6,0.1C21.8,39,22,38.9,22.2,38.9z"/>
	<path class="st0" d="M22.5,38.9c-0.1,0-0.2,0-0.3,0C22.4,38.9,22.4,38.9,22.5,38.9z"/>
	<path class="st0" d="M24,38.6c-0.1,0-0.1,0-0.2,0C23.8,38.7,23.9,38.6,24,38.6z"/>
	<path class="st0" d="M25.3,38.3c-0.1,0-0.1,0-0.2,0C25.1,38.3,25.2,38.3,25.3,38.3z"/>
	<path class="st0" d="M24.9,38.4c-0.1,0-0.1,0-0.2,0C24.7,38.4,24.8,38.4,24.9,38.4z"/>
	<path class="st0" d="M24.4,38.5c-0.1,0-0.1,0-0.2,0C24.2,38.6,24.3,38.6,24.4,38.5z"/>
	<path class="st0" d="M21.6,39c-0.1,0-0.2,0-0.3,0C21.4,39,21.5,39,21.6,39z"/>
	<path class="st0" d="M39,20C39,9.5,30.5,1,20,1S1,9.5,1,20s8.5,19,19,19c0.1,0,0.3,0,0.3,0V24.2h-4.1v-4.8h4.1V16
		c0-4.1,2.5-6.3,6.1-6.3c1.7,0,3.2,0.1,3.7,0.2v4.2h-2.5c-2,0-2.3,0.9-2.3,2.3v3H30l-0.6,4.8h-4.1v14.1C33.2,36,39,28.7,39,20z"/>
	<path class="st0" d="M21.3,39c-0.2,0-0.4,0-0.6,0C20.9,39,21.1,39,21.3,39z"/>
	<path class="st0" d="M20.7,39c-0.1,0-0.2,0-0.3,0C20.4,39,20.5,39,20.7,39z"/>
</g>
<g>
	<path class="st0" d="M20-44.1C9.5-44.1,0.9-35.5,0.9-25S9.5-5.9,20-5.9S39.1-14.5,39.1-25S30.5-44.1,20-44.1z M14.5-15.3H9.8v-14
		h4.6V-15.3z M12.1-31.1L12.1-31.1c-1.6,0-2.6-1.1-2.6-2.4c0-1.4,1-2.4,2.6-2.4s2.6,1,2.6,2.4C14.8-32.2,13.8-31.1,12.1-31.1z
		 M31.2-15.3h-4.6v-7.5c0-1.9-0.7-3.2-2.4-3.2c-1.3,0-2.1,0.9-2.4,1.7c-0.1,0.3-0.2,0.7-0.2,1.1v7.8H17c0,0,0.1-12.7,0-14h4.6v2
		c0.6-1,1.7-2.3,4.2-2.3c3.1,0,5.3,2,5.3,6.3V-15.3z"/>
</g>
<g>
	<path class="st1" d="M631.5-540.4l40.5-39.1v-8.6H529.8L429.2-336.9L314.9-588H167v8.6l47.6,57.5c4.6,4.2,7.1,10.5,6.4,16.7V-280
		c1.5,8.1-1.2,16.5-6.9,22.4L160-192.4v8.4h153v-8l-53.9-65c-5.8-5.9-8.6-14.1-7.1-22.4v-195.3L385.5-183h15.6L516-474.7v232.1
		c0.1,6.1,0.1,7.4-3.9,11.4l-41.1,40v9.2h200v-8.6l-39.5-39.1c-3.5-2.6-5.3-7.1-4.5-11.4v-288C626.3-533.3,628-537.7,631.5-540.4
		L631.5-540.4z"/>
</g>
<path class="st0" d="M20-89C9.5-89,1-80.5,1-70s8.5,19,19,19s19-8.5,19-19S30.5-89,20-89z M29.3-76l-3.1,14.7
	c-0.2,1-0.8,1.3-1.7,0.8L19.7-64l-2.3,2.2c-0.3,0.3-0.5,0.5-1,0.5l0.3-4.8l8.8-8c0.4-0.3-0.1-0.5-0.6-0.2l-10.9,6.8l-4.7-1.5
	c-1-0.3-1-1,0.2-1.5L28-77.5C28.8-77.8,29.6-77.3,29.3-76L29.3-76z"/>
<g>
	<path class="st0" d="M20-133c-10.5,0-19,8.5-19,19c0,10.5,8.5,19,19,19s19-8.5,19-19C39-124.5,30.5-133,20-133z M29.8-117.2
		c0,0.2,0,0.4,0,0.6c0,6.3-4.8,13.6-13.6,13.6c-2.7,0-5.2-0.8-7.3-2.1c0.4,0,0.8,0.1,1.1,0.1c2.2,0,4.3-0.8,5.9-2
		c-2.1,0-3.9-1.4-4.5-3.3c0.3,0.1,0.6,0.1,0.9,0.1c0.4,0,0.9-0.1,1.3-0.2c-2.2-0.4-3.8-2.4-3.8-4.7c0,0,0,0,0-0.1
		c0.6,0.4,1.4,0.6,2.2,0.6c-1.3-0.9-2.1-2.3-2.1-4c0-0.9,0.2-1.7,0.6-2.4c2.4,2.9,5.9,4.8,9.9,5c-0.1-0.4-0.1-0.8-0.1-1.2
		c0.1-2.4,2-4.5,4.4-4.6c1.5-0.1,2.9,0.5,3.8,1.5c1.1-0.2,2.1-0.6,3-1.2c-0.4,1.1-1.1,2.1-2.1,2.6c1-0.1,1.9-0.4,2.7-0.8
		C31.6-118.7,30.7-117.8,29.8-117.2z"/>
	<g>
	</g>
	<g>
	</g>
	<g>
	</g>
	<g>
	</g>
	<g>
	</g>
	<g>
	</g>
	<g>
	</g>
	<g>
	</g>
	<g>
	</g>
	<g>
	</g>
	<g>
	</g>
	<g>
	</g>
	<g>
	</g>
	<g>
	</g>
	<g>
	</g>
</g>
<path class="st0" d="M20,46C9.5,46,1,54.5,1,65s8.5,19,19,19s19-8.5,19-19S30.5,46,20,46z M32.6,55.4l-2,1.9
	c-0.2,0.1-0.3,0.3-0.2,0.6v14.2c0,0.2,0.1,0.4,0.2,0.6l1.9,1.9V75h-9.9v-0.5l2-2c0.2-0.2,0.2-0.3,0.2-0.6V60.6L19.3,75h-0.8
	l-6.6-14.4v9.6c-0.1,0.4,0.1,0.8,0.3,1.1l2.7,3.2v0.4H7.4v-0.4l2.7-3.2c0.3-0.3,0.4-0.7,0.3-1.1V59.1c0-0.3-0.1-0.6-0.3-0.8
	l-2.3-2.8V55H15l5.6,12.4l5-12.4h7V55.4z"/>
</svg>
