<?xml version="1.0" encoding="utf-8"?>
<!-- Generator: Adobe Illustrator 23.0.3, SVG Export Plug-In . SVG Version: 6.00 Build 0)  -->
<svg version="1.1" id="Livello_1" xmlns="http://www.w3.org/2000/svg" xmlns:xlink="http://www.w3.org/1999/xlink" x="0px" y="0px"
	 viewBox="0 0 40 40" style="enable-background:new 0 0 40 40;" xml:space="preserve">
<style type="text/css">
	.st0{fill:#003162;}
	.st1{fill:#212121;}
</style>
<g>
	<path class="st0" d="M23.1,172.8c-0.2,0-0.3,0-0.5,0.1C22.8,172.8,22.9,172.8,23.1,172.8z"/>
	<path class="st0" d="M23.5,172.7c-0.1,0-0.2,0-0.2,0C23.3,172.8,23.4,172.7,23.5,172.7z"/>
	<path class="st0" d="M22.2,172.9c-0.2,0-0.4,0-0.6,0.1C21.8,173,22,172.9,22.2,172.9z"/>
	<path class="st0" d="M22.5,172.9c-0.1,0-0.2,0-0.3,0C22.4,172.9,22.4,172.9,22.5,172.9z"/>
	<path class="st0" d="M24,172.6c-0.1,0-0.1,0-0.2,0C23.8,172.7,23.9,172.6,24,172.6z"/>
	<path class="st0" d="M25.3,172.3c-0.1,0-0.1,0-0.2,0C25.1,172.3,25.2,172.3,25.3,172.3z"/>
	<path class="st0" d="M24.9,172.4c-0.1,0-0.1,0-0.2,0C24.7,172.4,24.8,172.4,24.9,172.4z"/>
	<path class="st0" d="M24.4,172.5c-0.1,0-0.1,0-0.2,0C24.2,172.6,24.3,172.6,24.4,172.5z"/>
	<path class="st0" d="M21.6,173c-0.1,0-0.2,0-0.3,0C21.4,173,21.5,173,21.6,173z"/>
	<path class="st0" d="M39,154c0-10.5-8.5-19-19-19s-19,8.5-19,19s8.5,19,19,19c0.1,0,0.3,0,0.3,0v-14.8h-4.1v-4.8h4.1V150
		c0-4.1,2.5-6.3,6.1-6.3c1.7,0,3.2,0.1,3.7,0.2v4.2h-2.5c-2,0-2.3,0.9-2.3,2.3v3H30l-0.6,4.8h-4.1v14.1C33.2,170,39,162.7,39,154z"
		/>
	<path class="st0" d="M21.3,173c-0.2,0-0.4,0-0.6,0C20.9,173,21.1,173,21.3,173z"/>
	<path class="st0" d="M20.7,173c-0.1,0-0.2,0-0.3,0C20.4,173,20.5,173,20.7,173z"/>
</g>
<g>
	<path class="st0" d="M20,89.9C9.5,89.9,0.9,98.5,0.9,109s8.5,19.1,19.1,19.1s19.1-8.5,19.1-19.1S30.5,89.9,20,89.9z M14.5,118.7
		H9.8v-14h4.6V118.7z M12.1,102.9L12.1,102.9c-1.6,0-2.6-1.1-2.6-2.4c0-1.4,1-2.4,2.6-2.4s2.6,1,2.6,2.4
		C14.8,101.8,13.8,102.9,12.1,102.9z M31.2,118.7h-4.6v-7.5c0-1.9-0.7-3.2-2.4-3.2c-1.3,0-2.1,0.9-2.4,1.7c-0.1,0.3-0.2,0.7-0.2,1.1
		v7.8H17c0,0,0.1-12.7,0-14h4.6v2c0.6-1,1.7-2.3,4.2-2.3c3.1,0,5.3,2,5.3,6.3V118.7z"/>
</g>
<g>
	<path class="st1" d="M631.5-406.4l40.5-39.1v-8.6H529.8L429.2-202.9L314.9-454H167v8.6l47.6,57.5c4.6,4.2,7.1,10.5,6.4,16.7V-146
		c1.5,8.1-1.2,16.5-6.9,22.4L160-58.4v8.4h153v-8l-53.9-65c-5.8-5.9-8.6-14.1-7.1-22.4v-195.3L385.5-49h15.6L516-340.7v232.1
		c0.1,6.1,0.1,7.4-3.9,11.4l-41.1,40v9.2h200v-8.6l-39.5-39.1c-3.5-2.6-5.3-7.1-4.5-11.4v-288C626.3-399.3,628-403.7,631.5-406.4
		L631.5-406.4z"/>
</g>
<path class="st0" d="M20,45C9.5,45,1,53.5,1,64s8.5,19,19,19s19-8.5,19-19S30.5,45,20,45z M29.3,58l-3.1,14.7
	c-0.2,1-0.8,1.3-1.7,0.8L19.7,70l-2.3,2.2c-0.3,0.3-0.5,0.5-1,0.5l0.3-4.8l8.8-8c0.4-0.3-0.1-0.5-0.6-0.2l-10.9,6.8l-4.7-1.5
	c-1-0.3-1-1,0.2-1.5L28,56.5C28.8,56.2,29.6,56.7,29.3,58L29.3,58z"/>
<g>
	<path class="st0" d="M20,1C9.5,1,1,9.5,1,20c0,10.5,8.5,19,19,19s19-8.5,19-19C39,9.5,30.5,1,20,1z M29.8,16.8c0,0.2,0,0.4,0,0.6
		c0,6.3-4.8,13.6-13.6,13.6c-2.7,0-5.2-0.8-7.3-2.1C9.3,29,9.6,29,10,29c2.2,0,4.3-0.8,5.9-2c-2.1,0-3.9-1.4-4.5-3.3
		c0.3,0.1,0.6,0.1,0.9,0.1c0.4,0,0.9-0.1,1.3-0.2c-2.2-0.4-3.8-2.4-3.8-4.7c0,0,0,0,0-0.1c0.6,0.4,1.4,0.6,2.2,0.6
		c-1.3-0.9-2.1-2.3-2.1-4c0-0.9,0.2-1.7,0.6-2.4c2.4,2.9,5.9,4.8,9.9,5c-0.1-0.4-0.1-0.8-0.1-1.2c0.1-2.4,2-4.5,4.4-4.6
		c1.5-0.1,2.9,0.5,3.8,1.5c1.1-0.2,2.1-0.6,3-1.2c-0.4,1.1-1.1,2.1-2.1,2.6c1-0.1,1.9-0.4,2.7-0.8C31.6,15.3,30.7,16.2,29.8,16.8z"
		/>
	<g>
	</g>
	<g>
	</g>
	<g>
	</g>
	<g>
	</g>
	<g>
	</g>
	<g>
	</g>
	<g>
	</g>
	<g>
	</g>
	<g>
	</g>
	<g>
	</g>
	<g>
	</g>
	<g>
	</g>
	<g>
	</g>
	<g>
	</g>
	<g>
	</g>
</g>
<path class="st0" d="M20,180c-10.5,0-19,8.5-19,19s8.5,19,19,19s19-8.5,19-19S30.5,180,20,180z M32.6,189.4l-2,1.9
	c-0.2,0.1-0.3,0.3-0.2,0.6v14.2c0,0.2,0.1,0.4,0.2,0.6l1.9,1.9v0.4h-9.9v-0.5l2-2c0.2-0.2,0.2-0.3,0.2-0.6v-11.4L19.3,209h-0.8
	l-6.6-14.4v9.6c-0.1,0.4,0.1,0.8,0.3,1.1l2.7,3.2v0.4H7.4v-0.4l2.7-3.2c0.3-0.3,0.4-0.7,0.3-1.1v-11.1c0-0.3-0.1-0.6-0.3-0.8
	l-2.3-2.8V189H15l5.6,12.4l5-12.4h7V189.4z"/>
</svg>
